SplineFontDB: 3.2
FontName: Regime-Light
FullName: Regime Light
FamilyName: Light
Weight: Book
Copyright: Copyright (c) 2016 by Valerio Dell'Edera. All rights reserved.
Version: 1.000
ItalicAngle: 0
UnderlinePosition: -307.2
UnderlineWidth: 102.4
Ascent: 1638
Descent: 410
InvalidEm: 0
sfntRevision: 0x00010000
LayerCount: 2
Layer: 0 1 "Back" 1
Layer: 1 1 "Fore" 0
XUID: [1021 657 -141582489 7895638]
StyleMap: 0x0040
FSType: 0
OS2Version: 4
OS2_WeightWidthSlopeOnly: 0
OS2_UseTypoMetrics: 1
CreationTime: 1455744527
ModificationTime: 1740360218
PfmFamily: 81
TTFWeight: 400
TTFWidth: 5
LineGap: 37
VLineGap: 0
Panose: 0 0 0 0 0 0 0 0 0 0
OS2TypoAscent: 1456
OS2TypoAOffset: 0
OS2TypoDescent: 477
OS2TypoDOffset: 0
OS2TypoLinegap: 74
OS2WinAscent: 1456
OS2WinAOffset: 0
OS2WinDescent: 477
OS2WinDOffset: 0
HheadAscent: 1456
HheadAOffset: 0
HheadDescent: -477
HheadDOffset: 0
OS2SubXSize: 1434
OS2SubYSize: 1331
OS2SubXOff: 0
OS2SubYOff: 287
OS2SupXSize: 1434
OS2SupYSize: 1331
OS2SupXOff: 0
OS2SupYOff: 977
OS2StrikeYSize: 102
OS2StrikeYPos: 512
OS2CapHeight: 1456
OS2XHeight: 958
OS2Vendor: 'HL  '
OS2CodePages: 20000093.00000000
OS2UnicodeRanges: a000002f.1000006a.00000000.00000000
Lookup: 258 0 0 "'kern' Horizontal Kerning lookup 0" { "'kern' Horizontal Kerning lookup 0 subtable"  } ['kern' ('DFLT' <'dflt' > ) ]
MarkAttachClasses: 1
DEI: 91125
TtTable: prep
PUSHW_1
 20
CALL
SVTCA[x-axis]
PUSHW_3
 5
 33
 22
CALL
SVTCA[x-axis]
PUSHW_8
 35
 108
 94
 73
 52
 32
 0
 28
CALL
PUSHW_8
 36
 64
 49
 39
 28
 17
 0
 28
CALL
PUSHW_8
 37
 53
 49
 39
 28
 17
 0
 28
CALL
SVTCA[y-axis]
PUSHW_8
 31
 108
 94
 73
 52
 32
 0
 28
CALL
PUSHW_8
 32
 125
 94
 73
 52
 32
 0
 28
CALL
PUSHW_8
 33
 64
 53
 39
 28
 17
 0
 28
CALL
PUSHW_8
 34
 62
 49
 39
 28
 17
 0
 28
CALL
SVTCA[y-axis]
PUSHW_3
 38
 4
 27
CALL
PUSHW_1
 30
DUP
RCVT
RDTG
ROUND[Black]
RTG
WCVTP
PUSHW_1
 10
CALL
SVTCA[x-axis]
PUSHW_3
 4
 18
 12
CALL
SVTCA[x-axis]
PUSHW_8
 20
 79
 68
 52
 38
 19
 0
 18
CALL
PUSHW_8
 21
 53
 44
 34
 25
 19
 0
 18

StartChar: exclam
Encoding: 33 33 4
Width: 378
GlyphClass: 2
Flags: W
LayerCount: 2
Fore
SplineSet
145 1456 m 1,0,-1
 244 1456 l 1,1,-1
 244 426 l 1,2,-1
 145 426 l 1,3,-1
 145 1456 l 1,0,-1
195 176 m 0,4,5
 232 176 232 176 258.5 150.5 c 128,-1,6
 285 125 285 125 285 88 c 0,7,8
 285 53 285 53 258 26.5 c 128,-1,9
 231 0 231 0 195 0 c 0,10,11
 160 0 160 0 133 26.5 c 128,-1,12
 106 53 106 53 106 88 c 0,13,14
 106 125 106 125 133 150.5 c 128,-1,15
 160 176 160 176 195 176 c 0,4,5
EndSplineSet
Validated: 1
EndChar

StartChar: quotedbl
Encoding: 34 34 5
Width: 704
GlyphClass: 2
Flags: W
LayerCount: 2
Fore
SplineSet
139 1456 m 1,0,-1
 238 1456 l 1,1,-1
 238 954 l 1,2,-1
 139 954 l 1,3,-1
 139 1456 l 1,0,-1
485 1456 m 1,4,-1
 586 1456 l 1,5,-1
 586 954 l 1,6,-1
 485 954 l 1,7,-1
 485 1456 l 1,4,-1
EndSplineSet
Validated: 1
EndChar

StartChar: numbersign
Encoding: 35 35 6
Width: 1050
GlyphClass: 2
Flags: W
LayerCount: 2
Fore
SplineSet
893 383 m 1,0,-1
 721 383 l 1,1,2
 715 328 715 328 705.5 258 c 128,-1,3
 696 188 696 188 688 127 c 0,4,5
 684 96 684 96 679 63.5 c 128,-1,6
 674 31 674 31 670 0 c 1,7,-1
 608 0 l 1,8,-1
 664 383 l 1,9,-1
 373 383 l 1,10,11
 367 330 367 330 357.5 266.5 c 128,-1,12
 348 203 348 203 342 150 c 0,13,14
 336 111 336 111 330 75 c 128,-1,15
 324 39 324 39 319 0 c 1,16,-1
 260 0 l 1,17,-1
 315 383 l 1,18,-1
 135 383 l 1,19,-1
 135 434 l 1,20,-1
 324 434 l 1,21,-1
 367 758 l 1,22,-1
 188 758 l 1,23,-1
 188 809 l 1,24,-1
 373 809 l 1,25,26
 385 895 385 895 397.5 999.5 c 128,-1,27
 410 1104 410 1104 422 1192 c 1,28,-1
 487 1192 l 1,29,-1
 430 809 l 1,30,-1
 723 809 l 1,31,-1
 731 874 l 2,32,33
 741 952 741 952 751.5 1034 c 128,-1,34
 762 1116 762 1116 772 1192 c 1,35,-1
 840 1192 l 1,36,-1
 778 809 l 1,37,-1
 944 809 l 1,38,-1
 944 758 l 1,39,-1
 774 758 l 1,40,-1
 729 434 l 1,41,-1
 893 434 l 1,42,-1
 893 383 l 1,0,-1
424 758 m 1,43,-1
 381 434 l 1,44,-1
 672 434 l 1,45,-1
 715 758 l 1,46,-1
 424 758 l 1,43,-1
EndSplineSet
Validated: 1
EndChar

StartChar: dollar
Encoding: 36 36 7
Width: 1021
GlyphClass: 2
Flags: W
LayerCount: 2
Fore
SplineSet
528 780 m 0,0,1
 608 780 608 780 679 749.5 c 128,-1,2
 750 719 750 719 802 665.5 c 128,-1,3
 854 612 854 612 884.5 540.5 c 128,-1,4
 915 469 915 469 915 389 c 0,5,6
 915 321 915 321 889.5 258 c 128,-1,7
 864 195 864 195 818 142.5 c 128,-1,8
 772 90 772 90 710.5 52 c 128,-1,9
 649 14 649 14 578 0 c 1,10,-1
 578 -172 l 1,11,-1
 473 -172 l 1,12,-1
 473 2 l 1,13,14
 405 16 405 16 347 49 c 128,-1,15
 289 82 289 82 244 127 c 128,-1,16
 199 172 199 172 171 228.5 c 128,-1,17
 143 285 143 285 137 348 c 1,18,-1
 244 348 l 1,19,20
 250 293 250 293 274.5 249 c 128,-1,21
 299 205 299 205 338 172 c 128,-1,22
 377 139 377 139 426 121.5 c 128,-1,23
 475 104 475 104 528 104 c 0,24,25
 585 104 585 104 636.5 128 c 128,-1,26
 688 152 688 152 727 190.5 c 128,-1,27
 766 229 766 229 788.5 280.5 c 128,-1,28
 811 332 811 332 811 389 c 256,29,30
 811 446 811 446 788.5 498.5 c 128,-1,31
 766 551 766 551 727 590 c 128,-1,32
 688 629 688 629 637 652.5 c 128,-1,33
 586 676 586 676 528 676 c 0,34,35
 448 676 448 676 376.5 706.5 c 128,-1,36
 305 737 305 737 251 790.5 c 128,-1,37
 197 844 197 844 166 915.5 c 128,-1,38
 135 987 135 987 135 1067 c 0,39,40
 135 1135 135 1135 160.5 1196 c 128,-1,41
 186 1257 186 1257 231 1308.5 c 128,-1,42
 276 1360 276 1360 337.5 1398 c 128,-1,43
 399 1436 399 1436 473 1454 c 1,44,-1
 473 1628 l 1,45,-1
 578 1628 l 1,46,-1
 578 1454 l 1,47,48
 713 1419 713 1419 806 1328 c 128,-1,49
 899 1237 899 1237 913 1108 c 1,50,-1
 809 1108 l 1,51,52
 803 1163 803 1163 778.5 1207 c 128,-1,53
 754 1251 754 1251 715 1284 c 128,-1,54
 676 1317 676 1317 628 1334.5 c 128,-1,55
 580 1352 580 1352 528 1352 c 0,56,57
 471 1352 471 1352 419 1328.5 c 128,-1,58
 367 1305 367 1305 328 1266 c 128,-1,59
 289 1227 289 1227 265.5 1175.5 c 128,-1,60
 242 1124 242 1124 242 1067 c 256,61,62
 242 1010 242 1010 265.5 957.5 c 128,-1,63
 289 905 289 905 328 866 c 128,-1,64
 367 827 367 827 419 803.5 c 128,-1,65
 471 780 471 780 528 780 c 0,0,1
EndSplineSet
Validated: 1
EndChar

StartChar: percent
Encoding: 37 37 8
Width: 1851
GlyphClass: 2
Flags: W
LayerCount: 2
Fore
SplineSet
770 1130 m 256,0,1
 770 1062 770 1062 744.5 1004 c 128,-1,2
 719 946 719 946 675 902 c 128,-1,3
 631 858 631 858 572.5 832.5 c 128,-1,4
 514 807 514 807 449 807 c 0,5,6
 381 807 381 807 321.5 832.5 c 128,-1,7
 262 858 262 858 218 902 c 128,-1,8
 174 946 174 946 148.5 1004.5 c 128,-1,9
 123 1063 123 1063 123 1130 c 256,10,11
 123 1198 123 1198 148.5 1256.5 c 128,-1,12
 174 1315 174 1315 218 1360 c 128,-1,13
 262 1405 262 1405 321.5 1430.5 c 128,-1,14
 381 1456 381 1456 449 1456 c 256,15,16
 517 1456 517 1456 575 1430.5 c 128,-1,17
 633 1405 633 1405 677 1360 c 128,-1,18
 721 1315 721 1315 745.5 1256.5 c 128,-1,19
 770 1198 770 1198 770 1130 c 256,0,1
1782 324 m 256,20,21
 1782 256 1782 256 1756.5 197.5 c 128,-1,22
 1731 139 1731 139 1686.5 95 c 128,-1,23
 1642 51 1642 51 1584 25.5 c 128,-1,24
 1526 0 1526 0 1458 0 c 256,25,26
 1390 0 1390 0 1332 25.5 c 128,-1,27
 1274 51 1274 51 1230 95 c 128,-1,28
 1186 139 1186 139 1160.5 197.5 c 128,-1,29
 1135 256 1135 256 1135 324 c 256,30,31
 1135 392 1135 392 1159.5 451 c 128,-1,32
 1184 510 1184 510 1228 554 c 128,-1,33
 1272 598 1272 598 1331.5 623.5 c 128,-1,34
 1391 649 1391 649 1458 649 c 256,35,36
 1526 649 1526 649 1585.5 623.5 c 128,-1,37
 1645 598 1645 598 1688 554 c 128,-1,38
 1731 510 1731 510 1756.5 451 c 128,-1,39
 1782 392 1782 392 1782 324 c 256,20,21
1290 1456 m 1,40,-1
 1386 1456 l 1,41,-1
 618 0 l 1,42,-1
 518 0 l 1,43,-1
 1290 1456 l 1,40,-1
707 1130 m 256,44,45
 707 1185 707 1185 687.5 1232.5 c 128,-1,46
 668 1280 668 1280 633 1315 c 128,-1,47
 598 1350 598 1350 551 1370.5 c 128,-1,48
 504 1391 504 1391 449 1391 c 256,49,50
 394 1391 394 1391 345.5 1370.5 c 128,-1,51
 297 1350 297 1350 262 1315 c 128,-1,52
 227 1280 227 1280 207.5 1233 c 128,-1,53
 188 1186 188 1186 188 1130 c 256,54,55
 188 1075 188 1075 207.5 1028 c 128,-1,56
 227 981 227 981 263 946 c 128,-1,57
 299 911 299 911 346 890.5 c 128,-1,58
 393 870 393 870 449 870 c 256,59,60
 504 870 504 870 551 890.5 c 128,-1,61
 598 911 598 911 633 946 c 128,-1,62
 668 981 668 981 687.5 1028 c 128,-1,63
 707 1075 707 1075 707 1130 c 256,44,45
1716 324 m 0,64,65
 1716 375 1716 375 1696.5 423 c 128,-1,66
 1677 471 1677 471 1642.5 506 c 128,-1,67
 1608 541 1608 541 1560.5 562.5 c 128,-1,68
 1513 584 1513 584 1458 584 c 256,69,70
 1403 584 1403 584 1355 562.5 c 128,-1,71
 1307 541 1307 541 1272 506 c 128,-1,72
 1237 471 1237 471 1217.5 423 c 128,-1,73
 1198 375 1198 375 1198 324 c 0,74,75
 1198 269 1198 269 1217.5 221.5 c 128,-1,76
 1237 174 1237 174 1273 138 c 128,-1,77
 1309 102 1309 102 1356 82.5 c 128,-1,78
 1403 63 1403 63 1458 63 c 256,79,80
 1513 63 1513 63 1560.5 82.5 c 128,-1,81
 1608 102 1608 102 1642.5 138 c 128,-1,82
 1677 174 1677 174 1696.5 221.5 c 128,-1,83
 1716 269 1716 269 1716 324 c 0,64,65
EndSplineSet
Validated: 1
EndChar

StartChar: ampersand
Encoding: 38 38 9
Width: 1400
GlyphClass: 2
Flags: W
LayerCount: 2
Fore
SplineSet
1118 0 m 1,0,-1
 997 154 l 1,1,2
 796 -2 796 -2 573 -2 c 0,3,4
 485 -2 485 -2 405.5 24.5 c 128,-1,5
 326 51 326 51 264.5 101.5 c 128,-1,6
 203 152 203 152 167 225.5 c 128,-1,7
 131 299 131 299 131 393 c 0,8,9
 131 463 131 463 155.5 526.5 c 128,-1,10
 180 590 180 590 224 645 c 128,-1,11
 268 700 268 700 329.5 746.5 c 128,-1,12
 391 793 391 793 465 825 c 1,13,14
 399 905 399 905 361.5 972.5 c 128,-1,15
 324 1040 324 1040 324 1114 c 0,16,17
 324 1184 324 1184 348.5 1245.5 c 128,-1,18
 373 1307 373 1307 417 1353 c 128,-1,19
 461 1399 461 1399 520.5 1425.5 c 128,-1,20
 580 1452 580 1452 649 1452 c 0,21,22
 715 1452 715 1452 769 1434.5 c 128,-1,23
 823 1417 823 1417 870 1376 c 1,24,-1
 784 1292 l 1,25,26
 757 1315 757 1315 726.5 1325 c 128,-1,27
 696 1335 696 1335 653 1335 c 0,28,29
 555 1335 555 1335 497.5 1272.5 c 128,-1,30
 440 1210 440 1210 440 1112 c 0,31,32
 440 1077 440 1077 457.5 1038 c 128,-1,33
 475 999 475 999 496 971 c 2,34,-1
 1008 330 l 1,35,36
 1069 447 1069 447 1109 560.5 c 128,-1,37
 1149 674 1149 674 1157 784 c 1,38,-1
 1274 784 l 1,39,40
 1270 718 1270 718 1254.5 646.5 c 128,-1,41
 1239 575 1239 575 1213.5 503.5 c 128,-1,42
 1188 432 1188 432 1153 364.5 c 128,-1,43
 1118 297 1118 297 1073 242 c 1,44,-1
 1268 0 l 1,45,-1
 1118 0 l 1,0,-1
573 115 m 0,46,47
 663 115 663 115 749.5 147.5 c 128,-1,48
 836 180 836 180 922 244 c 1,49,-1
 537 733 l 1,50,51
 482 708 482 708 429.5 675.5 c 128,-1,52
 377 643 377 643 337 601 c 128,-1,53
 297 559 297 559 272.5 508 c 128,-1,54
 248 457 248 457 248 393 c 0,55,56
 248 321 248 321 275.5 269 c 128,-1,57
 303 217 303 217 348 182 c 128,-1,58
 393 147 393 147 451.5 131 c 128,-1,59
 510 115 510 115 573 115 c 0,46,47
EndSplineSet
Validated: 1
EndChar

StartChar: quotesingle
Encoding: 39 39 10
Width: 452
GlyphClass: 2
Flags: W
LayerCount: 2
Fore
SplineSet
143 1130 m 1,0,-1
 174 1145 l 1,1,2
 162 1139 162 1139 143 1137 c 1,3,-1
 143 1130 l 1,0,-1
322 1370 m 0,4,5
 322 1294 322 1294 281 1232.5 c 128,-1,6
 240 1171 240 1171 174 1145 c 1,7,8
 201 1161 201 1161 223.5 1193 c 128,-1,9
 246 1225 246 1225 256 1276 c 1,10,11
 209 1286 209 1286 176 1311.5 c 128,-1,12
 143 1337 143 1337 143 1368 c 0,13,14
 143 1403 143 1403 170 1429.5 c 128,-1,15
 197 1456 197 1456 233 1456 c 0,16,17
 268 1456 268 1456 295 1430.5 c 128,-1,18
 322 1405 322 1405 322 1370 c 0,4,5
EndSplineSet
Validated: 5
EndChar

StartChar: parenleft
Encoding: 40 40 11
Width: 727
GlyphClass: 2
Flags: W
LayerCount: 2
Fore
SplineSet
524 -240 m 1,0,1
 327 -37 327 -37 233 210 c 128,-1,2
 139 457 139 457 139 725 c 0,3,4
 139 991 139 991 233.5 1239 c 128,-1,5
 328 1487 328 1487 524 1692 c 1,6,-1
 592 1624 l 1,7,8
 412 1434 412 1434 324 1201.5 c 128,-1,9
 236 969 236 969 236 725 c 0,10,11
 236 479 236 479 324 249.5 c 128,-1,12
 412 20 412 20 592 -172 c 1,13,-1
 524 -240 l 1,0,1
EndSplineSet
Validated: 1
EndChar

StartChar: parenright
Encoding: 41 41 12
Width: 727
GlyphClass: 2
Flags: W
LayerCount: 2
Fore
SplineSet
158 -172 m 1,0,1
 338 18 338 18 425 248.5 c 128,-1,2
 512 479 512 479 512 725 c 0,3,4
 512 969 512 969 424 1201.5 c 128,-1,5
 336 1434 336 1434 158 1624 c 1,6,-1
 227 1692 l 1,7,8
 420 1487 420 1487 514 1239 c 128,-1,9
 608 991 608 991 608 725 c 0,10,11
 608 457 608 457 514 210 c 128,-1,12
 420 -37 420 -37 227 -240 c 1,13,-1
 158 -172 l 1,0,1
EndSplineSet
Validated: 1
EndChar

StartChar: asterisk
Encoding: 42 42 13
Width: 753
GlyphClass: 2
Flags: W
LayerCount: 2
Fore
SplineSet
639 1233 m 1,0,-1
 436 1204 l 1,1,-1
 567 1028 l 1,2,3
 544 1016 544 1016 526 1001.5 c 128,-1,4
 508 987 508 987 492 975 c 1,5,-1
 383 1167 l 1,6,-1
 266 961 l 1,7,-1
 188 1012 l 1,8,-1
 328 1204 l 1,9,-1
 125 1233 l 1,10,11
 129 1260 129 1260 135 1278 c 128,-1,12
 141 1296 141 1296 145 1319 c 1,13,-1
 352 1257 l 1,14,15
 348 1298 348 1298 343 1352.5 c 128,-1,16
 338 1407 338 1407 334 1454 c 1,17,-1
 430 1454 l 1,18,-1
 412 1257 l 1,19,-1
 618 1319 l 1,20,-1
 639 1233 l 1,0,-1
EndSplineSet
Validated: 1
EndChar

StartChar: plus
Encoding: 43 43 14
Width: 980
GlyphClass: 2
Flags: W
LayerCount: 2
Fore
SplineSet
555 844 m 1,0,-1
 555 526 l 1,1,-1
 874 526 l 1,2,-1
 874 424 l 1,3,-1
 555 424 l 1,4,-1
 555 104 l 1,5,-1
 455 104 l 1,6,-1
 455 424 l 1,7,-1
 135 424 l 1,8,-1
 135 526 l 1,9,-1
 455 526 l 1,10,-1
 455 844 l 1,11,-1
 555 844 l 1,0,-1
EndSplineSet
Validated: 1
EndChar

StartChar: comma
Encoding: 44 44 15
Width: 452
GlyphClass: 2
Flags: W
LayerCount: 2
Fore
SplineSet
123 -115 m 1,0,1
 156 -105 156 -105 186.5 -78 c 128,-1,2
 217 -51 217 -51 227 -2 c 1,3,4
 182 8 182 8 152.5 38 c 128,-1,5
 123 68 123 68 123 102 c 0,6,7
 123 147 123 147 153.5 179 c 128,-1,8
 184 211 184 211 229 211 c 0,9,10
 272 211 272 211 304 180.5 c 128,-1,11
 336 150 336 150 336 104 c 256,12,13
 336 59 336 59 319.5 17 c 128,-1,14
 303 -25 303 -25 274.5 -59.5 c 128,-1,15
 246 -94 246 -94 207 -116.5 c 128,-1,16
 168 -139 168 -139 123 -145 c 1,17,-1
 123 -115 l 1,0,1
EndSplineSet
Validated: 1
EndChar

StartChar: hyphen
Encoding: 45 45 16
Width: 796
GlyphClass: 2
Flags: W
LayerCount: 2
Fore
SplineSet
682 424 m 1,0,-1
 139 424 l 1,1,-1
 139 526 l 1,2,-1
 682 526 l 1,3,-1
 682 424 l 1,0,-1
EndSplineSet
Validated: 1
EndChar

StartChar: period
Encoding: 46 46 17
Width: 452
GlyphClass: 2
Flags: W
LayerCount: 2
Fore
SplineSet
231 213 m 0,0,1
 274 213 274 213 305 182.5 c 128,-1,2
 336 152 336 152 336 106 c 0,3,4
 336 63 336 63 305 31.5 c 128,-1,5
 274 0 274 0 231 0 c 0,6,7
 186 0 186 0 154.5 31.5 c 128,-1,8
 123 63 123 63 123 106 c 0,9,10
 123 151 123 151 154.5 182 c 128,-1,11
 186 213 186 213 231 213 c 0,0,1
EndSplineSet
Validated: 1
EndChar

StartChar: slash
Encoding: 47 47 18
Width: 897
GlyphClass: 2
Flags: W
LayerCount: 2
Fore
SplineSet
772 1589 m 1,0,1
 641 1145 641 1145 512 715 c 128,-1,2
 383 285 383 285 252 -160 c 1,3,4
 223 -152 223 -152 200.5 -147.5 c 128,-1,5
 178 -143 178 -143 152 -135 c 1,6,7
 283 311 283 311 412 740 c 128,-1,8
 541 1169 541 1169 672 1616 c 1,9,-1
 772 1589 l 1,0,1
EndSplineSet
Validated: 1
EndChar

StartChar: zero
Encoding: 48 48 19
Width: 1144
GlyphClass: 2
Flags: W
LayerCount: 2
Fore
SplineSet
135 1022 m 2,0,1
 135 1112 135 1112 168 1192 c 128,-1,2
 201 1272 201 1272 259 1330.5 c 128,-1,3
 317 1389 317 1389 397 1422.5 c 128,-1,4
 477 1456 477 1456 569 1456 c 0,5,6
 659 1456 659 1456 739 1422.5 c 128,-1,7
 819 1389 819 1389 877.5 1330.5 c 128,-1,8
 936 1272 936 1272 970 1192 c 128,-1,9
 1004 1112 1004 1112 1004 1022 c 2,10,-1
 1004 434 l 2,11,12
 1004 344 1004 344 970 264 c 128,-1,13
 936 184 936 184 877.5 126 c 128,-1,14
 819 68 819 68 739 34 c 128,-1,15
 659 0 659 0 569 0 c 0,16,17
 477 0 477 0 397 34 c 128,-1,18
 317 68 317 68 259 126 c 128,-1,19
 201 184 201 184 168 264 c 128,-1,20
 135 344 135 344 135 434 c 2,21,-1
 135 1022 l 2,0,1
903 1022 m 2,22,23
 903 1096 903 1096 878.5 1157.5 c 128,-1,24
 854 1219 854 1219 810 1262 c 128,-1,25
 766 1305 766 1305 704.5 1328.5 c 128,-1,26
 643 1352 643 1352 569 1352 c 0,27,28
 419 1352 419 1352 328.5 1261.5 c 128,-1,29
 238 1171 238 1171 238 1022 c 2,30,-1
 238 434 l 2,31,32
 238 284 238 284 329 194 c 128,-1,33
 420 104 420 104 569 104 c 0,34,35
 643 104 643 104 704.5 128 c 128,-1,36
 766 152 766 152 810 195 c 128,-1,37
 854 238 854 238 878.5 299 c 128,-1,38
 903 360 903 360 903 434 c 2,39,-1
 903 1022 l 2,22,23
EndSplineSet
Validated: 1
EndChar

StartChar: one
Encoding: 49 49 20
Width: 708
GlyphClass: 2
Flags: W
LayerCount: 2
Fore
SplineSet
524 1456 m 1,0,-1
 524 0 l 1,1,-1
 420 0 l 1,2,-1
 420 1184 l 1,3,-1
 141 1184 l 1,4,-1
 141 1264 l 1,5,6
 186 1266 186 1266 233.5 1276 c 128,-1,7
 281 1286 281 1286 320.5 1307.5 c 128,-1,8
 360 1329 360 1329 387 1365 c 128,-1,9
 414 1401 414 1401 420 1456 c 1,10,-1
 524 1456 l 1,0,-1
EndSplineSet
Validated: 1
EndChar

StartChar: two
Encoding: 50 50 21
Width: 1105
GlyphClass: 2
Flags: W
LayerCount: 2
Fore
SplineSet
1004 1022 m 0,0,1
 1004 942 1004 942 968 875.5 c 128,-1,2
 932 809 932 809 874.5 751.5 c 128,-1,3
 817 694 817 694 744.5 646 c 128,-1,4
 672 598 672 598 600 553 c 0,5,6
 532 510 532 510 466.5 465 c 128,-1,7
 401 420 401 420 350 366.5 c 128,-1,8
 299 313 299 313 267.5 249.5 c 128,-1,9
 236 186 236 186 236 104 c 1,10,-1
 1004 104 l 1,11,-1
 1004 0 l 1,12,-1
 135 0 l 1,13,-1
 135 147 l 2,14,15
 135 233 135 233 172 303 c 128,-1,16
 209 373 209 373 268.5 430 c 128,-1,17
 328 487 328 487 401.5 536.5 c 128,-1,18
 475 586 475 586 551 633 c 0,19,20
 621 672 621 672 684.5 714 c 128,-1,21
 748 756 748 756 797 803 c 128,-1,22
 846 850 846 850 874.5 904 c 128,-1,23
 903 958 903 958 903 1022 c 0,24,25
 903 1096 903 1096 878.5 1157.5 c 128,-1,26
 854 1219 854 1219 810 1262 c 128,-1,27
 766 1305 766 1305 704.5 1328.5 c 128,-1,28
 643 1352 643 1352 569 1352 c 0,29,30
 432 1352 432 1352 343 1276 c 128,-1,31
 254 1200 254 1200 238 1065 c 1,32,-1
 137 1065 l 1,33,34
 149 1145 149 1145 186 1215.5 c 128,-1,35
 223 1286 223 1286 280.5 1340.5 c 128,-1,36
 338 1395 338 1395 411.5 1425.5 c 128,-1,37
 485 1456 485 1456 569 1456 c 0,38,39
 659 1456 659 1456 739 1422.5 c 128,-1,40
 819 1389 819 1389 877.5 1330.5 c 128,-1,41
 936 1272 936 1272 970 1192 c 128,-1,42
 1004 1112 1004 1112 1004 1022 c 0,0,1
EndSplineSet
Validated: 1
EndChar

StartChar: three
Encoding: 51 51 22
Width: 1105
GlyphClass: 2
Flags: W
LayerCount: 2
Fore
SplineSet
238 391 m 1,0,1
 246 321 246 321 275.5 268 c 128,-1,2
 305 215 305 215 350 178 c 128,-1,3
 395 141 395 141 451.5 122.5 c 128,-1,4
 508 104 508 104 569 104 c 0,5,6
 639 104 639 104 700.5 127 c 128,-1,7
 762 150 762 150 807 191.5 c 128,-1,8
 852 233 852 233 877.5 294.5 c 128,-1,9
 903 356 903 356 903 434 c 0,10,11
 903 520 903 520 873.5 571.5 c 128,-1,12
 844 623 844 623 803 649.5 c 128,-1,13
 762 676 762 676 719 684 c 128,-1,14
 676 692 676 692 649 694 c 1,15,-1
 649 768 l 1,16,17
 669 768 669 768 711.5 775 c 128,-1,18
 754 782 754 782 797 808 c 128,-1,19
 840 834 840 834 871.5 885 c 128,-1,20
 903 936 903 936 903 1022 c 0,21,22
 903 1100 903 1100 877.5 1161.5 c 128,-1,23
 852 1223 852 1223 807 1265 c 128,-1,24
 762 1307 762 1307 700.5 1329.5 c 128,-1,25
 639 1352 639 1352 569 1352 c 0,26,27
 508 1352 508 1352 450.5 1333.5 c 128,-1,28
 393 1315 393 1315 347 1279 c 128,-1,29
 301 1243 301 1243 271.5 1189 c 128,-1,30
 242 1135 242 1135 236 1065 c 1,31,-1
 137 1065 l 1,32,33
 147 1153 147 1153 185 1224.5 c 128,-1,34
 223 1296 223 1296 280.5 1347.5 c 128,-1,35
 338 1399 338 1399 411.5 1427.5 c 128,-1,36
 485 1456 485 1456 569 1456 c 0,37,38
 657 1456 657 1456 737 1424.5 c 128,-1,39
 817 1393 817 1393 875.5 1336.5 c 128,-1,40
 934 1280 934 1280 969 1200 c 128,-1,41
 1004 1120 1004 1120 1004 1022 c 0,42,43
 1004 938 1004 938 959.5 863 c 128,-1,44
 915 788 915 788 817 729 c 1,45,46
 915 668 915 668 959.5 593 c 128,-1,47
 1004 518 1004 518 1004 434 c 0,48,49
 1004 336 1004 336 969 256 c 128,-1,50
 934 176 934 176 875.5 119.5 c 128,-1,51
 817 63 817 63 737 31.5 c 128,-1,52
 657 0 657 0 569 0 c 0,53,54
 485 0 485 0 410.5 27.5 c 128,-1,55
 336 55 336 55 278.5 107.5 c 128,-1,56
 221 160 221 160 183 231.5 c 128,-1,57
 145 303 145 303 137 393 c 1,58,-1
 238 391 l 1,0,1
EndSplineSet
Validated: 1
EndChar

StartChar: four
Encoding: 52 52 23
Width: 1200
GlyphClass: 2
Flags: W
LayerCount: 2
Fore
SplineSet
827 1456 m 1,0,-1
 827 528 l 1,1,-1
 1102 528 l 1,2,-1
 1102 426 l 1,3,-1
 827 426 l 1,4,-1
 827 0 l 1,5,-1
 725 0 l 1,6,-1
 725 426 l 1,7,-1
 133 426 l 1,8,-1
 133 561 l 1,9,10
 217 696 217 696 292 814 c 128,-1,11
 367 932 367 932 434.5 1040.5 c 128,-1,12
 502 1149 502 1149 565.5 1251.5 c 128,-1,13
 629 1354 629 1354 692 1456 c 1,14,-1
 827 1456 l 1,0,-1
725 528 m 1,15,-1
 725 1319 l 1,16,-1
 219 528 l 1,17,-1
 725 528 l 1,15,-1
EndSplineSet
Validated: 1
EndChar

StartChar: five
Encoding: 53 53 24
Width: 1081
GlyphClass: 2
Flags: W
LayerCount: 2
Fore
SplineSet
545 -2 m 0,0,1
 408 -2 408 -2 305.5 64.5 c 128,-1,2
 203 131 203 131 152 248 c 1,3,-1
 264 248 l 1,4,5
 311 170 311 170 382 127 c 128,-1,6
 453 84 453 84 545 84 c 0,7,8
 617 84 617 84 677 112.5 c 128,-1,9
 737 141 737 141 781 191.5 c 128,-1,10
 825 242 825 242 849.5 311.5 c 128,-1,11
 874 381 874 381 874 461 c 0,12,13
 874 543 874 543 849.5 612.5 c 128,-1,14
 825 682 825 682 781 733 c 128,-1,15
 737 784 737 784 676.5 814 c 128,-1,16
 616 844 616 844 545 844 c 0,17,18
 453 844 453 844 381 798 c 128,-1,19
 309 752 309 752 262 674 c 1,20,-1
 135 674 l 1,21,-1
 135 1456 l 1,22,-1
 915 1456 l 1,23,-1
 915 1352 l 1,24,-1
 236 1352 l 1,25,-1
 236 788 l 1,26,27
 269 833 269 833 307.5 861 c 128,-1,28
 346 889 346 889 387 904.5 c 128,-1,29
 428 920 428 920 469 925 c 128,-1,30
 510 930 510 930 545 930 c 0,31,32
 637 930 637 930 717 894 c 128,-1,33
 797 858 797 858 855 794.5 c 128,-1,34
 913 731 913 731 946 645 c 128,-1,35
 979 559 979 559 979 461 c 0,36,37
 979 365 979 365 946 281 c 128,-1,38
 913 197 913 197 855 133.5 c 128,-1,39
 797 70 797 70 717 34 c 128,-1,40
 637 -2 637 -2 545 -2 c 0,0,1
EndSplineSet
Validated: 1
EndChar

StartChar: six
Encoding: 54 54 25
Width: 1126
GlyphClass: 2
Flags: W
LayerCount: 2
Fore
SplineSet
135 1022 m 2,0,1
 135 1112 135 1112 168 1192 c 128,-1,2
 201 1272 201 1272 259 1330.5 c 128,-1,3
 317 1389 317 1389 397 1422.5 c 128,-1,4
 477 1456 477 1456 569 1456 c 0,5,6
 700 1456 700 1456 802.5 1392.5 c 128,-1,7
 905 1329 905 1329 965 1200 c 1,8,-1
 854 1200 l 1,9,10
 807 1272 807 1272 737.5 1312 c 128,-1,11
 668 1352 668 1352 569 1352 c 0,12,13
 419 1352 419 1352 328.5 1261.5 c 128,-1,14
 238 1171 238 1171 238 1022 c 2,15,-1
 238 705 l 1,16,17
 273 773 273 773 315.5 816.5 c 128,-1,18
 358 860 358 860 405.5 885.5 c 128,-1,19
 453 911 453 911 500 921.5 c 128,-1,20
 547 932 547 932 590 932 c 0,21,22
 688 932 688 932 768 895 c 128,-1,23
 848 858 848 858 905.5 793.5 c 128,-1,24
 963 729 963 729 993.5 644 c 128,-1,25
 1024 559 1024 559 1024 463 c 0,26,27
 1024 369 1024 369 992.5 285 c 128,-1,28
 961 201 961 201 904.5 137.5 c 128,-1,29
 848 74 848 74 768 37 c 128,-1,30
 688 0 688 0 590 0 c 0,31,32
 455 0 455 0 368 61.5 c 128,-1,33
 281 123 281 123 228.5 219 c 128,-1,34
 176 315 176 315 155.5 433 c 128,-1,35
 135 551 135 551 135 664 c 2,36,-1
 135 1022 l 2,0,1
590 846 m 256,37,38
 512 846 512 846 450.5 812 c 128,-1,39
 389 778 389 778 347 725 c 128,-1,40
 305 672 305 672 282.5 602 c 128,-1,41
 260 532 260 532 260 463 c 256,42,43
 260 393 260 393 282.5 325.5 c 128,-1,44
 305 258 305 258 347 205 c 128,-1,45
 389 152 389 152 450.5 119 c 128,-1,46
 512 86 512 86 590 86 c 256,47,48
 668 86 668 86 729.5 119 c 128,-1,49
 791 152 791 152 834 205 c 128,-1,50
 877 258 877 258 899.5 325.5 c 128,-1,51
 922 393 922 393 922 463 c 256,52,53
 922 533 922 533 899.5 602.5 c 128,-1,54
 877 672 877 672 834 725 c 128,-1,55
 791 778 791 778 729.5 812 c 128,-1,56
 668 846 668 846 590 846 c 256,37,38
EndSplineSet
Validated: 1
EndChar

StartChar: seven
Encoding: 55 55 26
Width: 1132
GlyphClass: 2
Flags: W
LayerCount: 2
Fore
SplineSet
1030 1456 m 1,0,-1
 1030 1341 l 1,1,2
 897 1200 897 1200 806 1037 c 128,-1,3
 715 874 715 874 652.5 700 c 128,-1,4
 590 526 590 526 549 348 c 128,-1,5
 508 170 508 170 477 0 c 1,6,-1
 375 0 l 1,7,8
 404 172 404 172 443.5 347 c 128,-1,9
 483 522 483 522 545.5 694 c 128,-1,10
 608 866 608 866 700.5 1032 c 128,-1,11
 793 1198 793 1198 928 1352 c 1,12,-1
 135 1352 l 1,13,-1
 135 1456 l 1,14,-1
 1030 1456 l 1,0,-1
EndSplineSet
Validated: 1
EndChar

StartChar: eight
Encoding: 56 56 27
Width: 1105
GlyphClass: 2
Flags: W
LayerCount: 2
Fore
SplineSet
135 1073 m 0,0,1
 135 1161 135 1161 171 1232 c 128,-1,2
 207 1303 207 1303 267.5 1353 c 128,-1,3
 328 1403 328 1403 406.5 1429.5 c 128,-1,4
 485 1456 485 1456 569 1456 c 256,5,6
 653 1456 653 1456 732 1429.5 c 128,-1,7
 811 1403 811 1403 871.5 1353 c 128,-1,8
 932 1303 932 1303 968 1231 c 128,-1,9
 1004 1159 1004 1159 1004 1071 c 0,10,11
 1004 973 1004 973 946.5 884 c 128,-1,12
 889 795 889 795 784 727 c 1,13,14
 888 659 888 659 946 570 c 128,-1,15
 1004 481 1004 481 1004 385 c 0,16,17
 1004 297 1004 297 968 226.5 c 128,-1,18
 932 156 932 156 871.5 105.5 c 128,-1,19
 811 55 811 55 732 28.5 c 128,-1,20
 653 2 653 2 569 2 c 256,21,22
 485 2 485 2 406.5 28.5 c 128,-1,23
 328 55 328 55 267.5 105.5 c 128,-1,24
 207 156 207 156 171 226.5 c 128,-1,25
 135 297 135 297 135 385 c 0,26,27
 135 481 135 481 192.5 570 c 128,-1,28
 250 659 250 659 354 727 c 1,29,30
 250 801 250 801 192.5 889 c 128,-1,31
 135 977 135 977 135 1073 c 0,0,1
903 1073 m 0,32,33
 903 1143 903 1143 875.5 1198 c 128,-1,34
 848 1253 848 1253 802 1291 c 128,-1,35
 756 1329 756 1329 695.5 1349.5 c 128,-1,36
 635 1370 635 1370 569 1370 c 256,37,38
 503 1370 503 1370 443 1349.5 c 128,-1,39
 383 1329 383 1329 337 1291 c 128,-1,40
 291 1253 291 1253 264.5 1197 c 128,-1,41
 238 1141 238 1141 238 1071 c 0,42,43
 238 997 238 997 265.5 941 c 128,-1,44
 293 885 293 885 339 847 c 128,-1,45
 385 809 385 809 444.5 790.5 c 128,-1,46
 504 772 504 772 569 772 c 256,47,48
 635 772 635 772 695.5 792.5 c 128,-1,49
 756 813 756 813 802 851 c 128,-1,50
 848 889 848 889 875.5 945 c 128,-1,51
 903 1001 903 1001 903 1073 c 0,32,33
903 385 m 256,52,53
 903 457 903 457 875.5 512 c 128,-1,54
 848 567 848 567 802 606 c 128,-1,55
 756 645 756 645 695.5 664.5 c 128,-1,56
 635 684 635 684 569 684 c 256,57,58
 503 684 503 684 444 664.5 c 128,-1,59
 385 645 385 645 339 606 c 128,-1,60
 293 567 293 567 265.5 512 c 128,-1,61
 238 457 238 457 238 385 c 256,62,63
 238 313 238 313 265.5 258 c 128,-1,64
 293 203 293 203 339 165 c 128,-1,65
 385 127 385 127 444.5 107.5 c 128,-1,66
 504 88 504 88 569 88 c 256,67,68
 635 88 635 88 695.5 107.5 c 128,-1,69
 756 127 756 127 802 165 c 128,-1,70
 848 203 848 203 875.5 258 c 128,-1,71
 903 313 903 313 903 385 c 256,52,53
EndSplineSet
Validated: 1
EndChar

StartChar: nine
Encoding: 57 57 28
Width: 1126
GlyphClass: 2
Flags: W
LayerCount: 2
Fore
SplineSet
1024 434 m 2,0,1
 1024 344 1024 344 990 264 c 128,-1,2
 956 184 956 184 898 126 c 128,-1,3
 840 68 840 68 761 34 c 128,-1,4
 682 0 682 0 590 0 c 0,5,6
 459 0 459 0 356.5 63.5 c 128,-1,7
 254 127 254 127 195 256 c 1,8,-1
 305 256 l 1,9,10
 352 184 352 184 422 144 c 128,-1,11
 492 104 492 104 590 104 c 0,12,13
 740 104 740 104 831 194.5 c 128,-1,14
 922 285 922 285 922 434 c 2,15,-1
 922 752 l 1,16,17
 887 684 887 684 844 640 c 128,-1,18
 801 596 801 596 754 570.5 c 128,-1,19
 707 545 707 545 659.5 534.5 c 128,-1,20
 612 524 612 524 569 524 c 0,21,22
 471 524 471 524 391 561 c 128,-1,23
 311 598 311 598 254 662.5 c 128,-1,24
 197 727 197 727 166 812 c 128,-1,25
 135 897 135 897 135 993 c 0,26,27
 135 1087 135 1087 167 1171 c 128,-1,28
 199 1255 199 1255 255 1318.5 c 128,-1,29
 311 1382 311 1382 391 1419 c 128,-1,30
 471 1456 471 1456 569 1456 c 0,31,32
 704 1456 704 1456 791.5 1394.5 c 128,-1,33
 879 1333 879 1333 931 1237 c 128,-1,34
 983 1141 983 1141 1003.5 1023 c 128,-1,35
 1024 905 1024 905 1024 793 c 2,36,-1
 1024 434 l 2,0,1
569 610 m 256,37,38
 647 610 647 610 708.5 644 c 128,-1,39
 770 678 770 678 812 731 c 128,-1,40
 854 784 854 784 876.5 853 c 128,-1,41
 899 922 899 922 899 993 c 0,42,43
 899 1063 899 1063 876.5 1130.5 c 128,-1,44
 854 1198 854 1198 812 1251.5 c 128,-1,45
 770 1305 770 1305 708.5 1337.5 c 128,-1,46
 647 1370 647 1370 569 1370 c 256,47,48
 491 1370 491 1370 430 1337.5 c 128,-1,49
 369 1305 369 1305 326 1251.5 c 128,-1,50
 283 1198 283 1198 260.5 1130.5 c 128,-1,51
 238 1063 238 1063 238 993 c 0,52,53
 238 921 238 921 260.5 852.5 c 128,-1,54
 283 784 283 784 326 731 c 128,-1,55
 369 678 369 678 430 644 c 128,-1,56
 491 610 491 610 569 610 c 256,37,38
EndSplineSet
Validated: 1
EndChar

StartChar: colon
Encoding: 58 58 29
Width: 452
GlyphClass: 2
Flags: W
LayerCount: 2
Fore
SplineSet
229 930 m 0,0,1
 272 930 272 930 303 899 c 128,-1,2
 334 868 334 868 334 823 c 0,3,4
 334 780 334 780 303 748.5 c 128,-1,5
 272 717 272 717 229 717 c 0,6,7
 184 717 184 717 152.5 748.5 c 128,-1,8
 121 780 121 780 121 823 c 0,9,10
 121 868 121 868 152.5 899 c 128,-1,11
 184 930 184 930 229 930 c 0,0,1
231 213 m 0,12,13
 274 213 274 213 305 182.5 c 128,-1,14
 336 152 336 152 336 106 c 0,15,16
 336 63 336 63 305 31.5 c 128,-1,17
 274 0 274 0 231 0 c 0,18,19
 186 0 186 0 154.5 31.5 c 128,-1,20
 123 63 123 63 123 106 c 0,21,22
 123 151 123 151 154.5 182 c 128,-1,23
 186 213 186 213 231 213 c 0,12,13
EndSplineSet
Validated: 1
EndChar

StartChar: semicolon
Encoding: 59 59 30
Width: 452
GlyphClass: 2
Flags: W
LayerCount: 2
Fore
SplineSet
123 -115 m 1,0,1
 156 -105 156 -105 186.5 -78 c 128,-1,2
 217 -51 217 -51 227 -2 c 1,3,4
 182 8 182 8 152.5 38 c 128,-1,5
 123 68 123 68 123 102 c 0,6,7
 123 147 123 147 153.5 179 c 128,-1,8
 184 211 184 211 229 211 c 0,9,10
 272 211 272 211 304 180.5 c 128,-1,11
 336 150 336 150 336 104 c 256,12,13
 336 59 336 59 319.5 17 c 128,-1,14
 303 -25 303 -25 274.5 -59.5 c 128,-1,15
 246 -94 246 -94 207 -116.5 c 128,-1,16
 168 -139 168 -139 123 -145 c 1,17,-1
 123 -115 l 1,0,1
229 930 m 0,18,19
 272 930 272 930 303 899 c 128,-1,20
 334 868 334 868 334 823 c 0,21,22
 334 780 334 780 303 748.5 c 128,-1,23
 272 717 272 717 229 717 c 0,24,25
 184 717 184 717 152.5 748.5 c 128,-1,26
 121 780 121 780 121 823 c 0,27,28
 121 868 121 868 152.5 899 c 128,-1,29
 184 930 184 930 229 930 c 0,18,19
EndSplineSet
Validated: 1
EndChar

StartChar: less
Encoding: 60 60 31
Width: 980
GlyphClass: 2
Flags: W
LayerCount: 2
Fore
SplineSet
874 723 m 1,0,-1
 197 475 l 1,1,2
 275 446 275 446 360.5 413.5 c 128,-1,3
 446 381 446 381 534.5 348 c 128,-1,4
 623 315 623 315 710 283.5 c 128,-1,5
 797 252 797 252 874 223 c 1,6,-1
 874 143 l 1,7,8
 727 196 727 196 601 242.5 c 128,-1,9
 475 289 475 289 334 342 c 2,10,-1
 135 416 l 1,11,-1
 135 537 l 1,12,13
 233 574 233 574 324.5 606.5 c 128,-1,14
 416 639 416 639 506 672 c 128,-1,15
 596 705 596 705 687 735.5 c 128,-1,16
 778 766 778 766 874 801 c 1,17,-1
 874 723 l 1,0,-1
EndSplineSet
Validated: 1
EndChar

StartChar: equal
Encoding: 61 61 32
Width: 980
GlyphClass: 2
Flags: W
LayerCount: 2
Fore
SplineSet
874 309 m 1,0,-1
 874 207 l 1,1,-1
 135 207 l 1,2,-1
 135 309 l 1,3,-1
 874 309 l 1,0,-1
874 741 m 1,4,-1
 874 641 l 1,5,-1
 135 641 l 1,6,-1
 135 741 l 1,7,-1
 874 741 l 1,4,-1
EndSplineSet
Validated: 1
EndChar

StartChar: greater
Encoding: 62 62 33
Width: 980
GlyphClass: 2
Flags: W
LayerCount: 2
Fore
SplineSet
135 803 m 1,0,1
 328 735 328 735 505 669.5 c 128,-1,2
 682 604 682 604 874 535 c 1,3,-1
 874 414 l 1,4,5
 684 342 684 342 505 277.5 c 128,-1,6
 326 213 326 213 135 145 c 1,7,-1
 135 225 l 1,8,-1
 813 475 l 1,9,10
 735 504 735 504 649 535.5 c 128,-1,11
 563 567 563 567 475 600 c 128,-1,12
 387 633 387 633 300 664.5 c 128,-1,13
 213 696 213 696 135 725 c 1,14,-1
 135 803 l 1,0,1
EndSplineSet
Validated: 1
EndChar

StartChar: question
Encoding: 63 63 34
Width: 1087
GlyphClass: 2
Flags: W
LayerCount: 2
Fore
SplineSet
571 1456 m 0,0,1
 655 1456 655 1456 731 1430.5 c 128,-1,2
 807 1405 807 1405 863.5 1358 c 128,-1,3
 920 1311 920 1311 952.5 1242.5 c 128,-1,4
 985 1174 985 1174 985 1085 c 0,5,6
 985 1030 985 1030 970.5 988 c 128,-1,7
 956 946 956 946 931.5 910 c 128,-1,8
 907 874 907 874 875.5 843.5 c 128,-1,9
 844 813 844 813 811 782 c 2,10,-1
 793 762 l 2,11,12
 758 727 758 727 726 694.5 c 128,-1,13
 694 662 694 662 667.5 622 c 128,-1,14
 641 582 641 582 622.5 534.5 c 128,-1,15
 604 487 604 487 596 426 c 1,16,-1
 494 426 l 1,17,18
 500 500 500 500 520.5 555 c 128,-1,19
 541 610 541 610 571.5 653 c 128,-1,20
 602 696 602 696 638 731 c 128,-1,21
 674 766 674 766 709 797 c 0,22,23
 742 828 742 828 771.5 858.5 c 128,-1,24
 801 889 801 889 823.5 922.5 c 128,-1,25
 846 956 846 956 859 996 c 128,-1,26
 872 1036 872 1036 872 1087 c 0,27,28
 872 1234 872 1234 790.5 1306 c 128,-1,29
 709 1378 709 1378 565 1378 c 0,30,31
 477 1378 477 1378 416.5 1353.5 c 128,-1,32
 356 1329 356 1329 317.5 1285 c 128,-1,33
 279 1241 279 1241 259.5 1179.5 c 128,-1,34
 240 1118 240 1118 233 1044 c 1,35,-1
 135 1044 l 1,36,37
 145 1130 145 1130 179 1206 c 128,-1,38
 213 1282 213 1282 268.5 1337.5 c 128,-1,39
 324 1393 324 1393 400.5 1424.5 c 128,-1,40
 477 1456 477 1456 571 1456 c 0,0,1
549 176 m 0,41,42
 584 176 584 176 609.5 150.5 c 128,-1,43
 635 125 635 125 635 88 c 0,44,45
 635 53 635 53 609.5 26.5 c 128,-1,46
 584 0 584 0 549 0 c 0,47,48
 510 0 510 0 484.5 26.5 c 128,-1,49
 459 53 459 53 459 88 c 0,50,51
 459 125 459 125 484.5 150.5 c 128,-1,52
 510 176 510 176 549 176 c 0,41,42
EndSplineSet
Validated: 1
EndChar

StartChar: at
Encoding: 64 64 35
Width: 1708
GlyphClass: 2
Flags: W
LayerCount: 2
Fore
SplineSet
1188 903 m 1,0,-1
 1255 903 l 1,1,-1
 1151 311 l 1,2,3
 1167 270 1167 270 1198 254 c 128,-1,4
 1229 238 1229 238 1264 238 c 0,5,6
 1338 238 1338 238 1391 285 c 128,-1,7
 1444 332 1444 332 1478.5 399.5 c 128,-1,8
 1513 467 1513 467 1529.5 542.5 c 128,-1,9
 1546 618 1546 618 1546 674 c 0,10,11
 1546 797 1546 797 1496 889 c 128,-1,12
 1446 981 1446 981 1364 1042.5 c 128,-1,13
 1282 1104 1282 1104 1176.5 1134.5 c 128,-1,14
 1071 1165 1071 1165 961 1165 c 0,15,16
 816 1165 816 1165 680.5 1118 c 128,-1,17
 545 1071 545 1071 440.5 983 c 128,-1,18
 336 895 336 895 273.5 770 c 128,-1,19
 211 645 211 645 211 492 c 0,20,21
 211 340 211 340 269.5 223 c 128,-1,22
 328 106 328 106 425 24.5 c 128,-1,23
 522 -57 522 -57 650 -99 c 128,-1,24
 778 -141 778 -141 920 -141 c 0,25,26
 1067 -141 1067 -141 1201 -97 c 128,-1,27
 1335 -53 1335 -53 1458 33 c 1,28,29
 1470 15 1470 15 1477.5 6.5 c 128,-1,30
 1485 -2 1485 -2 1497 -18 c 1,31,32
 1368 -110 1368 -110 1213.5 -163.5 c 128,-1,33
 1059 -217 1059 -217 903 -217 c 0,34,35
 743 -217 743 -217 602 -168 c 128,-1,36
 461 -119 461 -119 355.5 -26.5 c 128,-1,37
 250 66 250 66 188.5 199 c 128,-1,38
 127 332 127 332 127 500 c 0,39,40
 127 666 127 666 194.5 803 c 128,-1,41
 262 940 262 940 375.5 1036.5 c 128,-1,42
 489 1133 489 1133 635.5 1186 c 128,-1,43
 782 1239 782 1239 942 1239 c 0,44,45
 1073 1239 1073 1239 1198 1203 c 128,-1,46
 1323 1167 1323 1167 1418 1094.5 c 128,-1,47
 1513 1022 1513 1022 1571.5 914.5 c 128,-1,48
 1630 807 1630 807 1630 664 c 0,49,50
 1630 578 1630 578 1602.5 487.5 c 128,-1,51
 1575 397 1575 397 1521.5 323.5 c 128,-1,52
 1468 250 1468 250 1392.5 203 c 128,-1,53
 1317 156 1317 156 1223 156 c 0,54,55
 1172 156 1172 156 1128.5 191.5 c 128,-1,56
 1085 227 1085 227 1057 274 c 1,57,58
 994 225 994 225 922 190.5 c 128,-1,59
 850 156 850 156 778 156 c 0,60,61
 712 156 712 156 660 179.5 c 128,-1,62
 608 203 608 203 571.5 243 c 128,-1,63
 535 283 535 283 514.5 337 c 128,-1,64
 494 391 494 391 494 453 c 0,65,66
 494 539 494 539 526.5 619.5 c 128,-1,67
 559 700 559 700 617.5 763.5 c 128,-1,68
 676 827 676 827 752.5 865 c 128,-1,69
 829 903 829 903 920 903 c 0,70,71
 977 903 977 903 1036.5 874.5 c 128,-1,72
 1096 846 1096 846 1149 797 c 1,73,-1
 1188 903 l 1,0,-1
1114 586 m 0,74,75
 1114 690 1114 690 1061 758.5 c 128,-1,76
 1008 827 1008 827 897 827 c 0,77,78
 829 827 829 827 771 796.5 c 128,-1,79
 713 766 713 766 670 716 c 128,-1,80
 627 666 627 666 603.5 602.5 c 128,-1,81
 580 539 580 539 580 475 c 0,82,83
 580 426 580 426 595 382 c 128,-1,84
 610 338 610 338 640 304 c 128,-1,85
 670 270 670 270 711 250.5 c 128,-1,86
 752 231 752 231 803 231 c 0,87,88
 873 231 873 231 930 263 c 128,-1,89
 987 295 987 295 1028 345 c 128,-1,90
 1069 395 1069 395 1091.5 459 c 128,-1,91
 1114 523 1114 523 1114 586 c 0,74,75
EndSplineSet
Validated: 1
EndChar

StartChar: A
Encoding: 65 65 36
Width: 1241
GlyphClass: 2
Flags: W
LayerCount: 2
Fore
SplineSet
911 426 m 1,0,-1
 367 426 l 1,1,-1
 242 0 l 1,2,-1
 150 0 l 1,3,-1
 567 1456 l 1,4,-1
 707 1456 l 1,5,-1
 1126 0 l 1,6,-1
 1032 0 l 1,7,-1
 911 426 l 1,0,-1
637 1366 m 1,8,-1
 395 528 l 1,9,-1
 881 528 l 1,10,-1
 637 1366 l 1,8,-1
EndSplineSet
Validated: 1
EndChar

StartChar: B
Encoding: 66 66 37
Width: 1320
GlyphClass: 2
Flags: W
LayerCount: 2
Fore
SplineSet
1227 1067 m 0,0,1
 1227 952 1227 952 1186 875.5 c 128,-1,2
 1145 799 1145 799 1051 727 c 1,3,4
 1125 668 1125 668 1176 585 c 128,-1,5
 1227 502 1227 502 1227 387 c 0,6,7
 1227 307 1227 307 1196 236.5 c 128,-1,8
 1165 166 1165 166 1113 113.5 c 128,-1,9
 1061 61 1061 61 990.5 30.5 c 128,-1,10
 920 0 920 0 840 0 c 2,11,-1
 197 0 l 1,12,-1
 197 1456 l 1,13,-1
 840 1456 l 2,14,15
 920 1456 920 1456 990.5 1425.5 c 128,-1,16
 1061 1395 1061 1395 1113 1342.5 c 128,-1,17
 1165 1290 1165 1290 1196 1218.5 c 128,-1,18
 1227 1147 1227 1147 1227 1067 c 0,0,1
840 104 m 2,19,20
 895 104 895 104 947 127 c 128,-1,21
 999 150 999 150 1038 188.5 c 128,-1,22
 1077 227 1077 227 1100.5 278.5 c 128,-1,23
 1124 330 1124 330 1124 387 c 0,24,25
 1124 442 1124 442 1104.5 494.5 c 128,-1,26
 1085 547 1085 547 1050.5 587 c 128,-1,27
 1016 627 1016 627 967 651.5 c 128,-1,28
 918 676 918 676 860 676 c 2,29,-1
 301 676 l 1,30,-1
 301 104 l 1,31,-1
 840 104 l 2,19,20
860 780 m 2,32,33
 917 780 917 780 966.5 803.5 c 128,-1,34
 1016 827 1016 827 1050.5 867 c 128,-1,35
 1085 907 1085 907 1104.5 959.5 c 128,-1,36
 1124 1012 1124 1012 1124 1067 c 0,37,38
 1124 1124 1124 1124 1100.5 1175.5 c 128,-1,39
 1077 1227 1077 1227 1038 1266 c 128,-1,40
 999 1305 999 1305 948 1328.5 c 128,-1,41
 897 1352 897 1352 840 1352 c 2,42,-1
 301 1352 l 1,43,-1
 301 780 l 1,44,-1
 860 780 l 2,32,33
EndSplineSet
Validated: 1
EndChar

StartChar: C
Encoding: 67 67 38
Width: 1419
GlyphClass: 2
Flags: W
LayerCount: 2
Fore
SplineSet
1311 158 m 1,0,1
 1213 86 1213 86 1099 43 c 128,-1,2
 985 0 985 0 858 0 c 0,3,4
 706 0 706 0 574 57.5 c 128,-1,5
 442 115 442 115 344 213 c 128,-1,6
 246 311 246 311 188.5 443 c 128,-1,7
 131 575 131 575 131 727 c 0,8,9
 131 877 131 877 188.5 1010 c 128,-1,10
 246 1143 246 1143 344 1242 c 128,-1,11
 442 1341 442 1341 574.5 1398.5 c 128,-1,12
 707 1456 707 1456 858 1456 c 0,13,14
 987 1456 987 1456 1099.5 1415 c 128,-1,15
 1212 1374 1212 1374 1311 1298 c 1,16,-1
 1237 1223 l 1,17,18
 1159 1282 1159 1282 1065 1317 c 128,-1,19
 971 1352 971 1352 858 1352 c 0,20,21
 729 1352 729 1352 615.5 1302.5 c 128,-1,22
 502 1253 502 1253 418 1168 c 128,-1,23
 334 1083 334 1083 285 969.5 c 128,-1,24
 236 856 236 856 236 727 c 256,25,26
 236 598 236 598 285 484.5 c 128,-1,27
 334 371 334 371 418 287 c 128,-1,28
 502 203 502 203 615.5 153.5 c 128,-1,29
 729 104 729 104 858 104 c 0,30,31
 960 104 960 104 1059.5 142 c 128,-1,32
 1159 180 1159 180 1237 233 c 1,33,-1
 1311 158 l 1,0,1
EndSplineSet
Validated: 1
EndChar

StartChar: D
Encoding: 68 68 39
Width: 1439
GlyphClass: 2
Flags: W
LayerCount: 2
Fore
SplineSet
623 1456 m 2,0,1
 773 1456 773 1456 905.5 1398.5 c 128,-1,2
 1038 1341 1038 1341 1136.5 1242 c 128,-1,3
 1235 1143 1235 1143 1292.5 1010 c 128,-1,4
 1350 877 1350 877 1350 727 c 0,5,6
 1350 575 1350 575 1292.5 443 c 128,-1,7
 1235 311 1235 311 1136.5 213 c 128,-1,8
 1038 115 1038 115 905 57.5 c 128,-1,9
 772 0 772 0 623 0 c 2,10,-1
 193 0 l 1,11,-1
 193 1456 l 1,12,-1
 623 1456 l 2,0,1
623 104 m 2,13,14
 754 104 754 104 867.5 153.5 c 128,-1,15
 981 203 981 203 1065 287 c 128,-1,16
 1149 371 1149 371 1198 484.5 c 128,-1,17
 1247 598 1247 598 1247 727 c 256,18,19
 1247 856 1247 856 1198 969.5 c 128,-1,20
 1149 1083 1149 1083 1065 1168 c 128,-1,21
 981 1253 981 1253 867.5 1302.5 c 128,-1,22
 754 1352 754 1352 623 1352 c 2,23,-1
 299 1352 l 1,24,-1
 299 104 l 1,25,-1
 623 104 l 2,13,14
EndSplineSet
Validated: 1
EndChar

StartChar: E
Encoding: 69 69 40
Width: 1280
GlyphClass: 2
Flags: W
LayerCount: 2
Fore
SplineSet
1186 1352 m 1,0,-1
 299 1352 l 1,1,-1
 299 528 l 1,2,-1
 1186 528 l 1,3,-1
 1186 426 l 1,4,-1
 299 426 l 1,5,-1
 299 104 l 1,6,-1
 1186 104 l 1,7,-1
 1186 0 l 1,8,-1
 197 0 l 1,9,-1
 197 1456 l 1,10,-1
 1186 1456 l 1,11,-1
 1186 1352 l 1,0,-1
EndSplineSet
Validated: 1
EndChar

StartChar: F
Encoding: 70 70 41
Width: 1280
GlyphClass: 2
Flags: W
LayerCount: 2
Fore
SplineSet
299 1352 m 1,0,-1
 299 528 l 1,1,-1
 1186 528 l 1,2,-1
 1186 426 l 1,3,-1
 299 426 l 1,4,-1
 299 0 l 1,5,-1
 197 0 l 1,6,-1
 197 1456 l 1,7,-1
 1186 1456 l 1,8,-1
 1186 1352 l 1,9,-1
 299 1352 l 1,0,-1
EndSplineSet
Validated: 1
EndChar

StartChar: G
Encoding: 71 71 42
Width: 1443
GlyphClass: 2
Flags: W
LayerCount: 2
Fore
SplineSet
858 0 m 0,0,1
 706 0 706 0 574 57.5 c 128,-1,2
 442 115 442 115 344 213 c 128,-1,3
 246 311 246 311 188.5 443 c 128,-1,4
 131 575 131 575 131 727 c 0,5,6
 131 877 131 877 188.5 1010 c 128,-1,7
 246 1143 246 1143 344 1242 c 128,-1,8
 442 1341 442 1341 574.5 1398.5 c 128,-1,9
 707 1456 707 1456 858 1456 c 0,10,11
 981 1456 981 1456 1096.5 1416 c 128,-1,12
 1212 1376 1212 1376 1311 1300 c 1,13,14
 1291 1277 1291 1277 1272 1261 c 128,-1,15
 1253 1245 1253 1245 1235 1225 c 1,16,17
 1153 1284 1153 1284 1057 1318 c 128,-1,18
 961 1352 961 1352 858 1352 c 0,19,20
 729 1352 729 1352 615.5 1302.5 c 128,-1,21
 502 1253 502 1253 418 1168 c 128,-1,22
 334 1083 334 1083 285 969.5 c 128,-1,23
 236 856 236 856 236 727 c 256,24,25
 236 598 236 598 285 484.5 c 128,-1,26
 334 371 334 371 418 287 c 128,-1,27
 502 203 502 203 615.5 153.5 c 128,-1,28
 729 104 729 104 858 104 c 0,29,30
 956 104 956 104 1057.5 142 c 128,-1,31
 1159 180 1159 180 1251 244 c 1,32,-1
 1251 549 l 1,33,-1
 940 549 l 1,34,-1
 940 653 l 1,35,-1
 1358 653 l 1,36,-1
 1358 197 l 1,37,38
 1254 99 1254 99 1126.5 49.5 c 128,-1,39
 999 0 999 0 858 0 c 0,0,1
EndSplineSet
Validated: 1
EndChar

StartChar: H
Encoding: 72 72 43
Width: 1382
GlyphClass: 2
Flags: W
LayerCount: 2
Fore
SplineSet
197 1456 m 1,0,-1
 301 1456 l 1,1,-1
 301 528 l 1,2,-1
 1124 528 l 1,3,-1
 1124 1456 l 1,4,-1
 1227 1456 l 1,5,-1
 1227 0 l 1,6,-1
 1124 0 l 1,7,-1
 1124 426 l 1,8,-1
 301 426 l 1,9,-1
 301 0 l 1,10,-1
 197 0 l 1,11,-1
 197 1456 l 1,0,-1
EndSplineSet
Validated: 1
EndChar

StartChar: I
Encoding: 73 73 44
Width: 507
GlyphClass: 2
Flags: W
LayerCount: 2
Fore
SplineSet
315 1456 m 1,0,-1
 315 0 l 1,1,-1
 209 0 l 1,2,-1
 209 1456 l 1,3,-1
 315 1456 l 1,0,-1
EndSplineSet
Validated: 1
EndChar

StartChar: J
Encoding: 74 74 45
Width: 1320
GlyphClass: 2
Flags: W
LayerCount: 2
Fore
SplineSet
645 0 m 0,0,1
 553 0 553 0 469 35 c 128,-1,2
 385 70 385 70 317.5 129 c 128,-1,3
 250 188 250 188 203 269 c 128,-1,4
 156 350 156 350 137 440 c 1,5,-1
 242 440 l 1,6,7
 254 366 254 366 291 305 c 128,-1,8
 328 244 328 244 381 200 c 128,-1,9
 434 156 434 156 501.5 130 c 128,-1,10
 569 104 569 104 645 104 c 0,11,12
 729 104 729 104 804 137 c 128,-1,13
 879 170 879 170 936 226.5 c 128,-1,14
 993 283 993 283 1026 357.5 c 128,-1,15
 1059 432 1059 432 1059 516 c 2,16,-1
 1059 1456 l 1,17,-1
 1165 1456 l 1,18,-1
 1165 516 l 2,19,20
 1165 410 1165 410 1124 315.5 c 128,-1,21
 1083 221 1083 221 1012.5 151.5 c 128,-1,22
 942 82 942 82 846.5 41 c 128,-1,23
 751 0 751 0 645 0 c 0,0,1
EndSplineSet
Validated: 1
EndChar

StartChar: K
Encoding: 75 75 46
Width: 1290
GlyphClass: 2
Flags: W
LayerCount: 2
Fore
SplineSet
303 0 m 1,0,-1
 197 0 l 1,1,-1
 197 1456 l 1,2,-1
 303 1456 l 1,3,-1
 303 0 l 1,0,-1
1075 1456 m 1,4,-1
 485 823 l 1,5,6
 628 647 628 647 774 467 c 128,-1,7
 920 287 920 287 1061 106 c 2,8,-1
 1145 0 l 1,9,-1
 1040 0 l 1,10,-1
 358 829 l 1,11,-1
 958 1456 l 1,12,-1
 1075 1456 l 1,4,-1
EndSplineSet
Validated: 1
EndChar

StartChar: L
Encoding: 76 76 47
Width: 1280
GlyphClass: 2
Flags: W
LayerCount: 2
Fore
SplineSet
299 104 m 1,0,-1
 1186 104 l 1,1,-1
 1186 0 l 1,2,-1
 197 0 l 1,3,-1
 197 1456 l 1,4,-1
 299 1456 l 1,5,-1
 299 104 l 1,0,-1
EndSplineSet
Validated: 1
EndChar

StartChar: M
Encoding: 77 77 48
Width: 1382
GlyphClass: 2
Flags: W
LayerCount: 2
Fore
SplineSet
713 88 m 1,0,-1
 1106 1456 l 1,1,-1
 1227 1456 l 1,2,-1
 1227 0 l 1,3,-1
 1124 0 l 1,4,-1
 1124 1157 l 1,5,-1
 780 0 l 1,6,-1
 643 0 l 1,7,-1
 301 1157 l 1,8,-1
 301 0 l 1,9,-1
 197 0 l 1,10,-1
 197 1456 l 1,11,-1
 317 1456 l 1,12,-1
 713 88 l 1,0,-1
EndSplineSet
Validated: 1
EndChar

StartChar: N
Encoding: 78 78 49
Width: 1382
GlyphClass: 2
Flags: W
LayerCount: 2
Fore
SplineSet
1227 0 m 1,0,-1
 1092 0 l 1,1,-1
 301 1325 l 1,2,-1
 301 0 l 1,3,-1
 197 0 l 1,4,-1
 197 1456 l 1,5,-1
 332 1456 l 1,6,-1
 1124 129 l 1,7,-1
 1124 1456 l 1,8,-1
 1227 1456 l 1,9,-1
 1227 0 l 1,0,-1
EndSplineSet
Validated: 1
EndChar

StartChar: O
Encoding: 79 79 50
Width: 1660
GlyphClass: 2
Flags: W
LayerCount: 2
Fore
SplineSet
1583 727 m 0,0,1
 1583 575 1583 575 1525.5 443 c 128,-1,2
 1468 311 1468 311 1369 213 c 128,-1,3
 1270 115 1270 115 1137 57.5 c 128,-1,4
 1004 0 1004 0 854 0 c 0,5,6
 702 0 702 0 570 57.5 c 128,-1,7
 438 115 438 115 340 213 c 128,-1,8
 242 311 242 311 184.5 443 c 128,-1,9
 127 575 127 575 127 727 c 0,10,11
 127 877 127 877 184.5 1010 c 128,-1,12
 242 1143 242 1143 340 1242 c 128,-1,13
 438 1341 438 1341 570 1398.5 c 128,-1,14
 702 1456 702 1456 854 1456 c 0,15,16
 1004 1456 1004 1456 1137 1398.5 c 128,-1,17
 1270 1341 1270 1341 1369 1242 c 128,-1,18
 1468 1143 1468 1143 1525.5 1010 c 128,-1,19
 1583 877 1583 877 1583 727 c 0,0,1
231 727 m 256,20,21
 231 598 231 598 280.5 484.5 c 128,-1,22
 330 371 330 371 414 287 c 128,-1,23
 498 203 498 203 611.5 153.5 c 128,-1,24
 725 104 725 104 854 104 c 256,25,26
 983 104 983 104 1096.5 153.5 c 128,-1,27
 1210 203 1210 203 1295 287 c 128,-1,28
 1380 371 1380 371 1429.5 484.5 c 128,-1,29
 1479 598 1479 598 1479 727 c 256,30,31
 1479 856 1479 856 1429.5 969.5 c 128,-1,32
 1380 1083 1380 1083 1295 1168 c 128,-1,33
 1210 1253 1210 1253 1096.5 1302.5 c 128,-1,34
 983 1352 983 1352 854 1352 c 256,35,36
 725 1352 725 1352 611.5 1302.5 c 128,-1,37
 498 1253 498 1253 414 1168 c 128,-1,38
 330 1083 330 1083 280.5 969.5 c 128,-1,39
 231 856 231 856 231 727 c 256,20,21
EndSplineSet
Validated: 1
EndChar

StartChar: P
Encoding: 80 80 51
Width: 1320
GlyphClass: 2
Flags: W
LayerCount: 2
Fore
SplineSet
1227 940 m 256,0,1
 1227 834 1227 834 1186 740.5 c 128,-1,2
 1145 647 1145 647 1075.5 577.5 c 128,-1,3
 1006 508 1006 508 912.5 467 c 128,-1,4
 819 426 819 426 713 426 c 2,5,-1
 301 426 l 1,6,-1
 301 0 l 1,7,-1
 197 0 l 1,8,-1
 197 1456 l 1,9,-1
 713 1456 l 2,10,11
 819 1456 819 1456 912.5 1415 c 128,-1,12
 1006 1374 1006 1374 1075.5 1304.5 c 128,-1,13
 1145 1235 1145 1235 1186 1140.5 c 128,-1,14
 1227 1046 1227 1046 1227 940 c 256,0,1
713 528 m 2,15,16
 797 528 797 528 871.5 561 c 128,-1,17
 946 594 946 594 1002.5 650.5 c 128,-1,18
 1059 707 1059 707 1091.5 781.5 c 128,-1,19
 1124 856 1124 856 1124 940 c 256,20,21
 1124 1024 1124 1024 1091.5 1099 c 128,-1,22
 1059 1174 1059 1174 1002.5 1230 c 128,-1,23
 946 1286 946 1286 871.5 1319 c 128,-1,24
 797 1352 797 1352 713 1352 c 2,25,-1
 301 1352 l 1,26,-1
 301 528 l 1,27,-1
 713 528 l 2,15,16
EndSplineSet
Validated: 1
EndChar

StartChar: Q
Encoding: 81 81 52
Width: 1660
GlyphClass: 2
Flags: W
LayerCount: 2
Fore
SplineSet
1583 725 m 0,0,1
 1583 612 1583 612 1546 504.5 c 128,-1,2
 1509 397 1509 397 1444 299 c 2,3,-1
 1407 250 l 1,4,-1
 1540 115 l 1,5,-1
 1466 39 l 1,6,-1
 1333 172 l 1,7,-1
 1282 137 l 2,8,9
 1188 69 1188 69 1079.5 33.5 c 128,-1,10
 971 -2 971 -2 854 -2 c 0,11,12
 702 -2 702 -2 570 55.5 c 128,-1,13
 438 113 438 113 340 211 c 128,-1,14
 242 309 242 309 184.5 441 c 128,-1,15
 127 573 127 573 127 725 c 0,16,17
 127 875 127 875 184.5 1008 c 128,-1,18
 242 1141 242 1141 340 1240 c 128,-1,19
 438 1339 438 1339 570 1396.5 c 128,-1,20
 702 1454 702 1454 854 1454 c 0,21,22
 1004 1454 1004 1454 1137 1396.5 c 128,-1,23
 1270 1339 1270 1339 1369 1240 c 128,-1,24
 1468 1141 1468 1141 1525.5 1008 c 128,-1,25
 1583 875 1583 875 1583 725 c 0,0,1
1260 246 m 1,26,-1
 369 1135 l 1,27,-1
 324 1051 l 1,28,-1
 326 1051 l 1,29,30
 232 899 232 899 231 725 c 0,31,32
 231 596 231 596 280.5 482.5 c 128,-1,33
 330 369 330 369 414 285 c 128,-1,34
 498 201 498 201 611.5 151.5 c 128,-1,35
 725 102 725 102 854 102 c 0,36,37
 1030 102 1030 102 1180 199 c 1,38,-1
 1180 197 l 1,39,-1
 1260 246 l 1,26,-1
1386 399 m 1,40,-1
 1384 399 l 1,41,42
 1431 477 1431 477 1455 557 c 128,-1,43
 1479 637 1479 637 1479 725 c 0,44,45
 1479 854 1479 854 1429.5 967.5 c 128,-1,46
 1380 1081 1380 1081 1295 1166 c 128,-1,47
 1210 1251 1210 1251 1096.5 1300.5 c 128,-1,48
 983 1350 983 1350 854 1350 c 0,49,50
 678 1350 678 1350 532 1260 c 1,51,-1
 451 1200 l 1,52,-1
 1339 315 l 1,53,-1
 1386 399 l 1,40,-1
EndSplineSet
Validated: 1
EndChar

StartChar: R
Encoding: 82 82 53
Width: 1320
GlyphClass: 2
Flags: W
LayerCount: 2
Fore
SplineSet
848 442 m 1,0,1
 905 415 905 415 961.5 361 c 128,-1,2
 1018 307 1018 307 1067 242.5 c 128,-1,3
 1116 178 1116 178 1151 112.5 c 128,-1,4
 1186 47 1186 47 1200 0 c 1,5,-1
 1094 0 l 1,6,7
 1067 86 1067 86 1014 164 c 128,-1,8
 961 242 961 242 896 300 c 128,-1,9
 831 358 831 358 762.5 391 c 128,-1,10
 694 424 694 424 637 424 c 2,11,-1
 301 426 l 1,12,-1
 301 0 l 1,13,-1
 197 0 l 1,14,-1
 197 1456 l 1,15,-1
 713 1456 l 2,16,17
 819 1456 819 1456 912.5 1415 c 128,-1,18
 1006 1374 1006 1374 1075.5 1304.5 c 128,-1,19
 1145 1235 1145 1235 1186 1141 c 128,-1,20
 1227 1047 1227 1047 1227 940 c 0,21,22
 1227 877 1227 877 1205.5 801 c 128,-1,23
 1184 725 1184 725 1138 655.5 c 128,-1,24
 1092 586 1092 586 1020 533.5 c 128,-1,25
 948 481 948 481 848 467 c 1,26,-1
 848 442 l 1,0,1
301 1352 m 1,27,-1
 301 528 l 1,28,-1
 713 528 l 2,29,30
 797 528 797 528 871.5 561 c 128,-1,31
 946 594 946 594 1002.5 650.5 c 128,-1,32
 1059 707 1059 707 1091.5 781.5 c 128,-1,33
 1124 856 1124 856 1124 940 c 256,34,35
 1124 1024 1124 1024 1091.5 1099 c 128,-1,36
 1059 1174 1059 1174 1002.5 1230 c 128,-1,37
 946 1286 946 1286 871.5 1319 c 128,-1,38
 797 1352 797 1352 713 1352 c 2,39,-1
 301 1352 l 1,27,-1
EndSplineSet
Validated: 1
EndChar

StartChar: S
Encoding: 83 83 54
Width: 1250
GlyphClass: 2
Flags: WO
LayerCount: 2
Fore
SplineSet
593 780 m 0,0,1
 673 780 673 780 744 749.5 c 128,-1,2
 815 719 815 719 867 665.5 c 128,-1,3
 919 612 919 612 949.5 540.5 c 128,-1,4
 980 469 980 469 980 389 c 0,5,6
 980 307 980 307 949.5 236.5 c 128,-1,7
 919 166 919 166 867 113.5 c 128,-1,8
 815 61 815 61 744 30.5 c 128,-1,9
 673 0 673 0 593 0 c 0,10,11
 515 0 515 0 446.5 26.5 c 128,-1,12
 378 53 378 53 327 99 c 128,-1,13
 276 145 276 145 243 209.5 c 128,-1,14
 210 274 210 274 202 348 c 1,15,-1
 309 348 l 1,16,17
 315 293 315 293 339.5 249 c 128,-1,18
 364 205 364 205 403 172 c 128,-1,19
 442 139 442 139 491 121.5 c 128,-1,20
 540 104 540 104 593 104 c 0,21,22
 650 104 650 104 701.5 128 c 128,-1,23
 753 152 753 152 792 190.5 c 128,-1,24
 831 229 831 229 853.5 280.5 c 128,-1,25
 876 332 876 332 876 389 c 256,26,27
 876 446 876 446 853.5 498.5 c 128,-1,28
 831 551 831 551 792 590 c 128,-1,29
 753 629 753 629 702 652.5 c 128,-1,30
 651 676 651 676 593 676 c 0,31,32
 513 676 513 676 441.5 706.5 c 128,-1,33
 370 737 370 737 316 790.5 c 128,-1,34
 262 844 262 844 231 915.5 c 128,-1,35
 200 987 200 987 200 1067 c 256,36,37
 200 1147 200 1147 231 1218.5 c 128,-1,38
 262 1290 262 1290 316 1342.5 c 128,-1,39
 370 1395 370 1395 442 1425.5 c 128,-1,40
 514 1456 514 1456 593 1456 c 0,41,42
 669 1456 669 1456 736.5 1429.5 c 128,-1,43
 804 1403 804 1403 856.5 1356 c 128,-1,44
 909 1309 909 1309 941.5 1245.5 c 128,-1,45
 974 1182 974 1182 980 1108 c 1,46,-1
 874 1108 l 1,47,48
 868 1163 868 1163 843.5 1207 c 128,-1,49
 819 1251 819 1251 780 1284 c 128,-1,50
 741 1317 741 1317 693 1334.5 c 128,-1,51
 645 1352 645 1352 593 1352 c 0,52,53
 536 1352 536 1352 484 1328.5 c 128,-1,54
 432 1305 432 1305 393 1266 c 128,-1,55
 354 1227 354 1227 330.5 1175.5 c 128,-1,56
 307 1124 307 1124 307 1067 c 256,57,58
 307 1010 307 1010 330.5 957.5 c 128,-1,59
 354 905 354 905 393 866 c 128,-1,60
 432 827 432 827 484 803.5 c 128,-1,61
 536 780 536 780 593 780 c 0,0,1
EndSplineSet
EndChar

StartChar: T
Encoding: 84 84 55
Width: 1259
GlyphClass: 2
Flags: W
LayerCount: 2
Fore
SplineSet
596 0 m 1,0,-1
 596 1352 l 1,1,-1
 131 1352 l 1,2,-1
 131 1456 l 1,3,-1
 1165 1456 l 1,4,-1
 1165 1352 l 1,5,-1
 698 1352 l 1,6,-1
 698 0 l 1,7,-1
 596 0 l 1,0,-1
EndSplineSet
Validated: 1
EndChar

StartChar: U
Encoding: 85 85 56
Width: 1259
GlyphClass: 2
Flags: W
LayerCount: 2
Fore
SplineSet
1061 1456 m 1,0,-1
 1165 1456 l 1,1,-1
 1165 516 l 2,2,3
 1165 410 1165 410 1124 315.5 c 128,-1,4
 1083 221 1083 221 1012.5 151.5 c 128,-1,5
 942 82 942 82 849 41 c 128,-1,6
 756 0 756 0 649 0 c 256,7,8
 543 0 543 0 448.5 41 c 128,-1,9
 354 82 354 82 283.5 151.5 c 128,-1,10
 213 221 213 221 172 315.5 c 128,-1,11
 131 410 131 410 131 516 c 2,12,-1
 131 1456 l 1,13,-1
 236 1456 l 1,14,-1
 236 516 l 2,15,16
 236 432 236 432 268.5 357.5 c 128,-1,17
 301 283 301 283 358.5 226.5 c 128,-1,18
 416 170 416 170 490.5 137 c 128,-1,19
 565 104 565 104 649 104 c 0,20,21
 731 104 731 104 806 137 c 128,-1,22
 881 170 881 170 938 226.5 c 128,-1,23
 995 283 995 283 1028 357.5 c 128,-1,24
 1061 432 1061 432 1061 516 c 2,25,-1
 1061 1456 l 1,0,-1
EndSplineSet
Validated: 1
EndChar

StartChar: V
Encoding: 86 86 57
Width: 1241
GlyphClass: 2
Flags: W
LayerCount: 2
Fore
SplineSet
244 1456 m 1,0,-1
 637 115 l 1,1,-1
 1032 1456 l 1,2,-1
 1128 1456 l 1,3,4
 1075 1270 1075 1270 1023 1089.5 c 128,-1,5
 971 909 971 909 918.5 729 c 128,-1,6
 866 549 866 549 813 367.5 c 128,-1,7
 760 186 760 186 707 0 c 1,8,-1
 567 0 l 1,9,-1
 150 1456 l 1,10,-1
 244 1456 l 1,0,-1
EndSplineSet
Validated: 1
EndChar

StartChar: W
Encoding: 87 87 58
Width: 1691
GlyphClass: 2
Flags: W
LayerCount: 2
Fore
SplineSet
1212 164 m 1,0,-1
 1505 1456 l 1,1,-1
 1602 1456 l 1,2,-1
 1286 0 l 1,3,-1
 1145 0 l 1,4,-1
 874 1292 l 1,5,-1
 596 0 l 1,6,-1
 455 0 l 1,7,-1
 137 1456 l 1,8,-1
 238 1456 l 1,9,-1
 524 143 l 1,10,-1
 805 1456 l 1,11,-1
 936 1456 l 1,12,-1
 1212 164 l 1,0,-1
EndSplineSet
Validated: 1
EndChar

StartChar: X
Encoding: 88 88 59
Width: 1218
GlyphClass: 2
Flags: W
LayerCount: 2
Fore
SplineSet
989 1456 m 1,0,-1
 1087 1456 l 1,1,-1
 674 727 l 1,2,3
 776 547 776 547 881.5 363.5 c 128,-1,4
 987 180 987 180 1092 0 c 1,5,-1
 989 0 l 1,6,-1
 625 641 l 1,7,8
 541 487 541 487 444.5 319.5 c 128,-1,9
 348 152 348 152 262 0 c 1,10,-1
 166 0 l 1,11,-1
 578 727 l 1,12,13
 478 905 478 905 411 1023 c 128,-1,14
 344 1141 344 1141 299 1222 c 128,-1,15
 254 1303 254 1303 224.5 1356 c 128,-1,16
 195 1409 195 1409 168 1456 c 1,17,-1
 264 1456 l 1,18,-1
 625 815 l 1,19,-1
 989 1456 l 1,0,-1
EndSplineSet
Validated: 1
EndChar

StartChar: Y
Encoding: 89 89 60
Width: 1218
GlyphClass: 2
Flags: W
LayerCount: 2
Fore
SplineSet
575 0 m 1,0,-1
 575 729 l 1,1,-1
 166 1456 l 1,2,-1
 264 1456 l 1,3,-1
 625 815 l 1,4,5
 711 967 711 967 807 1135 c 128,-1,6
 903 1303 903 1303 989 1456 c 1,7,-1
 1090 1456 l 1,8,-1
 678 729 l 1,9,-1
 678 0 l 1,10,-1
 575 0 l 1,0,-1
EndSplineSet
Validated: 1
EndChar

StartChar: Z
Encoding: 90 90 61
Width: 1259
GlyphClass: 2
Flags: W
LayerCount: 2
Fore
SplineSet
131 1352 m 1,0,-1
 131 1456 l 1,1,-1
 1165 1456 l 1,2,-1
 1165 1303 l 1,3,-1
 741 780 l 1,4,-1
 1165 780 l 1,5,-1
 1165 676 l 1,6,-1
 657 676 l 1,7,-1
 195 104 l 1,8,-1
 1165 104 l 1,9,-1
 1165 0 l 1,10,-1
 131 0 l 1,11,-1
 131 152 l 1,12,-1
 557 676 l 1,13,-1
 131 676 l 1,14,-1
 131 780 l 1,15,-1
 641 780 l 1,16,-1
 1102 1352 l 1,17,-1
 131 1352 l 1,0,-1
EndSplineSet
Validated: 1
EndChar

StartChar: bracketleft
Encoding: 91 91 62
Width: 548
GlyphClass: 2
Flags: W
LayerCount: 2
Fore
SplineSet
422 -190 m 1,0,-1
 422 -285 l 1,1,-1
 143 -285 l 1,2,-1
 143 1737 l 1,3,-1
 422 1737 l 1,4,-1
 422 1642 l 1,5,-1
 240 1642 l 1,6,-1
 240 -190 l 1,7,-1
 422 -190 l 1,0,-1
EndSplineSet
Validated: 1
EndChar

StartChar: backslash
Encoding: 92 92 63
Width: 897
GlyphClass: 2
Flags: W
LayerCount: 2
Fore
SplineSet
252 1616 m 1,0,1
 383 1172 383 1172 512 740.5 c 128,-1,2
 641 309 641 309 772 -135 c 1,3,4
 745 -143 745 -143 720.5 -148.5 c 128,-1,5
 696 -154 696 -154 672 -160 c 1,6,7
 541 286 541 286 412 715.5 c 128,-1,8
 283 1145 283 1145 152 1591 c 1,9,-1
 252 1616 l 1,0,1
EndSplineSet
Validated: 1
EndChar

StartChar: bracketright
Encoding: 93 93 64
Width: 548
GlyphClass: 2
Flags: W
LayerCount: 2
Fore
SplineSet
143 -190 m 1,0,-1
 326 -190 l 1,1,-1
 326 1642 l 1,2,-1
 143 1642 l 1,3,-1
 143 1737 l 1,4,-1
 422 1737 l 1,5,-1
 422 -285 l 1,6,-1
 143 -285 l 1,7,-1
 143 -190 l 1,0,-1
EndSplineSet
Validated: 1
EndChar

StartChar: asciicircum
Encoding: 94 94 65
Width: 731
GlyphClass: 2
Flags: W
LayerCount: 2
Fore
SplineSet
424 1456 m 1,0,1
 455 1417 455 1417 479.5 1384.5 c 128,-1,2
 504 1352 504 1352 532 1315 c 2,3,-1
 569 1266 l 1,4,-1
 496 1266 l 1,5,-1
 377 1427 l 1,6,-1
 256 1266 l 1,7,-1
 184 1266 l 1,8,-1
 252 1358 l 1,9,-1
 328 1456 l 1,10,-1
 424 1456 l 1,0,1
EndSplineSet
Validated: 1
EndChar

StartChar: underscore
Encoding: 95 95 66
Width: 878
GlyphClass: 2
Flags: W
LayerCount: 2
Fore
SplineSet
766 0 m 1,0,-1
 139 0 l 1,1,-1
 139 102 l 1,2,-1
 766 102 l 1,3,-1
 766 0 l 1,0,-1
EndSplineSet
Validated: 1
EndChar

StartChar: grave
Encoding: 96 96 67
Width: 518
GlyphClass: 2
Flags: W
LayerCount: 2
Fore
SplineSet
63 1395 m 1,0,1
 79 1364 79 1364 91.5 1341.5 c 128,-1,2
 104 1319 104 1319 121 1290 c 2,3,-1
 170 1206 l 1,4,-1
 123 1206 l 1,5,6
 103 1233 103 1233 87.5 1254.5 c 128,-1,7
 72 1276 72 1276 53 1305 c 2,8,-1
 -6 1395 l 1,9,-1
 63 1395 l 1,0,1
EndSplineSet
Validated: 1
EndChar

StartChar: a
Encoding: 97 97 68
Width: 997
GlyphClass: 2
Flags: W
LayerCount: 2
Fore
SplineSet
537 958 m 0,0,1
 715 958 715 958 813 851.5 c 128,-1,2
 911 745 911 745 911 569 c 2,3,-1
 911 -2 l 1,4,-1
 821 -2 l 1,5,-1
 803 135 l 1,6,7
 715 69 715 69 630 33.5 c 128,-1,8
 545 -2 545 -2 473 -2 c 0,9,10
 410 -2 410 -2 348.5 15.5 c 128,-1,11
 287 33 287 33 238.5 68.5 c 128,-1,12
 190 104 190 104 160.5 155.5 c 128,-1,13
 131 207 131 207 131 274 c 0,14,15
 131 360 131 360 170 407.5 c 128,-1,16
 209 455 209 455 269.5 479.5 c 128,-1,17
 330 504 330 504 406.5 513 c 128,-1,18
 483 522 483 522 558 533.5 c 128,-1,19
 633 545 633 545 700.5 563.5 c 128,-1,20
 768 582 768 582 811 627 c 1,21,22
 811 729 811 729 743.5 798.5 c 128,-1,23
 676 868 676 868 537 868 c 0,24,25
 504 868 504 868 466 859 c 128,-1,26
 428 850 428 850 393 832.5 c 128,-1,27
 358 815 358 815 330.5 788.5 c 128,-1,28
 303 762 303 762 293 727 c 1,29,-1
 188 727 l 1,30,31
 196 782 196 782 229 826 c 128,-1,32
 262 870 262 870 311 899 c 128,-1,33
 360 928 360 928 419 943 c 128,-1,34
 478 958 478 958 537 958 c 0,0,1
473 76 m 0,35,36
 530 76 530 76 586.5 91 c 128,-1,37
 643 106 643 106 689 137 c 128,-1,38
 735 168 735 168 767 213 c 128,-1,39
 799 258 799 258 811 317 c 1,40,-1
 811 537 l 1,41,42
 774 502 774 502 716.5 485.5 c 128,-1,43
 659 469 659 469 595.5 460 c 128,-1,44
 532 451 532 451 467.5 441.5 c 128,-1,45
 403 432 403 432 352 414.5 c 128,-1,46
 301 397 301 397 268.5 365.5 c 128,-1,47
 236 334 236 334 236 279 c 0,48,49
 236 228 236 228 256 190 c 128,-1,50
 276 152 276 152 309 126 c 128,-1,51
 342 100 342 100 385 88 c 128,-1,52
 428 76 428 76 473 76 c 0,35,36
EndSplineSet
Validated: 1
EndChar

StartChar: b
Encoding: 98 98 69
Width: 1161
GlyphClass: 2
Flags: W
LayerCount: 2
Fore
SplineSet
299 1501 m 1,0,-1
 299 791 l 1,1,2
 332 834 332 834 374 865.5 c 128,-1,3
 416 897 416 897 462 916.5 c 128,-1,4
 508 936 508 936 554 945 c 128,-1,5
 600 954 600 954 641 954 c 0,6,7
 735 954 735 954 816 918.5 c 128,-1,8
 897 883 897 883 956.5 818.5 c 128,-1,9
 1016 754 1016 754 1049.5 667 c 128,-1,10
 1083 580 1083 580 1083 477 c 256,11,12
 1083 375 1083 375 1049.5 288 c 128,-1,13
 1016 201 1016 201 956.5 136.5 c 128,-1,14
 897 72 897 72 816 36 c 128,-1,15
 735 0 735 0 641 0 c 0,16,17
 600 0 600 0 552 10 c 128,-1,18
 504 20 504 20 458 41.5 c 128,-1,19
 412 63 412 63 370 96 c 128,-1,20
 328 129 328 129 297 174 c 1,21,-1
 281 0 l 1,22,-1
 195 0 l 1,23,-1
 195 1501 l 1,24,-1
 299 1501 l 1,0,-1
641 866 m 0,25,26
 565 866 565 866 502.5 837.5 c 128,-1,27
 440 809 440 809 395 757 c 128,-1,28
 350 705 350 705 324.5 633 c 128,-1,29
 299 561 299 561 299 477 c 256,30,31
 299 393 299 393 324.5 321.5 c 128,-1,32
 350 250 350 250 395 197.5 c 128,-1,33
 440 145 440 145 502.5 116.5 c 128,-1,34
 565 88 565 88 641 88 c 0,35,36
 715 88 715 88 776.5 116.5 c 128,-1,37
 838 145 838 145 883 197.5 c 128,-1,38
 928 250 928 250 953.5 321.5 c 128,-1,39
 979 393 979 393 979 477 c 256,40,41
 979 561 979 561 953.5 633 c 128,-1,42
 928 705 928 705 883 757 c 128,-1,43
 838 809 838 809 776.5 837.5 c 128,-1,44
 715 866 715 866 641 866 c 0,25,26
EndSplineSet
Validated: 1
EndChar

StartChar: c
Encoding: 99 99 70
Width: 1081
GlyphClass: 2
Flags: W
LayerCount: 2
Fore
SplineSet
578 -2 m 0,0,1
 482 -2 482 -2 399.5 35 c 128,-1,2
 317 72 317 72 258 136.5 c 128,-1,3
 199 201 199 201 165 288 c 128,-1,4
 131 375 131 375 131 477 c 256,5,6
 131 579 131 579 165 667.5 c 128,-1,7
 199 756 199 756 258 820.5 c 128,-1,8
 317 885 317 885 399 921.5 c 128,-1,9
 481 958 481 958 578 958 c 0,10,11
 711 958 711 958 815.5 882.5 c 128,-1,12
 920 807 920 807 979 696 c 1,13,-1
 866 696 l 1,14,15
 821 774 821 774 748.5 821 c 128,-1,16
 676 868 676 868 578 868 c 0,17,18
 504 868 504 868 441.5 838.5 c 128,-1,19
 379 809 379 809 334 757 c 128,-1,20
 289 705 289 705 263.5 633 c 128,-1,21
 238 561 238 561 238 477 c 256,22,23
 238 393 238 393 263.5 321.5 c 128,-1,24
 289 250 289 250 334 197.5 c 128,-1,25
 379 145 379 145 441.5 116.5 c 128,-1,26
 504 88 504 88 578 88 c 0,27,28
 674 88 674 88 746.5 132 c 128,-1,29
 819 176 819 176 864 256 c 1,30,-1
 979 256 l 1,31,32
 922 139 922 139 817.5 68.5 c 128,-1,33
 713 -2 713 -2 578 -2 c 0,0,1
EndSplineSet
Validated: 1
EndChar

StartChar: d
Encoding: 100 100 71
Width: 1161
GlyphClass: 2
Flags: W
LayerCount: 2
Fore
SplineSet
1018 1501 m 1,0,-1
 1018 0 l 1,1,-1
 932 0 l 1,2,-1
 915 174 l 1,3,4
 884 129 884 129 842.5 96 c 128,-1,5
 801 63 801 63 755 41.5 c 128,-1,6
 709 20 709 20 660.5 10 c 128,-1,7
 612 0 612 0 571 0 c 0,8,9
 477 0 477 0 396 36 c 128,-1,10
 315 72 315 72 256 136.5 c 128,-1,11
 197 201 197 201 163 288 c 128,-1,12
 129 375 129 375 129 477 c 256,13,14
 129 579 129 579 163 666.5 c 128,-1,15
 197 754 197 754 256 818.5 c 128,-1,16
 315 883 315 883 396 918.5 c 128,-1,17
 477 954 477 954 571 954 c 0,18,19
 612 954 612 954 658.5 945 c 128,-1,20
 705 936 705 936 751 916.5 c 128,-1,21
 797 897 797 897 839 865.5 c 128,-1,22
 881 834 881 834 913 791 c 1,23,-1
 913 1501 l 1,24,-1
 1018 1501 l 1,0,-1
571 866 m 0,25,26
 497 866 497 866 436 837.5 c 128,-1,27
 375 809 375 809 330 757 c 128,-1,28
 285 705 285 705 259 633 c 128,-1,29
 233 561 233 561 233 477 c 256,30,31
 233 393 233 393 259 321.5 c 128,-1,32
 285 250 285 250 330 197.5 c 128,-1,33
 375 145 375 145 436.5 116.5 c 128,-1,34
 498 88 498 88 571 88 c 0,35,36
 647 88 647 88 709.5 116.5 c 128,-1,37
 772 145 772 145 817 197.5 c 128,-1,38
 862 250 862 250 887.5 321.5 c 128,-1,39
 913 393 913 393 913 477 c 256,40,41
 913 561 913 561 887.5 633 c 128,-1,42
 862 705 862 705 817 757 c 128,-1,43
 772 809 772 809 709.5 837.5 c 128,-1,44
 647 866 647 866 571 866 c 0,25,26
EndSplineSet
Validated: 1
EndChar

StartChar: e
Encoding: 101 101 72
Width: 1105
GlyphClass: 2
Flags: W
LayerCount: 2
Fore
SplineSet
578 -2 m 0,0,1
 482 -2 482 -2 399.5 35 c 128,-1,2
 317 72 317 72 258 136.5 c 128,-1,3
 199 201 199 201 165 288 c 128,-1,4
 131 375 131 375 131 477 c 0,5,6
 131 583 131 583 165 671.5 c 128,-1,7
 199 760 199 760 258 823.5 c 128,-1,8
 317 887 317 887 399 922.5 c 128,-1,9
 481 958 481 958 578 958 c 0,10,11
 680 958 680 958 761 917.5 c 128,-1,12
 842 877 842 877 898 809 c 128,-1,13
 954 741 954 741 985 652 c 128,-1,14
 1016 563 1016 563 1022 467 c 1,15,-1
 231 467 l 1,16,17
 231 375 231 375 259 305.5 c 128,-1,18
 287 236 287 236 335 188.5 c 128,-1,19
 383 141 383 141 445.5 117.5 c 128,-1,20
 508 94 508 94 578 94 c 0,21,22
 773 94 773 94 862 256 c 1,23,-1
 979 256 l 1,24,25
 922 139 922 139 817.5 68.5 c 128,-1,26
 713 -2 713 -2 578 -2 c 0,0,1
578 870 m 0,27,28
 517 870 517 870 455 845.5 c 128,-1,29
 393 821 393 821 343 779 c 128,-1,30
 293 737 293 737 262 680 c 128,-1,31
 231 623 231 623 231 555 c 1,32,-1
 913 555 l 1,33,34
 913 600 913 600 890.5 655.5 c 128,-1,35
 868 711 868 711 825 758 c 128,-1,36
 782 805 782 805 720 837.5 c 128,-1,37
 658 870 658 870 578 870 c 0,27,28
EndSplineSet
Validated: 1
EndChar

StartChar: f
Encoding: 102 102 73
Width: 866
GlyphClass: 2
Flags: W
LayerCount: 2
Fore
SplineSet
748 1368 m 1,0,1
 725 1384 725 1384 698.5 1390.5 c 128,-1,2
 672 1397 672 1397 643 1397 c 0,3,4
 600 1397 600 1397 566 1379.5 c 128,-1,5
 532 1362 532 1362 509.5 1333.5 c 128,-1,6
 487 1305 487 1305 475 1268 c 128,-1,7
 463 1231 463 1231 463 1194 c 2,8,-1
 463 958 l 1,9,-1
 768 958 l 1,10,-1
 768 870 l 1,11,-1
 463 870 l 1,12,-1
 463 0 l 1,13,-1
 358 0 l 1,14,-1
 358 870 l 1,15,-1
 135 870 l 1,16,-1
 135 958 l 1,17,-1
 358 958 l 1,18,-1
 358 1229 l 2,19,20
 358 1284 358 1284 382 1334 c 128,-1,21
 406 1384 406 1384 444.5 1421 c 128,-1,22
 483 1458 483 1458 535.5 1479.5 c 128,-1,23
 588 1501 588 1501 643 1501 c 0,24,25
 690 1501 690 1501 736 1485.5 c 128,-1,26
 782 1470 782 1470 817 1442 c 1,27,-1
 748 1368 l 1,0,1
EndSplineSet
Validated: 1
EndChar

StartChar: g
Encoding: 103 103 74
Width: 1165
GlyphClass: 2
Flags: W
LayerCount: 2
Fore
SplineSet
575 0 m 0,0,1
 475 0 475 0 393 38 c 128,-1,2
 311 76 311 76 253 141.5 c 128,-1,3
 195 207 195 207 163 294 c 128,-1,4
 131 381 131 381 131 479 c 256,5,6
 131 577 131 577 163 664.5 c 128,-1,7
 195 752 195 752 253 817.5 c 128,-1,8
 311 883 311 883 393 920.5 c 128,-1,9
 475 958 475 958 575 958 c 0,10,11
 735 958 735 958 911 813 c 1,12,13
 921 848 921 848 923.5 872.5 c 128,-1,14
 926 897 926 897 930 915 c 2,15,-1
 934 958 l 1,16,-1
 1022 958 l 1,17,-1
 1022 -43 l 2,18,19
 1022 -141 1022 -141 990 -228 c 128,-1,20
 958 -315 958 -315 900 -379.5 c 128,-1,21
 842 -444 842 -444 759 -482 c 128,-1,22
 676 -520 676 -520 575 -520 c 0,23,24
 430 -520 430 -520 323.5 -449.5 c 128,-1,25
 217 -379 217 -379 166 -246 c 1,26,-1
 281 -246 l 1,27,28
 322 -326 322 -326 397.5 -380 c 128,-1,29
 473 -434 473 -434 575 -434 c 0,30,31
 655 -434 655 -434 718.5 -400.5 c 128,-1,32
 782 -367 782 -367 826 -312.5 c 128,-1,33
 870 -258 870 -258 892.5 -187.5 c 128,-1,34
 915 -117 915 -117 915 -43 c 2,35,-1
 915 145 l 1,36,37
 727 0 727 0 575 0 c 0,0,1
575 868 m 256,38,39
 495 868 495 868 432 834.5 c 128,-1,40
 369 801 369 801 326 745.5 c 128,-1,41
 283 690 283 690 259.5 620.5 c 128,-1,42
 236 551 236 551 236 479 c 0,43,44
 236 405 236 405 259.5 334.5 c 128,-1,45
 283 264 283 264 326 210 c 128,-1,46
 369 156 369 156 432.5 123 c 128,-1,47
 496 90 496 90 575 90 c 256,48,49
 655 90 655 90 718.5 123 c 128,-1,50
 782 156 782 156 826 210 c 128,-1,51
 870 264 870 264 892.5 335 c 128,-1,52
 915 406 915 406 915 479 c 0,53,54
 915 551 915 551 892.5 620.5 c 128,-1,55
 870 690 870 690 826 745.5 c 128,-1,56
 782 801 782 801 718.5 834.5 c 128,-1,57
 655 868 655 868 575 868 c 256,38,39
EndSplineSet
Validated: 1
EndChar

StartChar: h
Encoding: 104 104 75
Width: 1126
GlyphClass: 2
Flags: W
LayerCount: 2
Fore
SplineSet
666 958 m 0,0,1
 764 958 764 958 835.5 920.5 c 128,-1,2
 907 883 907 883 953 816.5 c 128,-1,3
 999 750 999 750 1021.5 662.5 c 128,-1,4
 1044 575 1044 575 1044 477 c 2,5,-1
 1044 0 l 1,6,-1
 938 0 l 1,7,-1
 938 477 l 2,8,9
 938 549 938 549 928 619.5 c 128,-1,10
 918 690 918 690 888 745.5 c 128,-1,11
 858 801 858 801 805 834.5 c 128,-1,12
 752 868 752 868 666 868 c 0,13,14
 584 868 584 868 517.5 834.5 c 128,-1,15
 451 801 451 801 402.5 745.5 c 128,-1,16
 354 690 354 690 328.5 619.5 c 128,-1,17
 303 549 303 549 303 477 c 2,18,-1
 303 0 l 1,19,-1
 197 0 l 1,20,-1
 197 1501 l 1,21,-1
 299 1501 l 1,22,-1
 299 731 l 1,23,24
 336 803 336 803 383 848 c 128,-1,25
 430 893 430 893 479 917.5 c 128,-1,26
 528 942 528 942 576.5 950 c 128,-1,27
 625 958 625 958 666 958 c 0,0,1
EndSplineSet
Validated: 1
EndChar

StartChar: i
Encoding: 105 105 76
Width: 501
GlyphClass: 2
Flags: W
LayerCount: 2
Fore
SplineSet
211 958 m 1,0,-1
 313 958 l 1,1,-1
 313 0 l 1,2,-1
 211 0 l 1,3,-1
 211 958 l 1,0,-1
264 1317 m 0,4,5
 223 1317 223 1317 196.5 1342.5 c 128,-1,6
 170 1368 170 1368 170 1409 c 256,7,8
 170 1450 170 1450 196.5 1475.5 c 128,-1,9
 223 1501 223 1501 264 1501 c 0,10,11
 301 1501 301 1501 327.5 1475.5 c 128,-1,12
 354 1450 354 1450 354 1409 c 256,13,14
 354 1368 354 1368 327.5 1342.5 c 128,-1,15
 301 1317 301 1317 264 1317 c 0,4,5
EndSplineSet
Validated: 1
EndChar

StartChar: j
Encoding: 106 106 77
Width: 505
GlyphClass: 2
Flags: W
LayerCount: 2
Fore
SplineSet
109 -406 m 1,0,1
 158 -394 158 -394 185.5 -351.5 c 128,-1,2
 213 -309 213 -309 213 -248 c 2,3,-1
 213 958 l 1,4,-1
 319 958 l 1,5,-1
 319 -248 l 2,6,7
 319 -354 319 -354 263 -429 c 128,-1,8
 207 -504 207 -504 109 -518 c 1,9,-1
 109 -406 l 1,0,1
264 1317 m 0,10,11
 223 1317 223 1317 197.5 1342.5 c 128,-1,12
 172 1368 172 1368 172 1409 c 256,13,14
 172 1450 172 1450 197.5 1475.5 c 128,-1,15
 223 1501 223 1501 264 1501 c 0,16,17
 301 1501 301 1501 327.5 1475.5 c 128,-1,18
 354 1450 354 1450 354 1409 c 256,19,20
 354 1368 354 1368 327.5 1342.5 c 128,-1,21
 301 1317 301 1317 264 1317 c 0,10,11
EndSplineSet
Validated: 1
EndChar

StartChar: k
Encoding: 107 107 78
Width: 1112
GlyphClass: 2
Flags: W
LayerCount: 2
Fore
SplineSet
301 0 m 1,0,-1
 197 0 l 1,1,-1
 197 1501 l 1,2,-1
 301 1501 l 1,3,-1
 301 545 l 1,4,-1
 506 545 l 1,5,-1
 827 958 l 1,6,-1
 944 958 l 1,7,-1
 580 487 l 1,8,-1
 985 0 l 1,9,-1
 868 0 l 1,10,-1
 494 438 l 1,11,-1
 301 438 l 1,12,-1
 301 0 l 1,0,-1
EndSplineSet
Validated: 1
EndChar

StartChar: l
Encoding: 108 108 79
Width: 503
GlyphClass: 2
Flags: W
LayerCount: 2
Fore
SplineSet
315 0 m 1,0,-1
 211 0 l 1,1,-1
 211 1659 l 1,2,-1
 315 1659 l 1,3,-1
 315 0 l 1,0,-1
EndSplineSet
Validated: 1
EndChar

StartChar: m
Encoding: 109 109 80
Width: 1523
GlyphClass: 2
Flags: W
LayerCount: 2
Fore
SplineSet
1145 958 m 0,0,1
 1217 958 1217 958 1277 930.5 c 128,-1,2
 1337 903 1337 903 1380 856 c 128,-1,3
 1423 809 1423 809 1446.5 746.5 c 128,-1,4
 1470 684 1470 684 1470 612 c 2,5,-1
 1470 0 l 1,6,-1
 1364 0 l 1,7,-1
 1364 567 l 2,8,9
 1364 616 1364 616 1355 669.5 c 128,-1,10
 1346 723 1346 723 1322 767 c 128,-1,11
 1298 811 1298 811 1255 839.5 c 128,-1,12
 1212 868 1212 868 1145 868 c 0,13,14
 1084 868 1084 868 1034.5 842.5 c 128,-1,15
 985 817 985 817 951.5 775 c 128,-1,16
 918 733 918 733 899.5 679 c 128,-1,17
 881 625 881 625 881 567 c 2,18,-1
 881 0 l 1,19,-1
 776 0 l 1,20,-1
 776 567 l 2,21,22
 776 616 776 616 767 669.5 c 128,-1,23
 758 723 758 723 734.5 767 c 128,-1,24
 711 811 711 811 668 839.5 c 128,-1,25
 625 868 625 868 557 868 c 0,26,27
 494 868 494 868 444.5 842.5 c 128,-1,28
 395 817 395 817 361.5 775 c 128,-1,29
 328 733 328 733 310.5 679 c 128,-1,30
 293 625 293 625 293 567 c 2,31,-1
 293 0 l 1,32,-1
 184 0 l 1,33,-1
 184 958 l 1,34,-1
 256 958 l 1,35,-1
 279 788 l 1,36,37
 336 884 336 884 414 921 c 128,-1,38
 492 958 492 958 557 958 c 0,39,40
 668 958 668 958 738.5 905 c 128,-1,41
 809 852 809 852 850 768 c 1,42,43
 866 819 866 819 900 856 c 128,-1,44
 934 893 934 893 975 915.5 c 128,-1,45
 1016 938 1016 938 1061 948 c 128,-1,46
 1106 958 1106 958 1145 958 c 0,0,1
EndSplineSet
Validated: 1
EndChar

StartChar: n
Encoding: 110 110 81
Width: 1126
GlyphClass: 2
Flags: W
LayerCount: 2
Fore
SplineSet
666 958 m 0,0,1
 764 958 764 958 835.5 920.5 c 128,-1,2
 907 883 907 883 953 816.5 c 128,-1,3
 999 750 999 750 1021.5 662.5 c 128,-1,4
 1044 575 1044 575 1044 477 c 2,5,-1
 1044 0 l 1,6,-1
 938 0 l 1,7,-1
 938 477 l 2,8,9
 938 549 938 549 928 619.5 c 128,-1,10
 918 690 918 690 888 745.5 c 128,-1,11
 858 801 858 801 805 834.5 c 128,-1,12
 752 868 752 868 666 868 c 0,13,14
 584 868 584 868 517.5 834.5 c 128,-1,15
 451 801 451 801 402.5 745.5 c 128,-1,16
 354 690 354 690 328.5 619.5 c 128,-1,17
 303 549 303 549 303 477 c 2,18,-1
 303 0 l 1,19,-1
 197 0 l 1,20,-1
 197 958 l 1,21,-1
 283 958 l 1,22,-1
 303 735 l 1,23,24
 342 807 342 807 388 851 c 128,-1,25
 434 895 434 895 481 918.5 c 128,-1,26
 528 942 528 942 575.5 950 c 128,-1,27
 623 958 623 958 666 958 c 0,0,1
EndSplineSet
Validated: 1
EndChar

StartChar: o
Encoding: 111 111 82
Width: 1105
GlyphClass: 2
Flags: W
LayerCount: 2
Fore
SplineSet
578 0 m 256,0,1
 478 0 478 0 394.5 38 c 128,-1,2
 311 76 311 76 253 141.5 c 128,-1,3
 195 207 195 207 163 294 c 128,-1,4
 131 381 131 381 131 479 c 256,5,6
 131 577 131 577 163 664.5 c 128,-1,7
 195 752 195 752 253 818.5 c 128,-1,8
 311 885 311 885 394 923 c 128,-1,9
 477 961 477 961 578 961 c 256,10,11
 678 961 678 961 761 923 c 128,-1,12
 844 885 844 885 902.5 818.5 c 128,-1,13
 961 752 961 752 992.5 665 c 128,-1,14
 1024 578 1024 578 1024 479 c 256,15,16
 1024 381 1024 381 992.5 294 c 128,-1,17
 961 207 961 207 902.5 141.5 c 128,-1,18
 844 76 844 76 761 38 c 128,-1,19
 678 0 678 0 578 0 c 256,0,1
578 870 m 256,20,21
 498 870 498 870 434.5 836.5 c 128,-1,22
 371 803 371 803 328 747.5 c 128,-1,23
 285 692 285 692 261.5 621.5 c 128,-1,24
 238 551 238 551 238 479 c 0,25,26
 238 405 238 405 261.5 334.5 c 128,-1,27
 285 264 285 264 328 210 c 128,-1,28
 371 156 371 156 434.5 123 c 128,-1,29
 498 90 498 90 578 90 c 256,30,31
 658 90 658 90 721 123 c 128,-1,32
 784 156 784 156 828 210 c 128,-1,33
 872 264 872 264 895 335 c 128,-1,34
 918 406 918 406 918 479 c 0,35,36
 918 551 918 551 895 621.5 c 128,-1,37
 872 692 872 692 828 747.5 c 128,-1,38
 784 803 784 803 721 836.5 c 128,-1,39
 658 870 658 870 578 870 c 256,20,21
EndSplineSet
Validated: 1
EndChar

StartChar: p
Encoding: 112 112 83
Width: 1161
GlyphClass: 2
Flags: W
LayerCount: 2
Fore
SplineSet
195 -520 m 1,0,-1
 195 958 l 1,1,-1
 281 958 l 1,2,-1
 297 784 l 1,3,4
 328 833 328 833 370 866 c 128,-1,5
 412 899 412 899 458 919.5 c 128,-1,6
 504 940 504 940 552 949 c 128,-1,7
 600 958 600 958 641 958 c 0,8,9
 735 958 735 958 816 922.5 c 128,-1,10
 897 887 897 887 956.5 822.5 c 128,-1,11
 1016 758 1016 758 1049.5 671 c 128,-1,12
 1083 584 1083 584 1083 481 c 256,13,14
 1083 379 1083 379 1049.5 292 c 128,-1,15
 1016 205 1016 205 956.5 140.5 c 128,-1,16
 897 76 897 76 816 40 c 128,-1,17
 735 4 735 4 641 4 c 0,18,19
 600 4 600 4 557 10 c 128,-1,20
 514 16 514 16 470 33.5 c 128,-1,21
 426 51 426 51 383 83 c 128,-1,22
 340 115 340 115 299 166 c 1,23,-1
 299 -520 l 1,24,-1
 195 -520 l 1,0,-1
641 92 m 0,25,26
 715 92 715 92 776.5 121 c 128,-1,27
 838 150 838 150 883 202 c 128,-1,28
 928 254 928 254 953.5 325.5 c 128,-1,29
 979 397 979 397 979 481 c 256,30,31
 979 565 979 565 953.5 637 c 128,-1,32
 928 709 928 709 883 761 c 128,-1,33
 838 813 838 813 776.5 841.5 c 128,-1,34
 715 870 715 870 641 870 c 0,35,36
 565 870 565 870 502.5 841.5 c 128,-1,37
 440 813 440 813 395 761 c 128,-1,38
 350 709 350 709 324.5 637 c 128,-1,39
 299 565 299 565 299 481 c 256,40,41
 299 397 299 397 324.5 325.5 c 128,-1,42
 350 254 350 254 395 202 c 128,-1,43
 440 150 440 150 502.5 121 c 128,-1,44
 565 92 565 92 641 92 c 0,25,26
EndSplineSet
Validated: 1
EndChar

StartChar: q
Encoding: 113 113 84
Width: 1099
GlyphClass: 2
Flags: W
LayerCount: 2
Fore
SplineSet
913 -520 m 1,0,-1
 913 166 l 1,1,2
 872 115 872 115 829 83 c 128,-1,3
 786 51 786 51 742 33.5 c 128,-1,4
 698 16 698 16 654 10 c 128,-1,5
 610 4 610 4 571 4 c 0,6,7
 477 4 477 4 396 40 c 128,-1,8
 315 76 315 76 256 140.5 c 128,-1,9
 197 205 197 205 163 292 c 128,-1,10
 129 379 129 379 129 481 c 256,11,12
 129 583 129 583 163 670.5 c 128,-1,13
 197 758 197 758 256 822.5 c 128,-1,14
 315 887 315 887 396 922.5 c 128,-1,15
 477 958 477 958 571 958 c 0,16,17
 612 958 612 958 660.5 949 c 128,-1,18
 709 940 709 940 755 919.5 c 128,-1,19
 801 899 801 899 843 866.5 c 128,-1,20
 885 834 885 834 915 784 c 1,21,-1
 932 958 l 1,22,-1
 1018 958 l 1,23,-1
 1018 -520 l 1,24,-1
 913 -520 l 1,0,-1
571 92 m 0,25,26
 647 92 647 92 709.5 121 c 128,-1,27
 772 150 772 150 817 202 c 128,-1,28
 862 254 862 254 887.5 325.5 c 128,-1,29
 913 397 913 397 913 481 c 256,30,31
 913 565 913 565 887.5 637 c 128,-1,32
 862 709 862 709 817 761 c 128,-1,33
 772 813 772 813 709.5 841.5 c 128,-1,34
 647 870 647 870 571 870 c 0,35,36
 497 870 497 870 436 841.5 c 128,-1,37
 375 813 375 813 330 761 c 128,-1,38
 285 709 285 709 259 637 c 128,-1,39
 233 565 233 565 233 481 c 256,40,41
 233 397 233 397 259 325.5 c 128,-1,42
 285 254 285 254 330 202 c 128,-1,43
 375 150 375 150 436 121 c 128,-1,44
 497 92 497 92 571 92 c 0,25,26
EndSplineSet
Validated: 1
EndChar

StartChar: r
Encoding: 114 114 85
Width: 755
GlyphClass: 2
Flags: W
LayerCount: 2
Fore
SplineSet
672 958 m 0,0,1
 682 958 682 958 691 958 c 128,-1,2
 700 958 700 958 711 956 c 1,3,4
 711 927 711 927 713 910 c 128,-1,5
 715 893 715 893 715 868 c 1,6,-1
 672 868 l 2,7,8
 594 868 594 868 527.5 835.5 c 128,-1,9
 461 803 461 803 413 746.5 c 128,-1,10
 365 690 365 690 337 612.5 c 128,-1,11
 309 535 309 535 309 446 c 2,12,-1
 309 -2 l 1,13,-1
 203 -2 l 1,14,-1
 203 958 l 1,15,-1
 289 958 l 1,16,-1
 311 719 l 1,17,18
 338 782 338 782 379 827 c 128,-1,19
 420 872 420 872 467 901 c 128,-1,20
 514 930 514 930 567.5 944 c 128,-1,21
 621 958 621 958 672 958 c 0,0,1
EndSplineSet
Validated: 1
EndChar

StartChar: s
Encoding: 115 115 86
Width: 991
GlyphClass: 2
Flags: W
LayerCount: 2
Fore
SplineSet
266 723 m 0,0,1
 266 680 266 680 289.5 651.5 c 128,-1,2
 313 623 313 623 352 601.5 c 128,-1,3
 391 580 391 580 441.5 566.5 c 128,-1,4
 492 553 492 553 545 541 c 0,5,6
 602 529 602 529 665.5 509 c 128,-1,7
 729 489 729 489 782.5 459.5 c 128,-1,8
 836 430 836 430 870.5 386 c 128,-1,9
 905 342 905 342 905 279 c 0,10,11
 905 199 905 199 871.5 145.5 c 128,-1,12
 838 92 838 92 782.5 59.5 c 128,-1,13
 727 27 727 27 657.5 13.5 c 128,-1,14
 588 0 588 0 516 0 c 0,15,16
 366 0 366 0 265 64.5 c 128,-1,17
 164 129 164 129 139 270 c 1,18,-1
 240 270 l 1,19,20
 246 215 246 215 271.5 179 c 128,-1,21
 297 143 297 143 336 121.5 c 128,-1,22
 375 100 375 100 424 91 c 128,-1,23
 473 82 473 82 528 82 c 0,24,25
 567 82 567 82 612 87 c 128,-1,26
 657 92 657 92 696 110.5 c 128,-1,27
 735 129 735 129 761.5 164 c 128,-1,28
 788 199 788 199 788 256 c 0,29,30
 788 307 788 307 763.5 340 c 128,-1,31
 739 373 739 373 699 394.5 c 128,-1,32
 659 416 659 416 607 429 c 128,-1,33
 555 442 555 442 498 457 c 0,34,35
 439 469 439 469 378 485.5 c 128,-1,36
 317 502 317 502 268 529.5 c 128,-1,37
 219 557 219 557 187.5 601 c 128,-1,38
 156 645 156 645 156 713 c 0,39,40
 156 776 156 776 186.5 823 c 128,-1,41
 217 870 217 870 265 901 c 128,-1,42
 313 932 313 932 372.5 946.5 c 128,-1,43
 432 961 432 961 489 961 c 0,44,45
 565 961 565 961 627.5 949.5 c 128,-1,46
 690 938 690 938 737 910.5 c 128,-1,47
 784 883 784 883 815 834.5 c 128,-1,48
 846 786 846 786 858 713 c 1,49,-1
 752 713 l 1,50,51
 740 752 740 752 713 781.5 c 128,-1,52
 686 811 686 811 651 831.5 c 128,-1,53
 616 852 616 852 576.5 862 c 128,-1,54
 537 872 537 872 500 872 c 0,55,56
 467 872 467 872 427 867 c 128,-1,57
 387 862 387 862 351 846.5 c 128,-1,58
 315 831 315 831 290.5 801.5 c 128,-1,59
 266 772 266 772 266 723 c 0,0,1
EndSplineSet
Validated: 1
EndChar

StartChar: t
Encoding: 116 116 87
Width: 925
GlyphClass: 2
Flags: W
LayerCount: 2
Fore
SplineSet
815 59 m 1,0,1
 776 26 776 26 735 13 c 128,-1,2
 694 0 694 0 643 0 c 0,3,4
 588 0 588 0 535.5 21.5 c 128,-1,5
 483 43 483 43 444.5 81 c 128,-1,6
 406 119 406 119 382 169 c 128,-1,7
 358 219 358 219 358 274 c 2,8,-1
 358 870 l 1,9,-1
 135 870 l 1,10,-1
 135 958 l 1,11,-1
 358 958 l 1,12,-1
 358 1212 l 1,13,-1
 463 1212 l 1,14,-1
 463 958 l 1,15,-1
 768 958 l 1,16,-1
 768 870 l 1,17,-1
 463 870 l 1,18,-1
 463 307 l 2,19,20
 463 270 463 270 475 233.5 c 128,-1,21
 487 197 487 197 509.5 168 c 128,-1,22
 532 139 532 139 566 121.5 c 128,-1,23
 600 104 600 104 643 104 c 0,24,25
 702 104 702 104 743 137 c 1,26,-1
 815 59 l 1,0,1
EndSplineSet
Validated: 1
EndChar

StartChar: u
Encoding: 117 117 88
Width: 1126
GlyphClass: 2
Flags: W
LayerCount: 2
Fore
SplineSet
512 0 m 0,0,1
 412 0 412 0 340 38 c 128,-1,2
 268 76 268 76 222 142.5 c 128,-1,3
 176 209 176 209 153.5 296 c 128,-1,4
 131 383 131 383 131 481 c 2,5,-1
 131 958 l 1,6,-1
 238 958 l 1,7,-1
 238 481 l 2,8,9
 238 409 238 409 249 338.5 c 128,-1,10
 260 268 260 268 291 213 c 128,-1,11
 322 158 322 158 375 124 c 128,-1,12
 428 90 428 90 512 90 c 0,13,14
 594 90 594 90 661.5 124 c 128,-1,15
 729 158 729 158 776 213 c 128,-1,16
 823 268 823 268 850 339 c 128,-1,17
 877 410 877 410 877 481 c 2,18,-1
 877 958 l 1,19,-1
 983 958 l 1,20,-1
 983 0 l 1,21,-1
 895 0 l 1,22,-1
 874 223 l 1,23,24
 839 155 839 155 794.5 111.5 c 128,-1,25
 750 68 750 68 700.5 43 c 128,-1,26
 651 18 651 18 602 9 c 128,-1,27
 553 0 553 0 512 0 c 0,0,1
EndSplineSet
Validated: 1
EndChar

StartChar: v
Encoding: 118 118 89
Width: 1087
GlyphClass: 2
Flags: W
LayerCount: 2
Fore
SplineSet
303 958 m 1,0,-1
 565 115 l 1,1,-1
 834 958 l 1,2,-1
 952 958 l 1,3,-1
 627 0 l 1,4,-1
 510 0 l 1,5,-1
 184 958 l 1,6,-1
 303 958 l 1,0,-1
EndSplineSet
Validated: 1
EndChar

StartChar: w
Encoding: 119 119 90
Width: 1466
GlyphClass: 2
Flags: W
LayerCount: 2
Fore
SplineSet
1065 68 m 1,0,-1
 1305 958 l 1,1,-1
 1397 958 l 1,2,-1
 1143 0 l 1,3,-1
 987 0 l 1,4,-1
 764 817 l 1,5,-1
 547 0 l 1,6,-1
 389 0 l 1,7,-1
 135 958 l 1,8,-1
 227 958 l 1,9,-1
 465 68 l 1,10,-1
 711 958 l 1,11,-1
 821 958 l 1,12,-1
 1065 68 l 1,0,-1
EndSplineSet
Validated: 1
EndChar

StartChar: x
Encoding: 120 120 91
Width: 993
GlyphClass: 2
Flags: W
LayerCount: 2
Fore
SplineSet
815 958 m 1,0,-1
 930 958 l 1,1,-1
 588 477 l 1,2,3
 664 375 664 375 742.5 264.5 c 128,-1,4
 821 154 821 154 895 49 c 2,5,-1
 930 0 l 1,6,-1
 817 0 l 1,7,-1
 514 438 l 1,8,-1
 399 268 l 2,9,10
 352 200 352 200 306 133 c 128,-1,11
 260 66 260 66 219 0 c 1,12,-1
 104 0 l 1,13,-1
 446 477 l 1,14,15
 364 594 364 594 278.5 717 c 128,-1,16
 193 840 193 840 106 958 c 1,17,-1
 217 958 l 1,18,-1
 522 518 l 1,19,-1
 815 958 l 1,0,-1
EndSplineSet
Validated: 1
EndChar

StartChar: y
Encoding: 121 121 92
Width: 1087
GlyphClass: 2
Flags: W
LayerCount: 2
Fore
SplineSet
862 958 m 1,0,-1
 989 958 l 1,1,2
 934 804 934 804 891 667 c 128,-1,3
 848 530 848 530 801 381 c 0,4,5
 752 217 752 217 698.5 51 c 128,-1,6
 645 -115 645 -115 586 -274 c 0,7,8
 553 -352 553 -352 489.5 -402.5 c 128,-1,9
 426 -453 426 -453 336 -453 c 0,10,11
 320 -453 320 -453 297 -448.5 c 128,-1,12
 274 -444 274 -444 252 -440 c 1,13,-1
 252 -350 l 1,14,15
 262 -352 262 -352 277.5 -352 c 128,-1,16
 293 -352 293 -352 303 -352 c 0,17,18
 358 -352 358 -352 392 -339 c 128,-1,19
 426 -326 426 -326 447.5 -301 c 128,-1,20
 469 -276 469 -276 481.5 -243.5 c 128,-1,21
 494 -211 494 -211 506 -172 c 2,22,-1
 520 -117 l 1,23,-1
 145 958 l 1,24,-1
 274 958 l 1,25,-1
 594 0 l 1,26,-1
 862 958 l 1,0,-1
EndSplineSet
Validated: 1
EndChar

StartChar: z
Encoding: 122 122 93
Width: 950
GlyphClass: 2
Flags: W
LayerCount: 2
Fore
SplineSet
860 958 m 1,0,-1
 860 848 l 1,1,-1
 217 90 l 1,2,-1
 860 90 l 1,3,-1
 860 0 l 1,4,-1
 133 0 l 1,5,-1
 133 111 l 1,6,-1
 776 868 l 1,7,-1
 133 868 l 1,8,-1
 133 958 l 1,9,-1
 860 958 l 1,0,-1
EndSplineSet
Validated: 1
EndChar

StartChar: braceleft
Encoding: 123 123 94
Width: 700
GlyphClass: 2
Flags: W
LayerCount: 2
Fore
SplineSet
139 778 m 1,0,1
 190 790 190 790 220 830 c 128,-1,2
 250 870 250 870 250 926 c 2,3,-1
 250 1362 l 2,4,5
 250 1436 250 1436 274.5 1500.5 c 128,-1,6
 299 1565 299 1565 344 1615 c 128,-1,7
 389 1665 389 1665 449.5 1697 c 128,-1,8
 510 1729 510 1729 582 1735 c 1,9,-1
 582 1640 l 1,10,11
 473 1628 473 1628 409.5 1550.5 c 128,-1,12
 346 1473 346 1473 346 1362 c 2,13,-1
 346 926 l 2,14,15
 346 879 346 879 320.5 826.5 c 128,-1,16
 295 774 295 774 248 725 c 1,17,18
 295 676 295 676 320.5 625.5 c 128,-1,19
 346 575 346 575 346 524 c 2,20,-1
 346 86 l 2,21,22
 346 37 346 37 364.5 -8 c 128,-1,23
 383 -53 383 -53 414.5 -90 c 128,-1,24
 446 -127 446 -127 489 -152.5 c 128,-1,25
 532 -178 532 -178 582 -186 c 1,26,-1
 582 -283 l 1,27,28
 510 -277 510 -277 449.5 -245 c 128,-1,29
 389 -213 389 -213 344 -163 c 128,-1,30
 299 -113 299 -113 274.5 -49.5 c 128,-1,31
 250 14 250 14 250 86 c 2,32,-1
 250 524 l 2,33,34
 250 575 250 575 217 615 c 128,-1,35
 184 655 184 655 139 672 c 1,36,-1
 139 778 l 1,0,1
EndSplineSet
Validated: 1
EndChar

StartChar: bar
Encoding: 124 124 95
Width: 385
GlyphClass: 2
Flags: W
LayerCount: 2
Fore
SplineSet
250 1628 m 1,0,-1
 250 -172 l 1,1,-1
 145 -172 l 1,2,-1
 145 1628 l 1,3,-1
 250 1628 l 1,0,-1
EndSplineSet
Validated: 1
EndChar

StartChar: braceright
Encoding: 125 125 96
Width: 700
GlyphClass: 2
Flags: W
LayerCount: 2
Fore
SplineSet
582 672 m 1,0,1
 535 658 535 658 503 618 c 128,-1,2
 471 578 471 578 471 524 c 2,3,-1
 471 86 l 2,4,5
 471 14 471 14 446.5 -49.5 c 128,-1,6
 422 -113 422 -113 377 -163 c 128,-1,7
 332 -213 332 -213 271.5 -244.5 c 128,-1,8
 211 -276 211 -276 139 -283 c 1,9,-1
 139 -188 l 1,10,11
 248 -176 248 -176 311.5 -98 c 128,-1,12
 375 -20 375 -20 375 86 c 2,13,-1
 375 524 l 2,14,15
 375 575 375 575 400.5 625.5 c 128,-1,16
 426 676 426 676 473 725 c 1,17,18
 426 774 426 774 400.5 826.5 c 128,-1,19
 375 879 375 879 375 926 c 2,20,-1
 375 1362 l 2,21,22
 375 1413 375 1413 356.5 1459 c 128,-1,23
 338 1505 338 1505 306 1542 c 128,-1,24
 274 1579 274 1579 231 1603.5 c 128,-1,25
 188 1628 188 1628 139 1636 c 1,26,-1
 139 1735 l 1,27,28
 211 1729 211 1729 271.5 1697 c 128,-1,29
 332 1665 332 1665 377 1615 c 128,-1,30
 422 1565 422 1565 446.5 1500.5 c 128,-1,31
 471 1436 471 1436 471 1362 c 2,32,-1
 471 926 l 2,33,34
 471 871 471 871 500.5 831 c 128,-1,35
 530 791 530 791 582 778 c 1,36,-1
 582 672 l 1,0,1
EndSplineSet
Validated: 1
EndChar

StartChar: asciitilde
Encoding: 126 126 97
Width: 929
GlyphClass: 2
Flags: W
LayerCount: 2
Fore
SplineSet
618 700 m 0,0,1
 681 700 681 700 710 734 c 128,-1,2
 739 768 739 768 748 821 c 1,3,-1
 815 821 l 1,4,5
 807 747 807 747 763 690 c 128,-1,6
 719 633 719 633 635 629 c 0,7,8
 592 629 592 629 548 650.5 c 128,-1,9
 504 672 504 672 463 698 c 1,10,-1
 463 696 l 1,11,12
 428 719 428 719 396.5 734.5 c 128,-1,13
 365 750 365 750 336 750 c 0,14,15
 273 750 273 750 245 716 c 128,-1,16
 217 682 217 682 211 629 c 1,17,-1
 141 629 l 1,18,19
 145 666 145 666 159.5 699.5 c 128,-1,20
 174 733 174 733 197.5 760.5 c 128,-1,21
 221 788 221 788 252 804.5 c 128,-1,22
 283 821 283 821 319 821 c 0,23,24
 360 821 360 821 402 799.5 c 128,-1,25
 444 778 444 778 481 754 c 0,26,27
 518 731 518 731 551.5 715.5 c 128,-1,28
 585 700 585 700 618 700 c 0,0,1
EndSplineSet
Validated: 1
EndChar

StartChar: exclamdown
Encoding: 161 161 98
Width: 378
GlyphClass: 2
Flags: W
LayerCount: 2
Fore
SplineSet
244 0 m 1,0,-1
 145 0 l 1,1,-1
 145 1030 l 1,2,-1
 244 1030 l 1,3,-1
 244 0 l 1,0,-1
193 1280 m 0,4,5
 158 1280 158 1280 132 1305.5 c 128,-1,6
 106 1331 106 1331 106 1368 c 0,7,8
 106 1403 106 1403 132 1429.5 c 128,-1,9
 158 1456 158 1456 193 1456 c 0,10,11
 234 1456 234 1456 259.5 1429.5 c 128,-1,12
 285 1403 285 1403 285 1368 c 0,13,14
 285 1331 285 1331 259.5 1305.5 c 128,-1,15
 234 1280 234 1280 193 1280 c 0,4,5
EndSplineSet
Validated: 1
EndChar

StartChar: cent
Encoding: 162 162 99
Width: 1081
GlyphClass: 2
Flags: W
LayerCount: 2
Fore
SplineSet
135 461 m 0,0,1
 135 547 135 547 161.5 622.5 c 128,-1,2
 188 698 188 698 237.5 759.5 c 128,-1,3
 287 821 287 821 354.5 864 c 128,-1,4
 422 907 422 907 504 926 c 1,5,-1
 504 1081 l 1,6,-1
 610 1081 l 1,7,-1
 610 928 l 1,8,9
 733 903 733 903 822 837.5 c 128,-1,10
 911 772 911 772 956 674 c 1,11,-1
 850 674 l 1,12,13
 803 752 803 752 732.5 798 c 128,-1,14
 662 844 662 844 569 844 c 0,15,16
 497 844 497 844 437 814 c 128,-1,17
 377 784 377 784 333 733 c 128,-1,18
 289 682 289 682 264.5 612.5 c 128,-1,19
 240 543 240 543 240 461 c 0,20,21
 240 381 240 381 264.5 311.5 c 128,-1,22
 289 242 289 242 333 191.5 c 128,-1,23
 377 141 377 141 437.5 112.5 c 128,-1,24
 498 84 498 84 569 84 c 0,25,26
 661 84 661 84 731 127 c 128,-1,27
 801 170 801 170 848 248 c 1,28,-1
 956 248 l 1,29,30
 872 43 872 43 610 0 c 1,31,-1
 610 -152 l 1,32,-1
 504 -152 l 1,33,-1
 504 0 l 1,34,35
 422 18 422 18 354.5 61 c 128,-1,36
 287 104 287 104 237.5 164.5 c 128,-1,37
 188 225 188 225 161.5 301 c 128,-1,38
 135 377 135 377 135 461 c 0,0,1
EndSplineSet
Validated: 1
EndChar

StartChar: sterling
Encoding: 163 163 100
Width: 1396
GlyphClass: 2
Flags: W
LayerCount: 2
Fore
SplineSet
782 631 m 1,0,-1
 485 580 l 1,1,2
 497 527 497 527 505.5 485.5 c 128,-1,3
 514 444 514 444 514 422 c 0,4,5
 514 318 514 318 420 178 c 1,6,7
 500 168 500 168 548 157.5 c 128,-1,8
 596 147 596 147 641 137 c 0,9,10
 700 123 700 123 759.5 111.5 c 128,-1,11
 819 100 819 100 889 100 c 0,12,13
 1018 100 1018 100 1097 155.5 c 128,-1,14
 1176 211 1176 211 1188 334 c 1,15,-1
 1305 334 l 1,16,17
 1289 168 1289 168 1177 76 c 128,-1,18
 1065 -16 1065 -16 889 -16 c 0,19,20
 830 -16 830 -16 773.5 -5 c 128,-1,21
 717 6 717 6 657 20 c 1,22,-1
 659 20 l 1,23,24
 600 38 600 38 539.5 49.5 c 128,-1,25
 479 61 479 61 412 61 c 0,26,27
 342 61 342 61 293 51 c 128,-1,28
 244 41 244 41 186 12 c 1,29,-1
 164 66 l 2,30,31
 156 80 156 80 149.5 92 c 128,-1,32
 143 104 143 104 139 121 c 1,33,34
 180 141 180 141 225 172 c 128,-1,35
 270 203 270 203 309 241 c 128,-1,36
 348 279 348 279 372.5 324 c 128,-1,37
 397 369 397 369 397 422 c 0,38,39
 397 451 397 451 390 485.5 c 128,-1,40
 383 520 383 520 373 559 c 1,41,42
 326 551 326 551 262.5 539.5 c 128,-1,43
 199 528 199 528 145 518 c 1,44,45
 141 551 141 551 136 569.5 c 128,-1,46
 131 588 131 588 127 616 c 1,47,-1
 332 655 l 1,48,49
 295 751 295 751 264 841.5 c 128,-1,50
 233 932 233 932 233 1020 c 0,51,52
 233 1112 233 1112 268 1192 c 128,-1,53
 303 1272 303 1272 363.5 1330.5 c 128,-1,54
 424 1389 424 1389 505 1422.5 c 128,-1,55
 586 1456 586 1456 678 1456 c 0,56,57
 776 1456 776 1456 870.5 1418 c 128,-1,58
 965 1380 965 1380 1030 1309 c 1,59,60
 1001 1286 1001 1286 983 1274 c 128,-1,61
 965 1262 965 1262 936 1241 c 1,62,63
 887 1294 887 1294 818.5 1323 c 128,-1,64
 750 1352 750 1352 682 1352 c 0,65,66
 610 1352 610 1352 549.5 1327.5 c 128,-1,67
 489 1303 489 1303 444 1258.5 c 128,-1,68
 399 1214 399 1214 374.5 1153 c 128,-1,69
 350 1092 350 1092 350 1020 c 0,70,71
 350 934 350 934 380 849 c 128,-1,72
 410 764 410 764 444 678 c 1,73,-1
 637 711 l 2,74,75
 668 717 668 717 699.5 721 c 128,-1,76
 731 725 731 725 766 731 c 1,77,-1
 782 631 l 1,0,-1
EndSplineSet
Validated: 1
EndChar

StartChar: yen
Encoding: 165 165 101
Width: 1218
GlyphClass: 2
Flags: W
LayerCount: 2
Fore
SplineSet
995 852 m 1,0,-1
 995 748 l 1,1,-1
 678 748 l 1,2,-1
 678 461 l 1,3,-1
 995 461 l 1,4,-1
 995 358 l 1,5,-1
 678 358 l 1,6,-1
 678 0 l 1,7,-1
 575 0 l 1,8,-1
 575 358 l 1,9,-1
 258 358 l 1,10,-1
 258 461 l 1,11,-1
 575 461 l 1,12,-1
 575 748 l 1,13,-1
 258 748 l 1,14,-1
 258 852 l 1,15,-1
 504 852 l 1,16,17
 418 1004 418 1004 334 1154.5 c 128,-1,18
 250 1305 250 1305 164 1456 c 1,19,-1
 264 1456 l 1,20,-1
 625 815 l 1,21,22
 711 967 711 967 807 1135 c 128,-1,23
 903 1303 903 1303 989 1456 c 1,24,-1
 1090 1456 l 1,25,-1
 748 852 l 1,26,-1
 995 852 l 1,0,-1
EndSplineSet
Validated: 1
EndChar

StartChar: brokenbar
Encoding: 166 166 102
Width: 385
GlyphClass: 2
Flags: W
LayerCount: 2
Fore
SplineSet
250 526 m 1,0,-1
 250 -172 l 1,1,-1
 145 -172 l 1,2,-1
 145 526 l 1,3,-1
 250 526 l 1,0,-1
145 930 m 1,4,-1
 145 1628 l 1,5,-1
 250 1628 l 1,6,-1
 250 930 l 1,7,-1
 145 930 l 1,4,-1
EndSplineSet
Validated: 1
EndChar

StartChar: section
Encoding: 167 167 103
Width: 1177
GlyphClass: 2
Flags: W
LayerCount: 2
Fore
SplineSet
395 1546 m 0,0,1
 520 1616 520 1616 655 1616 c 0,2,3
 770 1616 770 1616 874.5 1568 c 128,-1,4
 979 1520 979 1520 1057 1423 c 1,5,6
 1030 1407 1030 1407 1018 1400 c 128,-1,7
 1006 1393 1006 1393 983 1378 c 1,8,-1
 983 1380 l 1,9,-1
 967 1368 l 1,10,11
 908 1436 908 1436 828 1473.5 c 128,-1,12
 748 1511 748 1511 659 1511 c 0,13,14
 628 1511 628 1511 591.5 1506 c 128,-1,15
 555 1501 555 1501 498 1485 c 1,16,-1
 1004 614 l 2,17,18
 1037 551 1037 551 1056 485.5 c 128,-1,19
 1075 420 1075 420 1075 358 c 0,20,21
 1075 292 1075 292 1056.5 228 c 128,-1,22
 1038 164 1038 164 1003.5 104.5 c 128,-1,23
 969 45 969 45 920.5 -5 c 128,-1,24
 872 -55 872 -55 815 -92 c 1,25,-1
 815 -90 l 1,26,27
 690 -160 690 -160 563 -160 c 0,28,29
 442 -160 442 -160 337.5 -114 c 128,-1,30
 233 -68 233 -68 156 31 c 1,31,32
 181 49 181 49 200 60.5 c 128,-1,33
 219 72 219 72 242 86 c 0,34,35
 244 86 244 86 243 87 c 128,-1,36
 242 88 242 88 244 88 c 0,37,38
 303 22 303 22 387 -17.5 c 128,-1,39
 471 -57 471 -57 559 -57 c 0,40,41
 612 -57 612 -57 715 -33 c 1,42,-1
 211 842 l 2,43,44
 139 965 139 965 139 1098 c 0,45,46
 139 1233 139 1233 205.5 1352.5 c 128,-1,47
 272 1472 272 1472 395 1546 c 0,0,1
412 1436 m 1,48,49
 330 1358 330 1358 287 1270 c 128,-1,50
 244 1182 244 1182 244 1100 c 0,51,52
 244 1047 244 1047 256 993.5 c 128,-1,53
 268 940 268 940 297 893 c 2,54,-1
 801 18 l 1,55,56
 881 96 881 96 925 184 c 128,-1,57
 969 272 969 272 969 354 c 0,58,59
 969 407 969 407 955.5 461.5 c 128,-1,60
 942 516 942 516 913 563 c 2,61,-1
 412 1436 l 1,48,49
EndSplineSet
Validated: 1
EndChar

StartChar: dieresis
Encoding: 168 168 104
Width: 1067
GlyphClass: 2
Flags: W
LayerCount: 2
Fore
SplineSet
223 1395 m 0,0,1
 260 1395 260 1395 286.5 1370.5 c 128,-1,2
 313 1346 313 1346 313 1309 c 0,3,4
 313 1270 313 1270 286.5 1244.5 c 128,-1,5
 260 1219 260 1219 223 1219 c 0,6,7
 188 1219 188 1219 161.5 1244.5 c 128,-1,8
 135 1270 135 1270 135 1309 c 0,9,10
 135 1346 135 1346 161.5 1370.5 c 128,-1,11
 188 1395 188 1395 223 1395 c 0,0,1
874 1395 m 0,12,13
 911 1395 911 1395 938 1370.5 c 128,-1,14
 965 1346 965 1346 965 1309 c 0,15,16
 965 1270 965 1270 938 1244.5 c 128,-1,17
 911 1219 911 1219 874 1219 c 0,18,19
 839 1219 839 1219 812.5 1244.5 c 128,-1,20
 786 1270 786 1270 786 1309 c 0,21,22
 786 1346 786 1346 812.5 1370.5 c 128,-1,23
 839 1395 839 1395 874 1395 c 0,12,13
EndSplineSet
Validated: 1
EndChar

StartChar: copyright
Encoding: 169 169 105
Width: 1304
GlyphClass: 2
Flags: W
LayerCount: 2
Fore
SplineSet
860 539 m 1,0,1
 788 471 788 471 688 471 c 0,2,3
 635 471 635 471 590 491.5 c 128,-1,4
 545 512 545 512 510 546 c 128,-1,5
 475 580 475 580 455.5 626 c 128,-1,6
 436 672 436 672 436 725 c 0,7,8
 436 776 436 776 455.5 822 c 128,-1,9
 475 868 475 868 510 903 c 128,-1,10
 545 938 545 938 590 957.5 c 128,-1,11
 635 977 635 977 688 977 c 0,12,13
 786 977 786 977 856 913 c 1,14,-1
 858 913 l 1,15,16
 848 901 848 901 835.5 890 c 128,-1,17
 823 879 823 879 811 866 c 1,18,19
 784 889 784 889 753.5 902 c 128,-1,20
 723 915 723 915 688 915 c 0,21,22
 649 915 649 915 614.5 900 c 128,-1,23
 580 885 580 885 554 858 c 128,-1,24
 528 831 528 831 513 797.5 c 128,-1,25
 498 764 498 764 498 725 c 256,26,27
 498 686 498 686 513 651 c 128,-1,28
 528 616 528 616 554 590.5 c 128,-1,29
 580 565 580 565 614.5 550 c 128,-1,30
 649 535 649 535 688 535 c 0,31,32
 758 535 758 535 817 584 c 1,33,-1
 860 539 l 1,0,1
662 1270 m 256,34,35
 775 1270 775 1270 874 1227 c 128,-1,36
 973 1184 973 1184 1046.5 1110 c 128,-1,37
 1120 1036 1120 1036 1163 937 c 128,-1,38
 1206 838 1206 838 1206 725 c 256,39,40
 1206 612 1206 612 1163 513 c 128,-1,41
 1120 414 1120 414 1046.5 340 c 128,-1,42
 973 266 973 266 873.5 223 c 128,-1,43
 774 180 774 180 662 180 c 256,44,45
 549 180 549 180 449.5 223 c 128,-1,46
 350 266 350 266 276.5 340 c 128,-1,47
 203 414 203 414 160 513 c 128,-1,48
 117 612 117 612 117 725 c 256,49,50
 117 838 117 838 160 937 c 128,-1,51
 203 1036 203 1036 276.5 1110 c 128,-1,52
 350 1184 350 1184 449.5 1227 c 128,-1,53
 549 1270 549 1270 662 1270 c 256,34,35
1137 725 m 256,54,55
 1137 821 1137 821 1099 908 c 128,-1,56
 1061 995 1061 995 996.5 1059.5 c 128,-1,57
 932 1124 932 1124 845 1162 c 128,-1,58
 758 1200 758 1200 662 1200 c 256,59,60
 566 1200 566 1200 478.5 1162 c 128,-1,61
 391 1124 391 1124 325.5 1059.5 c 128,-1,62
 260 995 260 995 222 909 c 128,-1,63
 184 823 184 823 184 725 c 256,64,65
 184 627 184 627 222 541 c 128,-1,66
 260 455 260 455 325.5 390.5 c 128,-1,67
 391 326 391 326 478 288 c 128,-1,68
 565 250 565 250 662 250 c 256,69,70
 758 250 758 250 845 288 c 128,-1,71
 932 326 932 326 996.5 390.5 c 128,-1,72
 1061 455 1061 455 1099 542 c 128,-1,73
 1137 629 1137 629 1137 725 c 256,54,55
EndSplineSet
Validated: 1
EndChar

StartChar: guillemotleft
Encoding: 171 171 106
Width: 1304
GlyphClass: 2
Flags: W
LayerCount: 2
Fore
SplineSet
627 930 m 1,0,-1
 266 461 l 1,1,-1
 625 -2 l 1,2,-1
 516 -2 l 1,3,-1
 291 279 l 2,4,5
 252 324 252 324 217 369 c 128,-1,6
 182 414 182 414 143 461 c 1,7,-1
 516 930 l 1,8,-1
 627 930 l 1,0,-1
1169 930 m 1,9,-1
 809 461 l 1,10,-1
 1167 -2 l 1,11,-1
 1059 -2 l 1,12,13
 1008 61 1008 61 963 116.5 c 128,-1,14
 918 172 918 172 870 231 c 0,15,16
 823 284 823 284 777 342.5 c 128,-1,17
 731 401 731 401 684 461 c 1,18,19
 782 584 782 584 871.5 697.5 c 128,-1,20
 961 811 961 811 1059 930 c 1,21,-1
 1169 930 l 1,9,-1
EndSplineSet
Validated: 1
EndChar

StartChar: registered
Encoding: 174 174 107
Width: 827
GlyphClass: 2
Flags: W
LayerCount: 2
Fore
SplineSet
414 1456 m 0,0,1
 477 1456 477 1456 534.5 1431.5 c 128,-1,2
 592 1407 592 1407 634 1364 c 128,-1,3
 676 1321 676 1321 700.5 1263.5 c 128,-1,4
 725 1206 725 1206 725 1143 c 256,5,6
 725 1080 725 1080 700.5 1022.5 c 128,-1,7
 676 965 676 965 634 922 c 128,-1,8
 592 879 592 879 534.5 854 c 128,-1,9
 477 829 477 829 414 829 c 0,10,11
 348 829 348 829 292 854 c 128,-1,12
 236 879 236 879 194 922 c 128,-1,13
 152 965 152 965 127 1022 c 128,-1,14
 102 1079 102 1079 102 1143 c 256,15,16
 102 1206 102 1206 127 1263.5 c 128,-1,17
 152 1321 152 1321 194 1364 c 128,-1,18
 236 1407 236 1407 292 1431.5 c 128,-1,19
 348 1456 348 1456 414 1456 c 0,0,1
653 1143 m 256,20,21
 653 1192 653 1192 633.5 1235 c 128,-1,22
 614 1278 614 1278 582.5 1310.5 c 128,-1,23
 551 1343 551 1343 507 1361.5 c 128,-1,24
 463 1380 463 1380 414 1380 c 256,25,26
 365 1380 365 1380 320.5 1361.5 c 128,-1,27
 276 1343 276 1343 244.5 1310.5 c 128,-1,28
 213 1278 213 1278 193.5 1235 c 128,-1,29
 174 1192 174 1192 174 1143 c 256,30,31
 174 1094 174 1094 193.5 1051 c 128,-1,32
 213 1008 213 1008 244.5 974 c 128,-1,33
 276 940 276 940 320.5 920.5 c 128,-1,34
 365 901 365 901 414 901 c 256,35,36
 463 901 463 901 506 920.5 c 128,-1,37
 549 940 549 940 581.5 974 c 128,-1,38
 614 1008 614 1008 633.5 1051 c 128,-1,39
 653 1094 653 1094 653 1143 c 256,20,21
494 1096 m 1,40,41
 517 1078 517 1078 526 1053 c 128,-1,42
 535 1028 535 1028 541 999 c 1,43,-1
 471 999 l 1,44,45
 467 1030 467 1030 440.5 1051.5 c 128,-1,46
 414 1073 414 1073 383 1073 c 2,47,-1
 375 1073 l 1,48,-1
 375 999 l 1,49,-1
 307 999 l 1,50,-1
 307 1307 l 1,51,-1
 422 1307 l 2,52,53
 469 1307 469 1307 505 1273 c 128,-1,54
 541 1239 541 1239 541 1192 c 0,55,56
 541 1137 541 1137 494 1096 c 1,40,41
375 1237 m 1,57,-1
 375 1143 l 1,58,-1
 422 1143 l 2,59,60
 445 1143 445 1143 458 1156 c 128,-1,61
 471 1169 471 1169 471 1192 c 0,62,63
 471 1212 471 1212 455.5 1224.5 c 128,-1,64
 440 1237 440 1237 422 1237 c 2,65,-1
 375 1237 l 1,57,-1
EndSplineSet
Validated: 1
EndChar

StartChar: macron
Encoding: 175 175 108
Width: 1910
GlyphClass: 2
Flags: W
LayerCount: 2
Fore
SplineSet
139 1264 m 1,0,-1
 643 1264 l 1,1,-1
 643 1206 l 1,2,-1
 139 1206 l 1,3,-1
 139 1264 l 1,0,-1
EndSplineSet
Validated: 1
EndChar

StartChar: degree
Encoding: 176 176 109
Width: 583
GlyphClass: 2
Flags: W
LayerCount: 2
Fore
SplineSet
469 1284 m 0,0,1
 469 1210 469 1210 418 1159 c 128,-1,2
 367 1108 367 1108 295 1108 c 256,3,4
 223 1108 223 1108 173 1159 c 128,-1,5
 123 1210 123 1210 123 1284 c 0,6,7
 123 1356 123 1356 173 1406 c 128,-1,8
 223 1456 223 1456 295 1456 c 0,9,10
 332 1456 332 1456 363.5 1443 c 128,-1,11
 395 1430 395 1430 418.5 1406 c 128,-1,12
 442 1382 442 1382 455.5 1350.5 c 128,-1,13
 469 1319 469 1319 469 1284 c 0,0,1
201 1284 m 0,14,15
 201 1243 201 1243 228.5 1215.5 c 128,-1,16
 256 1188 256 1188 295 1188 c 0,17,18
 336 1188 336 1188 362.5 1215.5 c 128,-1,19
 389 1243 389 1243 389 1284 c 0,20,21
 389 1321 389 1321 362.5 1349.5 c 128,-1,22
 336 1378 336 1378 295 1378 c 0,23,24
 256 1378 256 1378 228.5 1349.5 c 128,-1,25
 201 1321 201 1321 201 1284 c 0,14,15
EndSplineSet
Validated: 1
EndChar

StartChar: plusminus
Encoding: 177 177 110
Width: 980
GlyphClass: 2
Flags: W
LayerCount: 2
Fore
SplineSet
555 930 m 1,0,-1
 555 612 l 1,1,-1
 874 612 l 1,2,-1
 874 510 l 1,3,-1
 555 510 l 1,4,-1
 555 102 l 1,5,-1
 874 102 l 1,6,-1
 874 0 l 1,7,-1
 135 0 l 1,8,-1
 135 102 l 1,9,-1
 455 102 l 1,10,-1
 455 510 l 1,11,-1
 135 510 l 1,12,-1
 135 612 l 1,13,-1
 455 612 l 1,14,-1
 455 930 l 1,15,-1
 555 930 l 1,0,-1
EndSplineSet
Validated: 1
EndChar

StartChar: acute
Encoding: 180 180 111
Width: 518
GlyphClass: 2
Flags: W
LayerCount: 2
Fore
SplineSet
467 1395 m 1,0,-1
 541 1395 l 1,1,-1
 412 1206 l 1,2,-1
 365 1206 l 1,3,-1
 467 1395 l 1,0,-1
EndSplineSet
Validated: 1
EndChar

StartChar: mu
Encoding: 181 181 112
Width: 1126
GlyphClass: 2
Flags: W
LayerCount: 2
Fore
SplineSet
512 0 m 0,0,1
 387 0 387 0 238 104 c 1,2,-1
 238 -520 l 1,3,-1
 131 -520 l 1,4,-1
 131 958 l 1,5,-1
 238 958 l 1,6,-1
 238 481 l 2,7,8
 238 409 238 409 249 338.5 c 128,-1,9
 260 268 260 268 291 213 c 128,-1,10
 322 158 322 158 375 124 c 128,-1,11
 428 90 428 90 512 90 c 0,12,13
 594 90 594 90 661.5 124 c 128,-1,14
 729 158 729 158 776 213 c 128,-1,15
 823 268 823 268 850 339 c 128,-1,16
 877 410 877 410 877 481 c 2,17,-1
 877 958 l 1,18,-1
 983 958 l 1,19,-1
 983 0 l 1,20,-1
 895 0 l 1,21,-1
 874 223 l 1,22,23
 788 106 788 106 692 53 c 128,-1,24
 596 0 596 0 512 0 c 0,0,1
EndSplineSet
Validated: 1
EndChar

StartChar: paragraph
Encoding: 182 182 113
Width: 1662
GlyphClass: 2
Flags: W
LayerCount: 2
Fore
SplineSet
127 940 m 256,0,1
 127 1046 127 1046 168 1140.5 c 128,-1,2
 209 1235 209 1235 278.5 1304.5 c 128,-1,3
 348 1374 348 1374 442.5 1415 c 128,-1,4
 537 1456 537 1456 643 1456 c 2,5,-1
 1585 1456 l 1,6,-1
 1585 0 l 1,7,-1
 1481 0 l 1,8,-1
 1481 1352 l 1,9,-1
 1157 1352 l 1,10,-1
 1157 0 l 1,11,-1
 1055 0 l 1,12,-1
 1055 426 l 1,13,-1
 643 426 l 2,14,15
 537 426 537 426 442.5 467 c 128,-1,16
 348 508 348 508 278.5 577.5 c 128,-1,17
 209 647 209 647 168 740.5 c 128,-1,18
 127 834 127 834 127 940 c 256,0,1
EndSplineSet
Validated: 1
EndChar

StartChar: cedilla
Encoding: 184 184 114
Width: 446
GlyphClass: 2
Flags: W
LayerCount: 2
Fore
SplineSet
369 49 m 1,0,-1
 434 49 l 1,1,-1
 434 -147 l 1,2,3
 487 -182 487 -182 530 -240.5 c 128,-1,4
 573 -299 573 -299 573 -362 c 0,5,6
 573 -403 573 -403 557 -439 c 128,-1,7
 541 -475 541 -475 513 -505 c 128,-1,8
 485 -535 485 -535 448.5 -556.5 c 128,-1,9
 412 -578 412 -578 369 -586 c 1,10,-1
 369 -508 l 1,11,12
 426 -496 426 -496 462 -456 c 128,-1,13
 498 -416 498 -416 498 -362 c 256,14,15
 498 -309 498 -309 462 -267 c 128,-1,16
 426 -225 426 -225 369 -213 c 1,17,-1
 369 49 l 1,0,-1
EndSplineSet
Validated: 1
EndChar

StartChar: guillemotright
Encoding: 187 187 115
Width: 1304
GlyphClass: 2
Flags: W
LayerCount: 2
Fore
SplineSet
827 930 m 1,0,-1
 1198 461 l 1,1,2
 1102 342 1102 342 1012 228.5 c 128,-1,3
 922 115 922 115 827 -2 c 1,4,-1
 719 -2 l 1,5,-1
 1077 461 l 1,6,-1
 717 930 l 1,7,-1
 827 930 l 1,0,-1
285 930 m 1,8,-1
 655 461 l 1,9,10
 561 342 561 342 471 228.5 c 128,-1,11
 381 115 381 115 285 -2 c 1,12,-1
 176 -2 l 1,13,-1
 535 461 l 1,14,-1
 174 930 l 1,15,-1
 285 930 l 1,8,-1
EndSplineSet
Validated: 1
EndChar

StartChar: questiondown
Encoding: 191 191 116
Width: 1087
GlyphClass: 2
Flags: W
LayerCount: 2
Fore
SplineSet
549 0 m 0,0,1
 465 0 465 0 389 24.5 c 128,-1,2
 313 49 313 49 257 97 c 128,-1,3
 201 145 201 145 168 214 c 128,-1,4
 135 283 135 283 135 371 c 0,5,6
 135 422 135 422 150.5 465 c 128,-1,7
 166 508 166 508 189.5 545 c 128,-1,8
 213 582 213 582 242.5 612.5 c 128,-1,9
 272 643 272 643 303 672 c 0,10,11
 340 705 340 705 376 740.5 c 128,-1,12
 412 776 412 776 441.5 819 c 128,-1,13
 471 862 471 862 492.5 913.5 c 128,-1,14
 514 965 514 965 522 1030 c 1,15,-1
 623 1030 l 1,16,17
 615 962 615 962 594 910 c 128,-1,18
 573 858 573 858 546.5 817 c 128,-1,19
 520 776 520 776 489.5 742.5 c 128,-1,20
 459 709 459 709 428 678 c 2,21,-1
 412 662 l 2,22,23
 381 633 381 633 351.5 602 c 128,-1,24
 322 571 322 571 299 535.5 c 128,-1,25
 276 500 276 500 262 459 c 128,-1,26
 248 418 248 418 248 369 c 0,27,28
 248 222 248 222 330 150 c 128,-1,29
 412 78 412 78 555 78 c 0,30,31
 643 78 643 78 704.5 102.5 c 128,-1,32
 766 127 766 127 804 171 c 128,-1,33
 842 215 842 215 860.5 276.5 c 128,-1,34
 879 338 879 338 885 412 c 1,35,-1
 985 412 l 1,36,37
 975 324 975 324 941 248 c 128,-1,38
 907 172 907 172 852 116.5 c 128,-1,39
 797 61 797 61 720 30.5 c 128,-1,40
 643 0 643 0 549 0 c 0,0,1
571 1280 m 256,41,42
 534 1280 534 1280 509.5 1305.5 c 128,-1,43
 485 1331 485 1331 485 1368 c 0,44,45
 485 1403 485 1403 510 1429.5 c 128,-1,46
 535 1456 535 1456 571 1456 c 256,47,48
 608 1456 608 1456 633.5 1429.5 c 128,-1,49
 659 1403 659 1403 659 1368 c 0,50,51
 659 1331 659 1331 633.5 1305.5 c 128,-1,52
 608 1280 608 1280 571 1280 c 256,41,42
EndSplineSet
Validated: 1
EndChar

StartChar: Agrave
Encoding: 192 192 117
Width: 1241
GlyphClass: 2
Flags: W
LayerCount: 2
Fore
SplineSet
911 426 m 1,0,-1
 367 426 l 1,1,-1
 322 270 l 1,2,-1
 242 0 l 1,3,-1
 150 0 l 1,4,-1
 567 1456 l 1,5,-1
 707 1456 l 1,6,-1
 1126 0 l 1,7,-1
 1032 0 l 1,8,-1
 911 426 l 1,0,-1
637 1366 m 1,9,-1
 395 528 l 1,10,-1
 881 528 l 1,11,-1
 637 1366 l 1,9,-1
537 1921 m 1,12,13
 553 1890 553 1890 566.5 1867.5 c 128,-1,14
 580 1845 580 1845 596 1817 c 0,15,16
 606 1799 606 1799 618.5 1775 c 128,-1,17
 631 1751 631 1751 643 1733 c 1,18,-1
 598 1733 l 1,19,20
 571 1768 571 1768 547.5 1803.5 c 128,-1,21
 524 1839 524 1839 502 1874 c 2,22,-1
 467 1921 l 1,23,-1
 537 1921 l 1,12,13
EndSplineSet
Validated: 1
EndChar

StartChar: Aacute
Encoding: 193 193 118
Width: 1241
GlyphClass: 2
Flags: W
LayerCount: 2
Fore
SplineSet
911 426 m 1,0,-1
 367 426 l 1,1,-1
 322 270 l 1,2,-1
 242 0 l 1,3,-1
 150 0 l 1,4,-1
 567 1456 l 1,5,-1
 707 1456 l 1,6,-1
 1126 0 l 1,7,-1
 1032 0 l 1,8,-1
 911 426 l 1,0,-1
637 1366 m 1,9,-1
 395 528 l 1,10,-1
 881 528 l 1,11,-1
 637 1366 l 1,9,-1
737 1921 m 1,12,-1
 809 1921 l 1,13,-1
 678 1733 l 1,14,-1
 633 1733 l 1,15,-1
 737 1921 l 1,12,-1
EndSplineSet
Validated: 1
EndChar

StartChar: Acircumflex
Encoding: 194 194 119
Width: 1241
GlyphClass: 2
Flags: W
LayerCount: 2
Fore
SplineSet
911 426 m 1,0,-1
 367 426 l 1,1,-1
 322 270 l 1,2,-1
 242 0 l 1,3,-1
 150 0 l 1,4,-1
 567 1456 l 1,5,-1
 707 1456 l 1,6,-1
 1126 0 l 1,7,-1
 1032 0 l 1,8,-1
 911 426 l 1,0,-1
637 1366 m 1,9,-1
 395 528 l 1,10,-1
 881 528 l 1,11,-1
 637 1366 l 1,9,-1
827 1733 m 1,12,-1
 834 1724 l 1,13,-1
 852 1698 l 1,14,-1
 870 1733 l 1,15,-1
 827 1733 l 1,12,-1
688 1921 m 1,16,17
 729 1870 729 1870 760 1826 c 128,-1,18
 791 1782 791 1782 827 1733 c 1,19,-1
 758 1733 l 1,20,-1
 635 1892 l 1,21,-1
 518 1733 l 1,22,-1
 446 1733 l 1,23,-1
 514 1823 l 1,24,-1
 590 1921 l 1,25,-1
 688 1921 l 1,16,17
EndSplineSet
Validated: 5
EndChar

StartChar: Atilde
Encoding: 195 195 120
Width: 1241
GlyphClass: 2
Flags: W
LayerCount: 2
Fore
SplineSet
911 426 m 1,0,-1
 367 426 l 1,1,-1
 322 270 l 1,2,-1
 242 0 l 1,3,-1
 150 0 l 1,4,-1
 567 1456 l 1,5,-1
 707 1456 l 1,6,-1
 1126 0 l 1,7,-1
 1032 0 l 1,8,-1
 911 426 l 1,0,-1
637 1366 m 1,9,-1
 395 528 l 1,10,-1
 881 528 l 1,11,-1
 637 1366 l 1,9,-1
778 1804 m 0,12,13
 850 1804 850 1804 875.5 1838 c 128,-1,14
 901 1872 901 1872 907 1923 c 1,15,-1
 975 1923 l 1,16,17
 965 1837 965 1837 914.5 1787 c 128,-1,18
 864 1737 864 1737 795 1733 c 1,19,-1
 797 1733 l 1,20,21
 750 1733 750 1733 704.5 1756.5 c 128,-1,22
 659 1780 659 1780 621 1802 c 1,23,-1
 623 1800 l 1,24,-1
 598 1812 l 2,25,26
 569 1828 569 1828 545.5 1840.5 c 128,-1,27
 522 1853 522 1853 500 1853 c 0,28,29
 424 1853 424 1853 399.5 1819.5 c 128,-1,30
 375 1786 375 1786 369 1733 c 1,31,-1
 303 1733 l 1,32,33
 313 1819 313 1819 362.5 1869 c 128,-1,34
 412 1919 412 1919 481 1923 c 0,35,36
 528 1919 528 1919 572 1898.5 c 128,-1,37
 616 1878 616 1878 655 1853 c 0,38,39
 688 1833 688 1833 718.5 1818.5 c 128,-1,40
 749 1804 749 1804 778 1804 c 0,12,13
EndSplineSet
Validated: 5
EndChar

StartChar: Adieresis
Encoding: 196 196 121
Width: 1241
GlyphClass: 2
Flags: W
LayerCount: 2
Fore
SplineSet
911 426 m 1,0,-1
 367 426 l 1,1,-1
 242 0 l 1,2,-1
 150 0 l 1,3,-1
 567 1456 l 1,4,-1
 707 1456 l 1,5,-1
 1126 0 l 1,6,-1
 1032 0 l 1,7,-1
 911 426 l 1,0,-1
637 1366 m 1,8,-1
 395 528 l 1,9,-1
 881 528 l 1,10,-1
 637 1366 l 1,8,-1
313 1921 m 256,11,12
 350 1921 350 1921 374.5 1896.5 c 128,-1,13
 399 1872 399 1872 399 1835 c 256,14,15
 399 1798 399 1798 374.5 1771.5 c 128,-1,16
 350 1745 350 1745 313 1745 c 256,17,18
 276 1745 276 1745 250.5 1771.5 c 128,-1,19
 225 1798 225 1798 225 1835 c 256,20,21
 225 1872 225 1872 250.5 1896.5 c 128,-1,22
 276 1921 276 1921 313 1921 c 256,11,12
965 1921 m 0,23,24
 1002 1921 1002 1921 1026.5 1896.5 c 128,-1,25
 1051 1872 1051 1872 1051 1835 c 256,26,27
 1051 1798 1051 1798 1026 1771.5 c 128,-1,28
 1001 1745 1001 1745 965 1745 c 0,29,30
 926 1745 926 1745 900 1771.5 c 128,-1,31
 874 1798 874 1798 874 1835 c 256,32,33
 874 1872 874 1872 900 1896.5 c 128,-1,34
 926 1921 926 1921 965 1921 c 0,23,24
EndSplineSet
Validated: 1
EndChar

StartChar: Aring
Encoding: 197 197 122
Width: 1241
GlyphClass: 2
Flags: W
LayerCount: 2
Fore
SplineSet
911 426 m 1,0,-1
 367 426 l 1,1,-1
 242 0 l 1,2,-1
 150 0 l 1,3,-1
 567 1456 l 1,4,-1
 707 1456 l 1,5,-1
 1126 0 l 1,6,-1
 1032 0 l 1,7,-1
 911 426 l 1,0,-1
637 1366 m 1,8,-1
 395 528 l 1,9,-1
 881 528 l 1,10,-1
 637 1366 l 1,8,-1
797 1892 m 256,11,12
 797 1826 797 1826 749.5 1779.5 c 128,-1,13
 702 1733 702 1733 635 1733 c 0,14,15
 569 1733 569 1733 524 1780 c 128,-1,16
 479 1827 479 1827 479 1892 c 256,17,18
 479 1958 479 1958 524 2003 c 128,-1,19
 569 2048 569 2048 635 2048 c 0,20,21
 703 2048 703 2048 750 2003 c 128,-1,22
 797 1958 797 1958 797 1892 c 256,11,12
518 1892 m 0,23,24
 518 1839 518 1839 554 1805.5 c 128,-1,25
 590 1772 590 1772 635 1772 c 0,26,27
 688 1772 688 1772 722 1805.5 c 128,-1,28
 756 1839 756 1839 756 1892 c 0,29,30
 756 1939 756 1939 722 1975 c 128,-1,31
 688 2011 688 2011 635 2011 c 0,32,33
 590 2011 590 2011 554 1975 c 128,-1,34
 518 1939 518 1939 518 1892 c 0,23,24
EndSplineSet
Validated: 1
EndChar

StartChar: AE
Encoding: 198 198 123
Width: 1347
GlyphClass: 2
Flags: W
LayerCount: 2
Fore
SplineSet
1257 1352 m 1,0,-1
 782 1352 l 1,1,-1
 782 528 l 1,2,-1
 1257 528 l 1,3,-1
 1257 426 l 1,4,-1
 782 426 l 1,5,-1
 782 104 l 1,6,-1
 1257 104 l 1,7,-1
 1257 0 l 1,8,-1
 680 0 l 1,9,-1
 680 426 l 1,10,-1
 365 426 l 1,11,-1
 242 0 l 1,12,-1
 147 0 l 1,13,-1
 567 1456 l 1,14,-1
 1257 1456 l 1,15,-1
 1257 1352 l 1,0,-1
680 1352 m 1,16,-1
 637 1352 l 1,17,-1
 393 528 l 1,18,-1
 680 528 l 1,19,-1
 680 1352 l 1,16,-1
EndSplineSet
Validated: 1
EndChar

StartChar: Ccedilla
Encoding: 199 199 124
Width: 1419
GlyphClass: 2
Flags: W
LayerCount: 2
Fore
SplineSet
1311 158 m 1,0,1
 1213 86 1213 86 1087 43 c 128,-1,2
 961 0 961 0 797 0 c 1,3,-1
 797 -147 l 1,4,5
 850 -182 850 -182 893 -240.5 c 128,-1,6
 936 -299 936 -299 936 -362 c 0,7,8
 936 -403 936 -403 919.5 -440 c 128,-1,9
 903 -477 903 -477 875.5 -507 c 128,-1,10
 848 -537 848 -537 811 -557.5 c 128,-1,11
 774 -578 774 -578 731 -586 c 1,12,-1
 731 -508 l 1,13,14
 788 -496 788 -496 825 -456 c 128,-1,15
 862 -416 862 -416 862 -362 c 256,16,17
 862 -309 862 -309 825 -267 c 128,-1,18
 788 -225 788 -225 731 -213 c 1,19,-1
 731 8 l 1,20,21
 602 35 602 35 491.5 102.5 c 128,-1,22
 381 170 381 170 301 265 c 128,-1,23
 221 360 221 360 176 479 c 128,-1,24
 131 598 131 598 131 727 c 0,25,26
 131 877 131 877 188.5 1010 c 128,-1,27
 246 1143 246 1143 344 1242 c 128,-1,28
 442 1341 442 1341 574.5 1398.5 c 128,-1,29
 707 1456 707 1456 858 1456 c 0,30,31
 987 1456 987 1456 1099.5 1415 c 128,-1,32
 1212 1374 1212 1374 1311 1298 c 1,33,-1
 1237 1223 l 1,34,35
 1159 1282 1159 1282 1065 1317 c 128,-1,36
 971 1352 971 1352 858 1352 c 0,37,38
 729 1352 729 1352 615.5 1302.5 c 128,-1,39
 502 1253 502 1253 418 1168 c 128,-1,40
 334 1083 334 1083 285 969.5 c 128,-1,41
 236 856 236 856 236 727 c 256,42,43
 236 598 236 598 285 484.5 c 128,-1,44
 334 371 334 371 418 287 c 128,-1,45
 502 203 502 203 615.5 153.5 c 128,-1,46
 729 104 729 104 858 104 c 0,47,48
 960 104 960 104 1059.5 142 c 128,-1,49
 1159 180 1159 180 1237 233 c 1,50,-1
 1311 158 l 1,0,1
EndSplineSet
Validated: 1
EndChar

StartChar: Egrave
Encoding: 200 200 125
Width: 1280
GlyphClass: 2
Flags: W
LayerCount: 2
Fore
SplineSet
1186 1352 m 1,0,-1
 299 1352 l 1,1,-1
 299 528 l 1,2,-1
 1186 528 l 1,3,-1
 1186 426 l 1,4,-1
 299 426 l 1,5,-1
 299 104 l 1,6,-1
 1186 104 l 1,7,-1
 1186 0 l 1,8,-1
 197 0 l 1,9,-1
 197 1456 l 1,10,-1
 1186 1456 l 1,11,-1
 1186 1352 l 1,0,-1
590 1921 m 1,12,13
 606 1890 606 1890 618.5 1867.5 c 128,-1,14
 631 1845 631 1845 647 1817 c 2,15,-1
 696 1733 l 1,16,-1
 649 1733 l 1,17,18
 629 1760 629 1760 613.5 1782 c 128,-1,19
 598 1804 598 1804 580 1831 c 2,20,-1
 520 1921 l 1,21,-1
 590 1921 l 1,12,13
EndSplineSet
Validated: 1
EndChar

StartChar: Eacute
Encoding: 201 201 126
Width: 1280
GlyphClass: 2
Flags: W
LayerCount: 2
Fore
SplineSet
1186 1352 m 1,0,-1
 299 1352 l 1,1,-1
 299 528 l 1,2,-1
 1186 528 l 1,3,-1
 1186 426 l 1,4,-1
 299 426 l 1,5,-1
 299 104 l 1,6,-1
 1186 104 l 1,7,-1
 1186 0 l 1,8,-1
 197 0 l 1,9,-1
 197 1456 l 1,10,-1
 1186 1456 l 1,11,-1
 1186 1352 l 1,0,-1
788 1921 m 1,12,-1
 864 1921 l 1,13,14
 823 1866 823 1866 794.5 1827 c 128,-1,15
 766 1788 766 1788 727 1733 c 1,16,-1
 686 1733 l 1,17,-1
 788 1921 l 1,12,-1
EndSplineSet
Validated: 1
EndChar

StartChar: Ecircumflex
Encoding: 202 202 127
Width: 1280
GlyphClass: 2
Flags: W
LayerCount: 2
Fore
SplineSet
1186 1352 m 1,0,-1
 299 1352 l 1,1,-1
 299 528 l 1,2,-1
 1186 528 l 1,3,-1
 1186 426 l 1,4,-1
 299 426 l 1,5,-1
 299 104 l 1,6,-1
 1186 104 l 1,7,-1
 1186 0 l 1,8,-1
 197 0 l 1,9,-1
 197 1456 l 1,10,-1
 1186 1456 l 1,11,-1
 1186 1352 l 1,0,-1
739 1921 m 1,12,13
 776 1872 776 1872 811 1826 c 128,-1,14
 846 1780 846 1780 881 1733 c 1,15,-1
 809 1733 l 1,16,-1
 690 1892 l 1,17,-1
 569 1733 l 1,18,-1
 500 1733 l 1,19,20
 514 1749 514 1749 522 1759 c 128,-1,21
 530 1769 530 1769 536.5 1778.5 c 128,-1,22
 543 1788 543 1788 549 1797 c 128,-1,23
 555 1806 555 1806 565 1821 c 2,24,-1
 639 1921 l 1,25,-1
 739 1921 l 1,12,13
EndSplineSet
Validated: 1
EndChar

StartChar: Edieresis
Encoding: 203 203 128
Width: 1280
GlyphClass: 2
Flags: W
LayerCount: 2
Fore
SplineSet
1186 1352 m 1,0,-1
 299 1352 l 1,1,-1
 299 528 l 1,2,-1
 1186 528 l 1,3,-1
 1186 426 l 1,4,-1
 299 426 l 1,5,-1
 299 104 l 1,6,-1
 1186 104 l 1,7,-1
 1186 0 l 1,8,-1
 197 0 l 1,9,-1
 197 1456 l 1,10,-1
 1186 1456 l 1,11,-1
 1186 1352 l 1,0,-1
1016 1921 m 0,12,13
 1053 1921 1053 1921 1079.5 1896.5 c 128,-1,14
 1106 1872 1106 1872 1106 1835 c 256,15,16
 1106 1798 1106 1798 1079.5 1771.5 c 128,-1,17
 1053 1745 1053 1745 1016 1745 c 0,18,19
 981 1745 981 1745 954.5 1771.5 c 128,-1,20
 928 1798 928 1798 928 1835 c 256,21,22
 928 1872 928 1872 954.5 1896.5 c 128,-1,23
 981 1921 981 1921 1016 1921 c 0,12,13
365 1921 m 0,24,25
 402 1921 402 1921 428.5 1896.5 c 128,-1,26
 455 1872 455 1872 455 1835 c 256,27,28
 455 1798 455 1798 428 1771.5 c 128,-1,29
 401 1745 401 1745 365 1745 c 0,30,31
 330 1745 330 1745 303 1771.5 c 128,-1,32
 276 1798 276 1798 276 1835 c 256,33,34
 276 1872 276 1872 303 1896.5 c 128,-1,35
 330 1921 330 1921 365 1921 c 0,24,25
EndSplineSet
Validated: 1
EndChar

StartChar: Igrave
Encoding: 204 204 129
Width: 507
GlyphClass: 2
Flags: W
LayerCount: 2
Fore
SplineSet
315 1456 m 1,0,-1
 315 0 l 1,1,-1
 211 0 l 1,2,-1
 211 1456 l 1,3,-1
 315 1456 l 1,0,-1
162 1921 m 1,4,5
 178 1890 178 1890 191.5 1867.5 c 128,-1,6
 205 1845 205 1845 221 1817 c 0,7,8
 231 1799 231 1799 243.5 1775 c 128,-1,9
 256 1751 256 1751 266 1733 c 1,10,-1
 223 1733 l 1,11,-1
 154 1831 l 1,12,-1
 154 1829 l 1,13,-1
 92 1921 l 1,14,-1
 162 1921 l 1,4,5
EndSplineSet
Validated: 1
EndChar

StartChar: Iacute
Encoding: 205 205 130
Width: 507
GlyphClass: 2
Flags: W
LayerCount: 2
Fore
SplineSet
311 1456 m 1,0,-1
 311 0 l 1,1,-1
 207 0 l 1,2,-1
 207 1456 l 1,3,-1
 311 1456 l 1,0,-1
358 1921 m 1,4,-1
 432 1921 l 1,5,-1
 301 1733 l 1,6,-1
 256 1733 l 1,7,-1
 358 1921 l 1,4,-1
EndSplineSet
Validated: 1
EndChar

StartChar: Icircumflex
Encoding: 206 206 131
Width: 507
GlyphClass: 2
Flags: W
LayerCount: 2
Fore
SplineSet
315 1456 m 1,0,-1
 315 0 l 1,1,-1
 209 0 l 1,2,-1
 209 1456 l 1,3,-1
 315 1456 l 1,0,-1
313 1921 m 1,4,5
 348 1872 348 1872 383 1826 c 128,-1,6
 418 1780 418 1780 453 1733 c 1,7,-1
 381 1733 l 1,8,-1
 262 1892 l 1,9,-1
 141 1733 l 1,10,-1
 72 1733 l 1,11,12
 86 1749 86 1749 94 1759 c 128,-1,13
 102 1769 102 1769 108.5 1778.5 c 128,-1,14
 115 1788 115 1788 121 1797 c 128,-1,15
 127 1806 127 1806 137 1821 c 2,16,-1
 211 1921 l 1,17,-1
 313 1921 l 1,4,5
EndSplineSet
Validated: 1
EndChar

StartChar: Idieresis
Encoding: 207 207 132
Width: 507
GlyphClass: 2
Flags: W
LayerCount: 2
Fore
SplineSet
315 1456 m 1,0,-1
 315 0 l 1,1,-1
 209 0 l 1,2,-1
 209 1456 l 1,3,-1
 315 1456 l 1,0,-1
-63 1921 m 0,4,5
 -26 1921 -26 1921 0.5 1896.5 c 128,-1,6
 27 1872 27 1872 27 1835 c 256,7,8
 27 1798 27 1798 0 1771.5 c 128,-1,9
 -27 1745 -27 1745 -63 1745 c 0,10,11
 -98 1745 -98 1745 -125 1771.5 c 128,-1,12
 -152 1798 -152 1798 -152 1835 c 256,13,14
 -152 1872 -152 1872 -125 1896.5 c 128,-1,15
 -98 1921 -98 1921 -63 1921 c 0,4,5
588 1921 m 0,16,17
 625 1921 625 1921 651.5 1896.5 c 128,-1,18
 678 1872 678 1872 678 1835 c 256,19,20
 678 1798 678 1798 651.5 1771.5 c 128,-1,21
 625 1745 625 1745 588 1745 c 0,22,23
 553 1745 553 1745 526.5 1771.5 c 128,-1,24
 500 1798 500 1798 500 1835 c 256,25,26
 500 1872 500 1872 526.5 1896.5 c 128,-1,27
 553 1921 553 1921 588 1921 c 0,16,17
EndSplineSet
Validated: 1
EndChar

StartChar: Ntilde
Encoding: 209 209 133
Width: 1382
GlyphClass: 2
Flags: W
LayerCount: 2
Fore
SplineSet
1227 0 m 1,0,-1
 1092 0 l 1,1,-1
 301 1325 l 1,2,-1
 301 0 l 1,3,-1
 197 0 l 1,4,-1
 197 1456 l 1,5,-1
 332 1456 l 1,6,-1
 1124 129 l 1,7,-1
 1124 1456 l 1,8,-1
 1227 1456 l 1,9,-1
 1227 0 l 1,0,-1
852 1804 m 0,10,11
 922 1804 922 1804 947.5 1840 c 128,-1,12
 973 1876 973 1876 979 1923 c 1,13,-1
 1049 1923 l 1,14,15
 1039 1837 1039 1837 987.5 1787 c 128,-1,16
 936 1737 936 1737 866 1733 c 0,17,18
 817 1733 817 1733 772 1755.5 c 128,-1,19
 727 1778 727 1778 692 1802 c 2,20,-1
 670 1812 l 1,21,-1
 674 1812 l 1,22,23
 645 1828 645 1828 619.5 1840.5 c 128,-1,24
 594 1853 594 1853 569 1853 c 0,25,26
 497 1853 497 1853 471.5 1819.5 c 128,-1,27
 446 1786 446 1786 440 1733 c 1,28,-1
 373 1733 l 1,29,30
 385 1819 385 1819 435 1869 c 128,-1,31
 485 1919 485 1919 555 1923 c 0,32,33
 598 1919 598 1919 641 1898.5 c 128,-1,34
 684 1878 684 1878 723 1851 c 0,35,36
 758 1833 758 1833 787.5 1818.5 c 128,-1,37
 817 1804 817 1804 852 1804 c 0,10,11
EndSplineSet
Validated: 1
EndChar

StartChar: Ograve
Encoding: 210 210 134
Width: 1660
GlyphClass: 2
Flags: W
LayerCount: 2
Fore
SplineSet
1583 727 m 0,0,1
 1583 575 1583 575 1525.5 443 c 128,-1,2
 1468 311 1468 311 1369 213 c 128,-1,3
 1270 115 1270 115 1137 57.5 c 128,-1,4
 1004 0 1004 0 854 0 c 0,5,6
 702 0 702 0 570 57.5 c 128,-1,7
 438 115 438 115 340 213 c 128,-1,8
 242 311 242 311 184.5 443 c 128,-1,9
 127 575 127 575 127 727 c 0,10,11
 127 877 127 877 184.5 1010 c 128,-1,12
 242 1143 242 1143 340 1242 c 128,-1,13
 438 1341 438 1341 570 1398.5 c 128,-1,14
 702 1456 702 1456 854 1456 c 0,15,16
 1004 1456 1004 1456 1137 1398.5 c 128,-1,17
 1270 1341 1270 1341 1369 1242 c 128,-1,18
 1468 1143 1468 1143 1525.5 1010 c 128,-1,19
 1583 877 1583 877 1583 727 c 0,0,1
231 727 m 256,20,21
 231 598 231 598 280.5 484.5 c 128,-1,22
 330 371 330 371 414 287 c 128,-1,23
 498 203 498 203 611.5 153.5 c 128,-1,24
 725 104 725 104 854 104 c 256,25,26
 983 104 983 104 1096.5 153.5 c 128,-1,27
 1210 203 1210 203 1295 287 c 128,-1,28
 1380 371 1380 371 1429.5 484.5 c 128,-1,29
 1479 598 1479 598 1479 727 c 256,30,31
 1479 856 1479 856 1429.5 969.5 c 128,-1,32
 1380 1083 1380 1083 1295 1168 c 128,-1,33
 1210 1253 1210 1253 1096.5 1302.5 c 128,-1,34
 983 1352 983 1352 854 1352 c 256,35,36
 725 1352 725 1352 611.5 1302.5 c 128,-1,37
 498 1253 498 1253 414 1168 c 128,-1,38
 330 1083 330 1083 280.5 969.5 c 128,-1,39
 231 856 231 856 231 727 c 256,20,21
756 1921 m 1,40,41
 772 1890 772 1890 783.5 1867.5 c 128,-1,42
 795 1845 795 1845 811 1817 c 2,43,-1
 860 1733 l 1,44,-1
 813 1733 l 1,45,46
 793 1760 793 1760 777.5 1782 c 128,-1,47
 762 1804 762 1804 743 1831 c 2,48,-1
 686 1921 l 1,49,-1
 756 1921 l 1,40,41
EndSplineSet
Validated: 1
EndChar

StartChar: Oacute
Encoding: 211 211 135
Width: 1660
GlyphClass: 2
Flags: W
LayerCount: 2
Fore
SplineSet
1583 727 m 0,0,1
 1583 575 1583 575 1525.5 443 c 128,-1,2
 1468 311 1468 311 1369 213 c 128,-1,3
 1270 115 1270 115 1137 57.5 c 128,-1,4
 1004 0 1004 0 854 0 c 0,5,6
 702 0 702 0 570 57.5 c 128,-1,7
 438 115 438 115 340 213 c 128,-1,8
 242 311 242 311 184.5 443 c 128,-1,9
 127 575 127 575 127 727 c 0,10,11
 127 877 127 877 184.5 1010 c 128,-1,12
 242 1143 242 1143 340 1242 c 128,-1,13
 438 1341 438 1341 570 1398.5 c 128,-1,14
 702 1456 702 1456 854 1456 c 0,15,16
 1004 1456 1004 1456 1137 1398.5 c 128,-1,17
 1270 1341 1270 1341 1369 1242 c 128,-1,18
 1468 1143 1468 1143 1525.5 1010 c 128,-1,19
 1583 877 1583 877 1583 727 c 0,0,1
231 727 m 256,20,21
 231 598 231 598 280.5 484.5 c 128,-1,22
 330 371 330 371 414 287 c 128,-1,23
 498 203 498 203 611.5 153.5 c 128,-1,24
 725 104 725 104 854 104 c 256,25,26
 983 104 983 104 1096.5 153.5 c 128,-1,27
 1210 203 1210 203 1295 287 c 128,-1,28
 1380 371 1380 371 1429.5 484.5 c 128,-1,29
 1479 598 1479 598 1479 727 c 256,30,31
 1479 856 1479 856 1429.5 969.5 c 128,-1,32
 1380 1083 1380 1083 1295 1168 c 128,-1,33
 1210 1253 1210 1253 1096.5 1302.5 c 128,-1,34
 983 1352 983 1352 854 1352 c 256,35,36
 725 1352 725 1352 611.5 1302.5 c 128,-1,37
 498 1253 498 1253 414 1168 c 128,-1,38
 330 1083 330 1083 280.5 969.5 c 128,-1,39
 231 856 231 856 231 727 c 256,20,21
952 1921 m 1,40,-1
 1026 1921 l 1,41,-1
 897 1733 l 1,42,-1
 850 1733 l 1,43,-1
 952 1921 l 1,40,-1
EndSplineSet
Validated: 1
EndChar

StartChar: Ocircumflex
Encoding: 212 212 136
Width: 1660
GlyphClass: 2
Flags: W
LayerCount: 2
Fore
SplineSet
1583 727 m 0,0,1
 1583 575 1583 575 1525.5 443 c 128,-1,2
 1468 311 1468 311 1369 213 c 128,-1,3
 1270 115 1270 115 1137 57.5 c 128,-1,4
 1004 0 1004 0 854 0 c 0,5,6
 702 0 702 0 570 57.5 c 128,-1,7
 438 115 438 115 340 213 c 128,-1,8
 242 311 242 311 184.5 443 c 128,-1,9
 127 575 127 575 127 727 c 0,10,11
 127 877 127 877 184.5 1010 c 128,-1,12
 242 1143 242 1143 340 1242 c 128,-1,13
 438 1341 438 1341 570 1398.5 c 128,-1,14
 702 1456 702 1456 854 1456 c 0,15,16
 1004 1456 1004 1456 1137 1398.5 c 128,-1,17
 1270 1341 1270 1341 1369 1242 c 128,-1,18
 1468 1143 1468 1143 1525.5 1010 c 128,-1,19
 1583 877 1583 877 1583 727 c 0,0,1
231 727 m 256,20,21
 231 598 231 598 280.5 484.5 c 128,-1,22
 330 371 330 371 414 287 c 128,-1,23
 498 203 498 203 611.5 153.5 c 128,-1,24
 725 104 725 104 854 104 c 256,25,26
 983 104 983 104 1096.5 153.5 c 128,-1,27
 1210 203 1210 203 1295 287 c 128,-1,28
 1380 371 1380 371 1429.5 484.5 c 128,-1,29
 1479 598 1479 598 1479 727 c 256,30,31
 1479 856 1479 856 1429.5 969.5 c 128,-1,32
 1380 1083 1380 1083 1295 1168 c 128,-1,33
 1210 1253 1210 1253 1096.5 1302.5 c 128,-1,34
 983 1352 983 1352 854 1352 c 256,35,36
 725 1352 725 1352 611.5 1302.5 c 128,-1,37
 498 1253 498 1253 414 1168 c 128,-1,38
 330 1083 330 1083 280.5 969.5 c 128,-1,39
 231 856 231 856 231 727 c 256,20,21
905 1921 m 1,40,41
 940 1872 940 1872 975 1826 c 128,-1,42
 1010 1780 1010 1780 1047 1733 c 1,43,-1
 975 1733 l 1,44,-1
 854 1892 l 1,45,-1
 733 1733 l 1,46,-1
 664 1733 l 1,47,48
 678 1749 678 1749 686 1759 c 128,-1,49
 694 1769 694 1769 700.5 1778.5 c 128,-1,50
 707 1788 707 1788 713 1797 c 128,-1,51
 719 1806 719 1806 729 1821 c 2,52,-1
 803 1921 l 1,53,-1
 905 1921 l 1,40,41
EndSplineSet
Validated: 1
EndChar

StartChar: Otilde
Encoding: 213 213 137
Width: 1660
GlyphClass: 2
Flags: W
LayerCount: 2
Fore
SplineSet
1583 727 m 0,0,1
 1583 575 1583 575 1525.5 443 c 128,-1,2
 1468 311 1468 311 1369 213 c 128,-1,3
 1270 115 1270 115 1137 57.5 c 128,-1,4
 1004 0 1004 0 854 0 c 0,5,6
 702 0 702 0 570 57.5 c 128,-1,7
 438 115 438 115 340 213 c 128,-1,8
 242 311 242 311 184.5 443 c 128,-1,9
 127 575 127 575 127 727 c 0,10,11
 127 877 127 877 184.5 1010 c 128,-1,12
 242 1143 242 1143 340 1242 c 128,-1,13
 438 1341 438 1341 570 1398.5 c 128,-1,14
 702 1456 702 1456 854 1456 c 0,15,16
 1004 1456 1004 1456 1137 1398.5 c 128,-1,17
 1270 1341 1270 1341 1369 1242 c 128,-1,18
 1468 1143 1468 1143 1525.5 1010 c 128,-1,19
 1583 877 1583 877 1583 727 c 0,0,1
231 727 m 256,20,21
 231 598 231 598 280.5 484.5 c 128,-1,22
 330 371 330 371 414 287 c 128,-1,23
 498 203 498 203 611.5 153.5 c 128,-1,24
 725 104 725 104 854 104 c 256,25,26
 983 104 983 104 1096.5 153.5 c 128,-1,27
 1210 203 1210 203 1295 287 c 128,-1,28
 1380 371 1380 371 1429.5 484.5 c 128,-1,29
 1479 598 1479 598 1479 727 c 256,30,31
 1479 856 1479 856 1429.5 969.5 c 128,-1,32
 1380 1083 1380 1083 1295 1168 c 128,-1,33
 1210 1253 1210 1253 1096.5 1302.5 c 128,-1,34
 983 1352 983 1352 854 1352 c 256,35,36
 725 1352 725 1352 611.5 1302.5 c 128,-1,37
 498 1253 498 1253 414 1168 c 128,-1,38
 330 1083 330 1083 280.5 969.5 c 128,-1,39
 231 856 231 856 231 727 c 256,20,21
995 1804 m 0,40,41
 1065 1804 1065 1804 1090.5 1840 c 128,-1,42
 1116 1876 1116 1876 1122 1923 c 1,43,-1
 1192 1923 l 1,44,45
 1182 1837 1182 1837 1130.5 1787 c 128,-1,46
 1079 1737 1079 1737 1010 1733 c 0,47,48
 959 1733 959 1733 914.5 1756.5 c 128,-1,49
 870 1780 870 1780 834 1802 c 2,50,-1
 819 1810 l 1,51,-1
 823 1808 l 1,52,53
 792 1826 792 1826 763.5 1839.5 c 128,-1,54
 735 1853 735 1853 713 1853 c 0,55,56
 641 1853 641 1853 615.5 1819.5 c 128,-1,57
 590 1786 590 1786 584 1733 c 1,58,-1
 516 1733 l 1,59,60
 528 1819 528 1819 578.5 1869 c 128,-1,61
 629 1919 629 1919 698 1923 c 0,62,63
 741 1919 741 1919 784 1898.5 c 128,-1,64
 827 1878 827 1878 866 1851 c 0,65,66
 901 1833 901 1833 930.5 1818.5 c 128,-1,67
 960 1804 960 1804 995 1804 c 0,40,41
EndSplineSet
Validated: 1
EndChar

StartChar: Odieresis
Encoding: 214 214 138
Width: 1660
GlyphClass: 2
Flags: W
LayerCount: 2
Fore
SplineSet
1583 727 m 0,0,1
 1583 575 1583 575 1525.5 443 c 128,-1,2
 1468 311 1468 311 1369 213 c 128,-1,3
 1270 115 1270 115 1137 57.5 c 128,-1,4
 1004 0 1004 0 854 0 c 0,5,6
 702 0 702 0 570 57.5 c 128,-1,7
 438 115 438 115 340 213 c 128,-1,8
 242 311 242 311 184.5 443 c 128,-1,9
 127 575 127 575 127 727 c 0,10,11
 127 877 127 877 184.5 1010 c 128,-1,12
 242 1143 242 1143 340 1242 c 128,-1,13
 438 1341 438 1341 570 1398.5 c 128,-1,14
 702 1456 702 1456 854 1456 c 0,15,16
 1004 1456 1004 1456 1137 1398.5 c 128,-1,17
 1270 1341 1270 1341 1369 1242 c 128,-1,18
 1468 1143 1468 1143 1525.5 1010 c 128,-1,19
 1583 877 1583 877 1583 727 c 0,0,1
231 727 m 256,20,21
 231 598 231 598 280.5 484.5 c 128,-1,22
 330 371 330 371 414 287 c 128,-1,23
 498 203 498 203 611.5 153.5 c 128,-1,24
 725 104 725 104 854 104 c 256,25,26
 983 104 983 104 1096.5 153.5 c 128,-1,27
 1210 203 1210 203 1295 287 c 128,-1,28
 1380 371 1380 371 1429.5 484.5 c 128,-1,29
 1479 598 1479 598 1479 727 c 256,30,31
 1479 856 1479 856 1429.5 969.5 c 128,-1,32
 1380 1083 1380 1083 1295 1168 c 128,-1,33
 1210 1253 1210 1253 1096.5 1302.5 c 128,-1,34
 983 1352 983 1352 854 1352 c 256,35,36
 725 1352 725 1352 611.5 1302.5 c 128,-1,37
 498 1253 498 1253 414 1168 c 128,-1,38
 330 1083 330 1083 280.5 969.5 c 128,-1,39
 231 856 231 856 231 727 c 256,20,21
532 1921 m 0,40,41
 567 1921 567 1921 592.5 1896.5 c 128,-1,42
 618 1872 618 1872 618 1835 c 256,43,44
 618 1798 618 1798 592.5 1771.5 c 128,-1,45
 567 1745 567 1745 532 1745 c 0,46,47
 493 1745 493 1745 466.5 1771.5 c 128,-1,48
 440 1798 440 1798 440 1835 c 256,49,50
 440 1872 440 1872 466.5 1896.5 c 128,-1,51
 493 1921 493 1921 532 1921 c 0,40,41
1180 1921 m 0,52,53
 1217 1921 1217 1921 1243.5 1896.5 c 128,-1,54
 1270 1872 1270 1872 1270 1835 c 256,55,56
 1270 1798 1270 1798 1243.5 1771.5 c 128,-1,57
 1217 1745 1217 1745 1180 1745 c 0,58,59
 1145 1745 1145 1745 1118.5 1771.5 c 128,-1,60
 1092 1798 1092 1798 1092 1835 c 256,61,62
 1092 1872 1092 1872 1118.5 1896.5 c 128,-1,63
 1145 1921 1145 1921 1180 1921 c 0,52,53
EndSplineSet
Validated: 1
EndChar

StartChar: multiply
Encoding: 215 215 139
Width: 878
GlyphClass: 2
Flags: W
LayerCount: 2
Fore
SplineSet
227 772 m 1,0,-1
 451 549 l 1,1,-1
 676 772 l 1,2,-1
 748 700 l 1,3,-1
 524 475 l 1,4,-1
 748 250 l 1,5,-1
 676 176 l 1,6,-1
 451 399 l 1,7,-1
 227 176 l 1,8,-1
 156 250 l 1,9,-1
 379 477 l 1,10,-1
 156 700 l 1,11,-1
 227 772 l 1,0,-1
EndSplineSet
Validated: 1
EndChar

StartChar: Oslash
Encoding: 216 216 140
Width: 1660
GlyphClass: 2
Flags: W
LayerCount: 2
Fore
SplineSet
1165 1591 m 1,0,-1
 1114 1411 l 1,1,2
 1216 1366 1216 1366 1302.5 1295.5 c 128,-1,3
 1389 1225 1389 1225 1451 1136 c 128,-1,4
 1513 1047 1513 1047 1548 942.5 c 128,-1,5
 1583 838 1583 838 1583 727 c 0,6,7
 1583 575 1583 575 1525.5 443 c 128,-1,8
 1468 311 1468 311 1369 213 c 128,-1,9
 1270 115 1270 115 1137 57.5 c 128,-1,10
 1004 0 1004 0 854 0 c 0,11,12
 827 0 827 0 793.5 3 c 128,-1,13
 760 6 760 6 694 16 c 1,14,15
 684 -25 684 -25 668.5 -71 c 128,-1,16
 653 -117 653 -117 641 -160 c 1,17,18
 610 -152 610 -152 588.5 -147.5 c 128,-1,19
 567 -143 567 -143 541 -135 c 1,20,-1
 592 45 l 1,21,22
 490 90 490 90 404.5 159.5 c 128,-1,23
 319 229 319 229 258 318.5 c 128,-1,24
 197 408 197 408 162 512 c 128,-1,25
 127 616 127 616 127 727 c 0,26,27
 127 877 127 877 184.5 1010 c 128,-1,28
 242 1143 242 1143 340 1242 c 128,-1,29
 438 1341 438 1341 570 1398.5 c 128,-1,30
 702 1456 702 1456 854 1456 c 0,31,32
 883 1456 883 1456 924 1452 c 128,-1,33
 965 1448 965 1448 1014 1440 c 1,34,-1
 1067 1616 l 1,35,-1
 1165 1591 l 1,0,-1
854 104 m 2,36,37
 983 104 983 104 1096.5 153.5 c 128,-1,38
 1210 203 1210 203 1295 287 c 128,-1,39
 1380 371 1380 371 1429.5 484.5 c 128,-1,40
 1479 598 1479 598 1479 727 c 0,41,42
 1479 817 1479 817 1449 903 c 128,-1,43
 1419 989 1419 989 1367 1064 c 128,-1,44
 1315 1139 1315 1139 1241 1201.5 c 128,-1,45
 1167 1264 1167 1264 1079 1307 c 1,46,-1
 727 119 l 1,47,48
 772 109 772 109 794.5 106.5 c 128,-1,49
 817 104 817 104 840 104 c 2,50,-1
 854 104 l 2,36,37
231 727 m 0,51,52
 231 637 231 637 260 551 c 128,-1,53
 289 465 289 465 341 390 c 128,-1,54
 393 315 393 315 467 254 c 128,-1,55
 541 193 541 193 629 150 c 1,56,-1
 983 1343 l 1,57,58
 979 1343 979 1343 964.5 1344.5 c 128,-1,59
 950 1346 950 1346 940 1346 c 0,60,61
 920 1350 920 1350 894 1351 c 128,-1,62
 868 1352 868 1352 854 1352 c 0,63,64
 725 1352 725 1352 611.5 1302.5 c 128,-1,65
 498 1253 498 1253 414 1168 c 128,-1,66
 330 1083 330 1083 280.5 969.5 c 128,-1,67
 231 856 231 856 231 727 c 0,51,52
EndSplineSet
Validated: 1
EndChar

StartChar: Ugrave
Encoding: 217 217 141
Width: 1259
GlyphClass: 2
Flags: W
LayerCount: 2
Fore
SplineSet
1061 1456 m 1,0,-1
 1165 1456 l 1,1,-1
 1165 516 l 2,2,3
 1165 410 1165 410 1124 315.5 c 128,-1,4
 1083 221 1083 221 1012.5 151.5 c 128,-1,5
 942 82 942 82 849 41 c 128,-1,6
 756 0 756 0 649 0 c 256,7,8
 543 0 543 0 448.5 41 c 128,-1,9
 354 82 354 82 283.5 151.5 c 128,-1,10
 213 221 213 221 172 315.5 c 128,-1,11
 131 410 131 410 131 516 c 2,12,-1
 131 1456 l 1,13,-1
 236 1456 l 1,14,-1
 236 516 l 2,15,16
 236 432 236 432 268.5 357.5 c 128,-1,17
 301 283 301 283 358.5 226.5 c 128,-1,18
 416 170 416 170 490.5 137 c 128,-1,19
 565 104 565 104 649 104 c 0,20,21
 731 104 731 104 806 137 c 128,-1,22
 881 170 881 170 938 226.5 c 128,-1,23
 995 283 995 283 1028 357.5 c 128,-1,24
 1061 432 1061 432 1061 516 c 2,25,-1
 1061 1456 l 1,0,-1
547 1921 m 1,26,27
 563 1890 563 1890 576.5 1867.5 c 128,-1,28
 590 1845 590 1845 606 1817 c 0,29,30
 616 1799 616 1799 628.5 1775 c 128,-1,31
 641 1751 641 1751 653 1733 c 1,32,-1
 608 1733 l 1,33,34
 583 1768 583 1768 559 1803.5 c 128,-1,35
 535 1839 535 1839 512 1874 c 2,36,-1
 477 1921 l 1,37,-1
 547 1921 l 1,26,27
EndSplineSet
Validated: 1
EndChar

StartChar: Uacute
Encoding: 218 218 142
Width: 1259
GlyphClass: 2
Flags: W
LayerCount: 2
Fore
SplineSet
1061 1456 m 1,0,-1
 1165 1456 l 1,1,-1
 1165 516 l 2,2,3
 1165 410 1165 410 1124 315.5 c 128,-1,4
 1083 221 1083 221 1012.5 151.5 c 128,-1,5
 942 82 942 82 849 41 c 128,-1,6
 756 0 756 0 649 0 c 256,7,8
 543 0 543 0 448.5 41 c 128,-1,9
 354 82 354 82 283.5 151.5 c 128,-1,10
 213 221 213 221 172 315.5 c 128,-1,11
 131 410 131 410 131 516 c 2,12,-1
 131 1456 l 1,13,-1
 236 1456 l 1,14,-1
 236 516 l 2,15,16
 236 432 236 432 268.5 357.5 c 128,-1,17
 301 283 301 283 358.5 226.5 c 128,-1,18
 416 170 416 170 490.5 137 c 128,-1,19
 565 104 565 104 649 104 c 0,20,21
 731 104 731 104 806 137 c 128,-1,22
 881 170 881 170 938 226.5 c 128,-1,23
 995 283 995 283 1028 357.5 c 128,-1,24
 1061 432 1061 432 1061 516 c 2,25,-1
 1061 1456 l 1,0,-1
748 1921 m 1,26,-1
 819 1921 l 1,27,-1
 688 1733 l 1,28,-1
 643 1733 l 1,29,-1
 748 1921 l 1,26,-1
EndSplineSet
Validated: 1
EndChar

StartChar: Ucircumflex
Encoding: 219 219 143
Width: 1259
GlyphClass: 2
Flags: W
LayerCount: 2
Fore
SplineSet
1061 1456 m 1,0,-1
 1165 1456 l 1,1,-1
 1165 516 l 2,2,3
 1165 410 1165 410 1124 315.5 c 128,-1,4
 1083 221 1083 221 1012.5 151.5 c 128,-1,5
 942 82 942 82 849 41 c 128,-1,6
 756 0 756 0 649 0 c 256,7,8
 543 0 543 0 448.5 41 c 128,-1,9
 354 82 354 82 283.5 151.5 c 128,-1,10
 213 221 213 221 172 315.5 c 128,-1,11
 131 410 131 410 131 516 c 2,12,-1
 131 1456 l 1,13,-1
 236 1456 l 1,14,-1
 236 516 l 2,15,16
 236 432 236 432 268.5 357.5 c 128,-1,17
 301 283 301 283 358.5 226.5 c 128,-1,18
 416 170 416 170 490.5 137 c 128,-1,19
 565 104 565 104 649 104 c 0,20,21
 731 104 731 104 806 137 c 128,-1,22
 881 170 881 170 938 226.5 c 128,-1,23
 995 283 995 283 1028 357.5 c 128,-1,24
 1061 432 1061 432 1061 516 c 2,25,-1
 1061 1456 l 1,0,-1
696 1921 m 1,26,27
 727 1884 727 1884 751.5 1850.5 c 128,-1,28
 776 1817 776 1817 805 1780 c 2,29,-1
 842 1733 l 1,30,-1
 768 1733 l 1,31,-1
 645 1892 l 1,32,-1
 528 1733 l 1,33,-1
 457 1733 l 1,34,-1
 524 1823 l 1,35,-1
 600 1921 l 1,36,-1
 696 1921 l 1,26,27
EndSplineSet
Validated: 1
EndChar

StartChar: Udieresis
Encoding: 220 220 144
Width: 1259
GlyphClass: 2
Flags: W
LayerCount: 2
Fore
SplineSet
1061 1456 m 1,0,-1
 1165 1456 l 1,1,-1
 1165 516 l 2,2,3
 1165 410 1165 410 1124 315.5 c 128,-1,4
 1083 221 1083 221 1012.5 151.5 c 128,-1,5
 942 82 942 82 849 41 c 128,-1,6
 756 0 756 0 649 0 c 256,7,8
 543 0 543 0 448.5 41 c 128,-1,9
 354 82 354 82 283.5 151.5 c 128,-1,10
 213 221 213 221 172 315.5 c 128,-1,11
 131 410 131 410 131 516 c 2,12,-1
 131 1456 l 1,13,-1
 236 1456 l 1,14,-1
 236 516 l 2,15,16
 236 432 236 432 268.5 357.5 c 128,-1,17
 301 283 301 283 358.5 226.5 c 128,-1,18
 416 170 416 170 490.5 137 c 128,-1,19
 565 104 565 104 649 104 c 0,20,21
 731 104 731 104 806 137 c 128,-1,22
 881 170 881 170 938 226.5 c 128,-1,23
 995 283 995 283 1028 357.5 c 128,-1,24
 1061 432 1061 432 1061 516 c 2,25,-1
 1061 1456 l 1,0,-1
324 1921 m 256,26,27
 361 1921 361 1921 386.5 1896.5 c 128,-1,28
 412 1872 412 1872 412 1835 c 256,29,30
 412 1798 412 1798 386 1771.5 c 128,-1,31
 360 1745 360 1745 324 1745 c 256,32,33
 287 1745 287 1745 261.5 1771.5 c 128,-1,34
 236 1798 236 1798 236 1835 c 256,35,36
 236 1872 236 1872 261.5 1896.5 c 128,-1,37
 287 1921 287 1921 324 1921 c 256,26,27
975 1921 m 0,38,39
 1012 1921 1012 1921 1036.5 1896.5 c 128,-1,40
 1061 1872 1061 1872 1061 1835 c 256,41,42
 1061 1798 1061 1798 1036.5 1771.5 c 128,-1,43
 1012 1745 1012 1745 975 1745 c 0,44,45
 936 1745 936 1745 910.5 1771.5 c 128,-1,46
 885 1798 885 1798 885 1835 c 256,47,48
 885 1872 885 1872 910.5 1896.5 c 128,-1,49
 936 1921 936 1921 975 1921 c 0,38,39
EndSplineSet
Validated: 1
EndChar

StartChar: Yacute
Encoding: 221 221 145
Width: 1218
GlyphClass: 2
Flags: W
LayerCount: 2
Fore
SplineSet
575 0 m 1,0,-1
 575 729 l 1,1,-1
 166 1456 l 1,2,-1
 264 1456 l 1,3,-1
 625 815 l 1,4,5
 711 967 711 967 807 1135 c 128,-1,6
 903 1303 903 1303 989 1456 c 1,7,-1
 1090 1456 l 1,8,-1
 678 729 l 1,9,-1
 678 0 l 1,10,-1
 575 0 l 1,0,-1
725 1921 m 1,11,-1
 799 1921 l 1,12,-1
 668 1733 l 1,13,-1
 623 1733 l 1,14,-1
 725 1921 l 1,11,-1
EndSplineSet
Validated: 1
EndChar

StartChar: germandbls
Encoding: 223 223 146
Width: 1427
GlyphClass: 2
Flags: W
LayerCount: 2
Fore
SplineSet
731 139 m 1,0,1
 799 116 799 116 865.5 109 c 128,-1,2
 932 102 932 102 1004 102 c 0,3,4
 1053 102 1053 102 1100 119.5 c 128,-1,5
 1147 137 1147 137 1184 169 c 128,-1,6
 1221 201 1221 201 1243.5 245 c 128,-1,7
 1266 289 1266 289 1266 342 c 0,8,9
 1266 399 1266 399 1245.5 437 c 128,-1,10
 1225 475 1225 475 1190 498.5 c 128,-1,11
 1155 522 1155 522 1111 537.5 c 128,-1,12
 1067 553 1067 553 1018 565 c 0,13,14
 967 579 967 579 915.5 595.5 c 128,-1,15
 864 612 864 612 823 644 c 128,-1,16
 782 676 782 676 756.5 727 c 128,-1,17
 731 778 731 778 731 860 c 0,18,19
 731 907 731 907 747.5 947 c 128,-1,20
 764 987 764 987 786 1026 c 0,21,22
 804 1065 804 1065 822 1104 c 128,-1,23
 840 1143 840 1143 840 1188 c 0,24,25
 840 1286 840 1286 784.5 1352.5 c 128,-1,26
 729 1419 729 1419 631 1419 c 0,27,28
 588 1419 588 1419 555 1398.5 c 128,-1,29
 522 1378 522 1378 498.5 1345.5 c 128,-1,30
 475 1313 475 1313 463 1273 c 128,-1,31
 451 1233 451 1233 451 1194 c 2,32,-1
 451 0 l 1,33,-1
 346 0 l 1,34,-1
 346 870 l 1,35,-1
 123 870 l 1,36,-1
 123 958 l 1,37,-1
 346 958 l 1,38,39
 346 1044 346 1044 350 1140.5 c 128,-1,40
 354 1237 354 1237 380 1317 c 128,-1,41
 406 1397 406 1397 464 1449 c 128,-1,42
 522 1501 522 1501 631 1501 c 0,43,44
 688 1501 688 1501 741.5 1479.5 c 128,-1,45
 795 1458 795 1458 836 1419 c 128,-1,46
 877 1380 877 1380 901.5 1329 c 128,-1,47
 926 1278 926 1278 926 1219 c 0,48,49
 926 1172 926 1172 912.5 1128.5 c 128,-1,50
 899 1085 899 1085 883 1042 c 0,51,52
 867 995 867 995 851.5 948 c 128,-1,53
 836 901 836 901 836 854 c 0,54,55
 836 805 836 805 854 774 c 128,-1,56
 872 743 872 743 903 722.5 c 128,-1,57
 934 702 934 702 975 690 c 128,-1,58
 1016 678 1016 678 1063 666 c 0,59,60
 1116 652 1116 652 1171.5 633 c 128,-1,61
 1227 614 1227 614 1271 580.5 c 128,-1,62
 1315 547 1315 547 1342.5 489.5 c 128,-1,63
 1370 432 1370 432 1370 342 c 0,64,65
 1370 268 1370 268 1339.5 205.5 c 128,-1,66
 1309 143 1309 143 1258.5 97 c 128,-1,67
 1208 51 1208 51 1141.5 25.5 c 128,-1,68
 1075 0 1075 0 1004 0 c 0,69,70
 936 0 936 0 863.5 7 c 128,-1,71
 791 14 791 14 731 33 c 1,72,-1
 731 139 l 1,0,1
EndSplineSet
Validated: 1
EndChar

StartChar: agrave
Encoding: 224 224 147
Width: 997
GlyphClass: 2
Flags: W
LayerCount: 2
Fore
SplineSet
418 1440 m 1,0,1
 434 1411 434 1411 448.5 1383.5 c 128,-1,2
 463 1356 463 1356 479 1331 c 2,3,-1
 526 1243 l 1,4,-1
 477 1243 l 1,5,6
 452 1274 452 1274 434 1301.5 c 128,-1,7
 416 1329 416 1329 401 1352 c 2,8,-1
 342 1440 l 1,9,-1
 418 1440 l 1,0,1
537 958 m 0,10,11
 715 958 715 958 813 851.5 c 128,-1,12
 911 745 911 745 911 569 c 2,13,-1
 911 -2 l 1,14,-1
 821 -2 l 1,15,-1
 803 135 l 1,16,17
 715 69 715 69 630 33.5 c 128,-1,18
 545 -2 545 -2 473 -2 c 0,19,20
 410 -2 410 -2 348.5 15.5 c 128,-1,21
 287 33 287 33 238.5 68.5 c 128,-1,22
 190 104 190 104 160.5 155.5 c 128,-1,23
 131 207 131 207 131 274 c 0,24,25
 131 360 131 360 170 407.5 c 128,-1,26
 209 455 209 455 269.5 479.5 c 128,-1,27
 330 504 330 504 406.5 513 c 128,-1,28
 483 522 483 522 558 533.5 c 128,-1,29
 633 545 633 545 700.5 563.5 c 128,-1,30
 768 582 768 582 811 627 c 1,31,32
 811 729 811 729 743.5 798.5 c 128,-1,33
 676 868 676 868 537 868 c 0,34,35
 504 868 504 868 466 859 c 128,-1,36
 428 850 428 850 393 832.5 c 128,-1,37
 358 815 358 815 330.5 788.5 c 128,-1,38
 303 762 303 762 293 727 c 1,39,-1
 188 727 l 1,40,41
 196 782 196 782 229 826 c 128,-1,42
 262 870 262 870 311 899 c 128,-1,43
 360 928 360 928 419 943 c 128,-1,44
 478 958 478 958 537 958 c 0,10,11
473 76 m 0,45,46
 530 76 530 76 586.5 91 c 128,-1,47
 643 106 643 106 689 137 c 128,-1,48
 735 168 735 168 767 213 c 128,-1,49
 799 258 799 258 811 317 c 1,50,-1
 811 537 l 1,51,52
 774 502 774 502 716.5 485.5 c 128,-1,53
 659 469 659 469 595.5 460 c 128,-1,54
 532 451 532 451 467.5 441.5 c 128,-1,55
 403 432 403 432 352 414.5 c 128,-1,56
 301 397 301 397 268.5 365.5 c 128,-1,57
 236 334 236 334 236 279 c 0,58,59
 236 228 236 228 256 190 c 128,-1,60
 276 152 276 152 309 126 c 128,-1,61
 342 100 342 100 385 88 c 128,-1,62
 428 76 428 76 473 76 c 0,45,46
EndSplineSet
Validated: 1
EndChar

StartChar: aacute
Encoding: 225 225 148
Width: 997
GlyphClass: 2
Flags: W
LayerCount: 2
Fore
SplineSet
623 1440 m 1,0,-1
 696 1440 l 1,1,2
 676 1411 676 1411 660.5 1386.5 c 128,-1,3
 645 1362 645 1362 629.5 1339.5 c 128,-1,4
 614 1317 614 1317 598 1293.5 c 128,-1,5
 582 1270 582 1270 561 1243 c 1,6,-1
 514 1243 l 1,7,-1
 623 1440 l 1,0,-1
537 958 m 0,8,9
 715 958 715 958 813 851.5 c 128,-1,10
 911 745 911 745 911 569 c 2,11,-1
 911 -2 l 1,12,-1
 821 -2 l 1,13,-1
 803 135 l 1,14,15
 715 69 715 69 630 33.5 c 128,-1,16
 545 -2 545 -2 473 -2 c 0,17,18
 410 -2 410 -2 348.5 15.5 c 128,-1,19
 287 33 287 33 238.5 68.5 c 128,-1,20
 190 104 190 104 160.5 155.5 c 128,-1,21
 131 207 131 207 131 274 c 0,22,23
 131 360 131 360 170 407.5 c 128,-1,24
 209 455 209 455 269.5 479.5 c 128,-1,25
 330 504 330 504 406.5 513 c 128,-1,26
 483 522 483 522 558 533.5 c 128,-1,27
 633 545 633 545 700.5 563.5 c 128,-1,28
 768 582 768 582 811 627 c 1,29,30
 811 729 811 729 743.5 798.5 c 128,-1,31
 676 868 676 868 537 868 c 0,32,33
 504 868 504 868 466 859 c 128,-1,34
 428 850 428 850 393 832.5 c 128,-1,35
 358 815 358 815 330.5 788.5 c 128,-1,36
 303 762 303 762 293 727 c 1,37,-1
 188 727 l 1,38,39
 196 782 196 782 229 826 c 128,-1,40
 262 870 262 870 311 899 c 128,-1,41
 360 928 360 928 419 943 c 128,-1,42
 478 958 478 958 537 958 c 0,8,9
473 76 m 0,43,44
 530 76 530 76 586.5 91 c 128,-1,45
 643 106 643 106 689 137 c 128,-1,46
 735 168 735 168 767 213 c 128,-1,47
 799 258 799 258 811 317 c 1,48,-1
 811 537 l 1,49,50
 774 502 774 502 716.5 485.5 c 128,-1,51
 659 469 659 469 595.5 460 c 128,-1,52
 532 451 532 451 467.5 441.5 c 128,-1,53
 403 432 403 432 352 414.5 c 128,-1,54
 301 397 301 397 268.5 365.5 c 128,-1,55
 236 334 236 334 236 279 c 0,56,57
 236 228 236 228 256 190 c 128,-1,58
 276 152 276 152 309 126 c 128,-1,59
 342 100 342 100 385 88 c 128,-1,60
 428 76 428 76 473 76 c 0,43,44
EndSplineSet
Validated: 1
EndChar

StartChar: acircumflex
Encoding: 226 226 149
Width: 997
GlyphClass: 2
Flags: W
LayerCount: 2
Fore
SplineSet
573 1440 m 1,0,1
 610 1389 610 1389 647 1340.5 c 128,-1,2
 684 1292 684 1292 721 1243 c 1,3,-1
 645 1243 l 1,4,-1
 520 1405 l 1,5,-1
 397 1243 l 1,6,-1
 322 1243 l 1,7,8
 345 1272 345 1272 362 1295.5 c 128,-1,9
 379 1319 379 1319 396.5 1341.5 c 128,-1,10
 414 1364 414 1364 430 1387.5 c 128,-1,11
 446 1411 446 1411 469 1440 c 1,12,-1
 573 1440 l 1,0,1
537 958 m 0,13,14
 715 958 715 958 813 851.5 c 128,-1,15
 911 745 911 745 911 569 c 2,16,-1
 911 -2 l 1,17,-1
 821 -2 l 1,18,-1
 803 135 l 1,19,20
 715 69 715 69 630 33.5 c 128,-1,21
 545 -2 545 -2 473 -2 c 0,22,23
 410 -2 410 -2 348.5 15.5 c 128,-1,24
 287 33 287 33 238.5 68.5 c 128,-1,25
 190 104 190 104 160.5 155.5 c 128,-1,26
 131 207 131 207 131 274 c 0,27,28
 131 360 131 360 170 407.5 c 128,-1,29
 209 455 209 455 269.5 479.5 c 128,-1,30
 330 504 330 504 406.5 513 c 128,-1,31
 483 522 483 522 558 533.5 c 128,-1,32
 633 545 633 545 700.5 563.5 c 128,-1,33
 768 582 768 582 811 627 c 1,34,35
 811 729 811 729 743.5 798.5 c 128,-1,36
 676 868 676 868 537 868 c 0,37,38
 504 868 504 868 466 859 c 128,-1,39
 428 850 428 850 393 832.5 c 128,-1,40
 358 815 358 815 330.5 788.5 c 128,-1,41
 303 762 303 762 293 727 c 1,42,-1
 188 727 l 1,43,44
 196 782 196 782 229 826 c 128,-1,45
 262 870 262 870 311 899 c 128,-1,46
 360 928 360 928 419 943 c 128,-1,47
 478 958 478 958 537 958 c 0,13,14
473 76 m 0,48,49
 530 76 530 76 586.5 91 c 128,-1,50
 643 106 643 106 689 137 c 128,-1,51
 735 168 735 168 767 213 c 128,-1,52
 799 258 799 258 811 317 c 1,53,-1
 811 537 l 1,54,55
 774 502 774 502 716.5 485.5 c 128,-1,56
 659 469 659 469 595.5 460 c 128,-1,57
 532 451 532 451 467.5 441.5 c 128,-1,58
 403 432 403 432 352 414.5 c 128,-1,59
 301 397 301 397 268.5 365.5 c 128,-1,60
 236 334 236 334 236 279 c 0,61,62
 236 228 236 228 256 190 c 128,-1,63
 276 152 276 152 309 126 c 128,-1,64
 342 100 342 100 385 88 c 128,-1,65
 428 76 428 76 473 76 c 0,48,49
EndSplineSet
Validated: 1
EndChar

StartChar: atilde
Encoding: 227 227 150
Width: 997
GlyphClass: 2
Flags: W
LayerCount: 2
Fore
SplineSet
666 1315 m 0,0,1
 738 1315 738 1315 763 1352 c 128,-1,2
 788 1389 788 1389 797 1442 c 1,3,-1
 868 1442 l 1,4,5
 858 1354 858 1354 806 1300.5 c 128,-1,6
 754 1247 754 1247 682 1243 c 1,7,-1
 684 1243 l 1,8,9
 633 1243 633 1243 587 1266.5 c 128,-1,10
 541 1290 541 1290 502 1313 c 0,11,12
 467 1336 467 1336 436.5 1352 c 128,-1,13
 406 1368 406 1368 377 1368 c 0,14,15
 301 1368 301 1368 275.5 1332 c 128,-1,16
 250 1296 250 1296 244 1243 c 1,17,-1
 172 1243 l 1,18,19
 182 1331 182 1331 234.5 1384.5 c 128,-1,20
 287 1438 287 1438 358 1442 c 0,21,22
 405 1438 405 1438 451.5 1414.5 c 128,-1,23
 498 1391 498 1391 537 1368 c 0,24,25
 572 1345 572 1345 603.5 1330 c 128,-1,26
 635 1315 635 1315 666 1315 c 0,0,1
537 958 m 0,27,28
 715 958 715 958 813 851.5 c 128,-1,29
 911 745 911 745 911 569 c 2,30,-1
 911 -2 l 1,31,-1
 821 -2 l 1,32,-1
 803 135 l 1,33,34
 715 69 715 69 630 33.5 c 128,-1,35
 545 -2 545 -2 473 -2 c 0,36,37
 410 -2 410 -2 348.5 15.5 c 128,-1,38
 287 33 287 33 238.5 68.5 c 128,-1,39
 190 104 190 104 160.5 155.5 c 128,-1,40
 131 207 131 207 131 274 c 0,41,42
 131 360 131 360 170 407.5 c 128,-1,43
 209 455 209 455 269.5 479.5 c 128,-1,44
 330 504 330 504 406.5 513 c 128,-1,45
 483 522 483 522 558 533.5 c 128,-1,46
 633 545 633 545 700.5 563.5 c 128,-1,47
 768 582 768 582 811 627 c 1,48,49
 811 729 811 729 743.5 798.5 c 128,-1,50
 676 868 676 868 537 868 c 0,51,52
 504 868 504 868 466 859 c 128,-1,53
 428 850 428 850 393 832.5 c 128,-1,54
 358 815 358 815 330.5 788.5 c 128,-1,55
 303 762 303 762 293 727 c 1,56,-1
 188 727 l 1,57,58
 196 782 196 782 229 826 c 128,-1,59
 262 870 262 870 311 899 c 128,-1,60
 360 928 360 928 419 943 c 128,-1,61
 478 958 478 958 537 958 c 0,27,28
473 76 m 0,62,63
 530 76 530 76 586.5 91 c 128,-1,64
 643 106 643 106 689 137 c 128,-1,65
 735 168 735 168 767 213 c 128,-1,66
 799 258 799 258 811 317 c 1,67,-1
 811 537 l 1,68,69
 774 502 774 502 716.5 485.5 c 128,-1,70
 659 469 659 469 595.5 460 c 128,-1,71
 532 451 532 451 467.5 441.5 c 128,-1,72
 403 432 403 432 352 414.5 c 128,-1,73
 301 397 301 397 268.5 365.5 c 128,-1,74
 236 334 236 334 236 279 c 0,75,76
 236 228 236 228 256 190 c 128,-1,77
 276 152 276 152 309 126 c 128,-1,78
 342 100 342 100 385 88 c 128,-1,79
 428 76 428 76 473 76 c 0,62,63
EndSplineSet
Validated: 5
EndChar

StartChar: adieresis
Encoding: 228 228 151
Width: 997
GlyphClass: 2
Flags: W
LayerCount: 2
Fore
SplineSet
188 1440 m 0,0,1
 225 1440 225 1440 250.5 1414.5 c 128,-1,2
 276 1389 276 1389 276 1348 c 0,3,4
 276 1309 276 1309 250.5 1282 c 128,-1,5
 225 1255 225 1255 188 1255 c 0,6,7
 149 1255 149 1255 121.5 1282 c 128,-1,8
 94 1309 94 1309 94 1348 c 0,9,10
 94 1389 94 1389 121.5 1414.5 c 128,-1,11
 149 1440 149 1440 188 1440 c 0,0,1
858 1440 m 0,12,13
 895 1440 895 1440 920.5 1414.5 c 128,-1,14
 946 1389 946 1389 946 1348 c 0,15,16
 946 1309 946 1309 920.5 1282 c 128,-1,17
 895 1255 895 1255 858 1255 c 0,18,19
 819 1255 819 1255 792.5 1282 c 128,-1,20
 766 1309 766 1309 766 1348 c 0,21,22
 766 1389 766 1389 792.5 1414.5 c 128,-1,23
 819 1440 819 1440 858 1440 c 0,12,13
537 958 m 0,24,25
 715 958 715 958 813 851.5 c 128,-1,26
 911 745 911 745 911 569 c 2,27,-1
 911 -2 l 1,28,-1
 821 -2 l 1,29,-1
 803 135 l 1,30,31
 715 69 715 69 630 33.5 c 128,-1,32
 545 -2 545 -2 473 -2 c 0,33,34
 410 -2 410 -2 348.5 15.5 c 128,-1,35
 287 33 287 33 238.5 68.5 c 128,-1,36
 190 104 190 104 160.5 155.5 c 128,-1,37
 131 207 131 207 131 274 c 0,38,39
 131 360 131 360 170 407.5 c 128,-1,40
 209 455 209 455 269.5 479.5 c 128,-1,41
 330 504 330 504 406.5 513 c 128,-1,42
 483 522 483 522 558 533.5 c 128,-1,43
 633 545 633 545 700.5 563.5 c 128,-1,44
 768 582 768 582 811 627 c 1,45,46
 811 729 811 729 743.5 798.5 c 128,-1,47
 676 868 676 868 537 868 c 0,48,49
 504 868 504 868 466 859 c 128,-1,50
 428 850 428 850 393 832.5 c 128,-1,51
 358 815 358 815 330.5 788.5 c 128,-1,52
 303 762 303 762 293 727 c 1,53,-1
 188 727 l 1,54,55
 196 782 196 782 229 826 c 128,-1,56
 262 870 262 870 311 899 c 128,-1,57
 360 928 360 928 419 943 c 128,-1,58
 478 958 478 958 537 958 c 0,24,25
473 76 m 0,59,60
 530 76 530 76 586.5 91 c 128,-1,61
 643 106 643 106 689 137 c 128,-1,62
 735 168 735 168 767 213 c 128,-1,63
 799 258 799 258 811 317 c 1,64,-1
 811 537 l 1,65,66
 774 502 774 502 716.5 485.5 c 128,-1,67
 659 469 659 469 595.5 460 c 128,-1,68
 532 451 532 451 467.5 441.5 c 128,-1,69
 403 432 403 432 352 414.5 c 128,-1,70
 301 397 301 397 268.5 365.5 c 128,-1,71
 236 334 236 334 236 279 c 0,72,73
 236 228 236 228 256 190 c 128,-1,74
 276 152 276 152 309 126 c 128,-1,75
 342 100 342 100 385 88 c 128,-1,76
 428 76 428 76 473 76 c 0,59,60
EndSplineSet
Validated: 1
EndChar

StartChar: aring
Encoding: 229 229 152
Width: 997
GlyphClass: 2
Flags: W
LayerCount: 2
Fore
SplineSet
684 1407 m 0,0,1
 684 1372 684 1372 670.5 1342.5 c 128,-1,2
 657 1313 657 1313 634.5 1290.5 c 128,-1,3
 612 1268 612 1268 582.5 1255.5 c 128,-1,4
 553 1243 553 1243 520 1243 c 0,5,6
 452 1243 452 1243 405 1290 c 128,-1,7
 358 1337 358 1337 358 1407 c 0,8,9
 358 1473 358 1473 406.5 1521 c 128,-1,10
 455 1569 455 1569 520 1569 c 256,11,12
 586 1569 586 1569 635 1522 c 128,-1,13
 684 1475 684 1475 684 1407 c 0,0,1
397 1407 m 0,14,15
 397 1354 397 1354 434 1320 c 128,-1,16
 471 1286 471 1286 520 1286 c 0,17,18
 573 1286 573 1286 607 1320 c 128,-1,19
 641 1354 641 1354 641 1407 c 0,20,21
 641 1456 641 1456 607 1493 c 128,-1,22
 573 1530 573 1530 520 1530 c 0,23,24
 471 1530 471 1530 434 1493 c 128,-1,25
 397 1456 397 1456 397 1407 c 0,14,15
537 958 m 0,26,27
 715 958 715 958 813 851.5 c 128,-1,28
 911 745 911 745 911 569 c 2,29,-1
 911 -2 l 1,30,-1
 821 -2 l 1,31,-1
 803 135 l 1,32,33
 715 69 715 69 630 33.5 c 128,-1,34
 545 -2 545 -2 473 -2 c 0,35,36
 410 -2 410 -2 348.5 15.5 c 128,-1,37
 287 33 287 33 238.5 68.5 c 128,-1,38
 190 104 190 104 160.5 155.5 c 128,-1,39
 131 207 131 207 131 274 c 0,40,41
 131 360 131 360 170 407.5 c 128,-1,42
 209 455 209 455 269.5 479.5 c 128,-1,43
 330 504 330 504 406.5 513 c 128,-1,44
 483 522 483 522 558 533.5 c 128,-1,45
 633 545 633 545 700.5 563.5 c 128,-1,46
 768 582 768 582 811 627 c 1,47,48
 811 729 811 729 743.5 798.5 c 128,-1,49
 676 868 676 868 537 868 c 0,50,51
 504 868 504 868 466 859 c 128,-1,52
 428 850 428 850 393 832.5 c 128,-1,53
 358 815 358 815 330.5 788.5 c 128,-1,54
 303 762 303 762 293 727 c 1,55,-1
 188 727 l 1,56,57
 196 782 196 782 229 826 c 128,-1,58
 262 870 262 870 311 899 c 128,-1,59
 360 928 360 928 419 943 c 128,-1,60
 478 958 478 958 537 958 c 0,26,27
473 76 m 0,61,62
 530 76 530 76 586.5 91 c 128,-1,63
 643 106 643 106 689 137 c 128,-1,64
 735 168 735 168 767 213 c 128,-1,65
 799 258 799 258 811 317 c 1,66,-1
 811 537 l 1,67,68
 774 502 774 502 716.5 485.5 c 128,-1,69
 659 469 659 469 595.5 460 c 128,-1,70
 532 451 532 451 467.5 441.5 c 128,-1,71
 403 432 403 432 352 414.5 c 128,-1,72
 301 397 301 397 268.5 365.5 c 128,-1,73
 236 334 236 334 236 279 c 0,74,75
 236 228 236 228 256 190 c 128,-1,76
 276 152 276 152 309 126 c 128,-1,77
 342 100 342 100 385 88 c 128,-1,78
 428 76 428 76 473 76 c 0,61,62
EndSplineSet
Validated: 1
EndChar

StartChar: ae
Encoding: 230 230 153
Width: 1691
GlyphClass: 2
Flags: W
LayerCount: 2
Fore
SplineSet
459 0 m 0,0,1
 303 0 303 0 209 69.5 c 128,-1,2
 115 139 115 139 115 274 c 0,3,4
 115 368 115 368 152.5 425.5 c 128,-1,5
 190 483 190 483 250.5 514 c 128,-1,6
 311 545 311 545 387 553 c 128,-1,7
 463 561 463 561 538.5 559 c 128,-1,8
 614 557 614 557 682 551 c 128,-1,9
 750 545 750 545 795 545 c 1,10,11
 795 615 795 615 777.5 674 c 128,-1,12
 760 733 760 733 726 776 c 128,-1,13
 692 819 692 819 641 843.5 c 128,-1,14
 590 868 590 868 520 868 c 0,15,16
 487 868 487 868 449.5 859 c 128,-1,17
 412 850 412 850 377 832.5 c 128,-1,18
 342 815 342 815 314.5 788.5 c 128,-1,19
 287 762 287 762 276 727 c 1,20,-1
 172 727 l 1,21,22
 180 782 180 782 214 826 c 128,-1,23
 248 870 248 870 297 899 c 128,-1,24
 346 928 346 928 404.5 943 c 128,-1,25
 463 958 463 958 520 958 c 0,26,27
 624 958 624 958 705 912 c 128,-1,28
 786 866 786 866 852 780 c 1,29,30
 926 866 926 866 1017 912 c 128,-1,31
 1108 958 1108 958 1206 958 c 0,32,33
 1308 958 1308 958 1389 917.5 c 128,-1,34
 1470 877 1470 877 1526.5 809 c 128,-1,35
 1583 741 1583 741 1614 652 c 128,-1,36
 1645 563 1645 563 1651 467 c 1,37,-1
 879 467 l 1,38,39
 879 401 879 401 904.5 334.5 c 128,-1,40
 930 268 930 268 974 213 c 128,-1,41
 1018 158 1018 158 1077.5 123 c 128,-1,42
 1137 88 1137 88 1206 88 c 0,43,44
 1302 88 1302 88 1374 132 c 128,-1,45
 1446 176 1446 176 1491 256 c 1,46,-1
 1604 256 l 1,47,48
 1551 139 1551 139 1446 68.5 c 128,-1,49
 1341 -2 1341 -2 1206 -2 c 0,50,51
 1095 -2 1095 -2 999 62.5 c 128,-1,52
 903 127 903 127 827 227 c 1,53,54
 761 116 761 116 663 58 c 128,-1,55
 565 0 565 0 459 0 c 0,0,1
459 88 m 0,56,57
 496 88 496 88 552 104.5 c 128,-1,58
 608 121 608 121 662.5 163 c 128,-1,59
 717 205 717 205 756 277.5 c 128,-1,60
 795 350 795 350 795 465 c 1,61,62
 744 465 744 465 681 469 c 128,-1,63
 618 473 618 473 553.5 475 c 128,-1,64
 489 477 489 477 430 471 c 128,-1,65
 371 465 371 465 323.5 444.5 c 128,-1,66
 276 424 276 424 247.5 384 c 128,-1,67
 219 344 219 344 219 279 c 0,68,69
 219 228 219 228 239.5 192 c 128,-1,70
 260 156 260 156 294 132.5 c 128,-1,71
 328 109 328 109 371 98.5 c 128,-1,72
 414 88 414 88 459 88 c 0,56,57
1206 868 m 0,73,74
 1147 868 1147 868 1089.5 843.5 c 128,-1,75
 1032 819 1032 819 986 777 c 128,-1,76
 940 735 940 735 911.5 678 c 128,-1,77
 883 621 883 621 883 555 c 1,78,-1
 1548 555 l 1,79,80
 1536 618 1536 618 1509.5 675.5 c 128,-1,81
 1483 733 1483 733 1441 776 c 128,-1,82
 1399 819 1399 819 1340.5 843.5 c 128,-1,83
 1282 868 1282 868 1206 868 c 0,73,74
EndSplineSet
Validated: 33
EndChar

StartChar: ccedilla
Encoding: 231 231 154
Width: 1081
GlyphClass: 2
Flags: W
LayerCount: 2
Fore
SplineSet
131 477 m 0,0,1
 131 579 131 579 165 667.5 c 128,-1,2
 199 756 199 756 258 820.5 c 128,-1,3
 317 885 317 885 399 921.5 c 128,-1,4
 481 958 481 958 578 958 c 0,5,6
 711 958 711 958 815.5 882.5 c 128,-1,7
 920 807 920 807 979 696 c 1,8,-1
 866 696 l 1,9,10
 821 774 821 774 748.5 821 c 128,-1,11
 676 868 676 868 578 868 c 0,12,13
 504 868 504 868 441.5 838.5 c 128,-1,14
 379 809 379 809 334 757 c 128,-1,15
 289 705 289 705 263.5 633 c 128,-1,16
 238 561 238 561 238 477 c 256,17,18
 238 393 238 393 263.5 321.5 c 128,-1,19
 289 250 289 250 334 197.5 c 128,-1,20
 379 145 379 145 441.5 116.5 c 128,-1,21
 504 88 504 88 578 88 c 0,22,23
 674 88 674 88 746.5 132 c 128,-1,24
 819 176 819 176 864 256 c 1,25,-1
 979 256 l 1,26,27
 893 47 893 47 637 -2 c 1,28,-1
 637 -150 l 1,29,30
 690 -187 690 -187 735 -247 c 128,-1,31
 780 -307 780 -307 780 -373 c 0,32,33
 780 -459 780 -459 718.5 -522.5 c 128,-1,34
 657 -586 657 -586 567 -604 c 1,35,-1
 567 -524 l 1,36,37
 626 -512 626 -512 663 -469 c 128,-1,38
 700 -426 700 -426 700 -373 c 256,39,40
 700 -320 700 -320 661.5 -279 c 128,-1,41
 623 -238 623 -238 567 -221 c 1,42,-1
 567 -4 l 1,43,44
 471 4 471 4 391 45 c 128,-1,45
 311 86 311 86 253 150.5 c 128,-1,46
 195 215 195 215 163 298 c 128,-1,47
 131 381 131 381 131 477 c 0,0,1
EndSplineSet
Validated: 1
EndChar

StartChar: egrave
Encoding: 232 232 155
Width: 1105
GlyphClass: 2
Flags: W
LayerCount: 2
Fore
SplineSet
471 1440 m 1,0,1
 485 1409 485 1409 500.5 1382.5 c 128,-1,2
 516 1356 516 1356 532 1331 c 0,3,4
 546 1308 546 1308 558.5 1288 c 128,-1,5
 571 1268 571 1268 584 1243 c 1,6,-1
 532 1243 l 1,7,8
 509 1274 509 1274 491 1301.5 c 128,-1,9
 473 1329 473 1329 459 1352 c 2,10,-1
 397 1440 l 1,11,-1
 471 1440 l 1,0,1
578 -2 m 0,12,13
 482 -2 482 -2 399.5 35 c 128,-1,14
 317 72 317 72 258 136.5 c 128,-1,15
 199 201 199 201 165 288 c 128,-1,16
 131 375 131 375 131 477 c 0,17,18
 131 583 131 583 165 671.5 c 128,-1,19
 199 760 199 760 258 823.5 c 128,-1,20
 317 887 317 887 399 922.5 c 128,-1,21
 481 958 481 958 578 958 c 0,22,23
 680 958 680 958 761 917.5 c 128,-1,24
 842 877 842 877 898 809 c 128,-1,25
 954 741 954 741 985 652 c 128,-1,26
 1016 563 1016 563 1022 467 c 1,27,-1
 231 467 l 1,28,29
 231 375 231 375 259 305.5 c 128,-1,30
 287 236 287 236 335 188.5 c 128,-1,31
 383 141 383 141 445.5 117.5 c 128,-1,32
 508 94 508 94 578 94 c 0,33,34
 773 94 773 94 862 256 c 1,35,-1
 979 256 l 1,36,37
 922 139 922 139 817.5 68.5 c 128,-1,38
 713 -2 713 -2 578 -2 c 0,12,13
578 870 m 0,39,40
 517 870 517 870 455 845.5 c 128,-1,41
 393 821 393 821 343 779 c 128,-1,42
 293 737 293 737 262 680 c 128,-1,43
 231 623 231 623 231 555 c 1,44,-1
 913 555 l 1,45,46
 913 600 913 600 890.5 655.5 c 128,-1,47
 868 711 868 711 825 758 c 128,-1,48
 782 805 782 805 720 837.5 c 128,-1,49
 658 870 658 870 578 870 c 0,39,40
EndSplineSet
Validated: 1
EndChar

StartChar: eacute
Encoding: 233 233 156
Width: 1105
GlyphClass: 2
Flags: W
LayerCount: 2
Fore
SplineSet
678 1440 m 1,0,-1
 756 1440 l 1,1,2
 736 1411 736 1411 719 1387.5 c 128,-1,3
 702 1364 702 1364 686 1341.5 c 128,-1,4
 670 1319 670 1319 652.5 1295.5 c 128,-1,5
 635 1272 635 1272 616 1243 c 1,6,-1
 569 1243 l 1,7,-1
 678 1440 l 1,0,-1
578 -2 m 0,8,9
 482 -2 482 -2 399.5 35 c 128,-1,10
 317 72 317 72 258 136.5 c 128,-1,11
 199 201 199 201 165 288 c 128,-1,12
 131 375 131 375 131 477 c 0,13,14
 131 583 131 583 165 671.5 c 128,-1,15
 199 760 199 760 258 823.5 c 128,-1,16
 317 887 317 887 399 922.5 c 128,-1,17
 481 958 481 958 578 958 c 0,18,19
 680 958 680 958 761 917.5 c 128,-1,20
 842 877 842 877 898 809 c 128,-1,21
 954 741 954 741 985 652 c 128,-1,22
 1016 563 1016 563 1022 467 c 1,23,-1
 231 467 l 1,24,25
 231 375 231 375 259 305.5 c 128,-1,26
 287 236 287 236 335 188.5 c 128,-1,27
 383 141 383 141 445.5 117.5 c 128,-1,28
 508 94 508 94 578 94 c 0,29,30
 773 94 773 94 862 256 c 1,31,-1
 979 256 l 1,32,33
 922 139 922 139 817.5 68.5 c 128,-1,34
 713 -2 713 -2 578 -2 c 0,8,9
578 870 m 0,35,36
 517 870 517 870 455 845.5 c 128,-1,37
 393 821 393 821 343 779 c 128,-1,38
 293 737 293 737 262 680 c 128,-1,39
 231 623 231 623 231 555 c 1,40,-1
 913 555 l 1,41,42
 913 600 913 600 890.5 655.5 c 128,-1,43
 868 711 868 711 825 758 c 128,-1,44
 782 805 782 805 720 837.5 c 128,-1,45
 658 870 658 870 578 870 c 0,35,36
EndSplineSet
Validated: 1
EndChar

StartChar: ecircumflex
Encoding: 234 234 157
Width: 1105
GlyphClass: 2
Flags: W
LayerCount: 2
Fore
SplineSet
627 1440 m 1,0,-1
 774 1243 l 1,1,-1
 700 1243 l 1,2,-1
 575 1407 l 1,3,-1
 455 1243 l 1,4,-1
 375 1243 l 1,5,6
 398 1274 398 1274 414 1293.5 c 128,-1,7
 430 1313 430 1313 453 1341 c 2,8,-1
 526 1440 l 1,9,-1
 627 1440 l 1,0,-1
578 -2 m 0,10,11
 482 -2 482 -2 399.5 35 c 128,-1,12
 317 72 317 72 258 136.5 c 128,-1,13
 199 201 199 201 165 288 c 128,-1,14
 131 375 131 375 131 477 c 0,15,16
 131 583 131 583 165 671.5 c 128,-1,17
 199 760 199 760 258 823.5 c 128,-1,18
 317 887 317 887 399 922.5 c 128,-1,19
 481 958 481 958 578 958 c 0,20,21
 680 958 680 958 761 917.5 c 128,-1,22
 842 877 842 877 898 809 c 128,-1,23
 954 741 954 741 985 652 c 128,-1,24
 1016 563 1016 563 1022 467 c 1,25,-1
 231 467 l 1,26,27
 231 375 231 375 259 305.5 c 128,-1,28
 287 236 287 236 335 188.5 c 128,-1,29
 383 141 383 141 445.5 117.5 c 128,-1,30
 508 94 508 94 578 94 c 0,31,32
 773 94 773 94 862 256 c 1,33,-1
 979 256 l 1,34,35
 922 139 922 139 817.5 68.5 c 128,-1,36
 713 -2 713 -2 578 -2 c 0,10,11
578 870 m 0,37,38
 517 870 517 870 455 845.5 c 128,-1,39
 393 821 393 821 343 779 c 128,-1,40
 293 737 293 737 262 680 c 128,-1,41
 231 623 231 623 231 555 c 1,42,-1
 913 555 l 1,43,44
 913 600 913 600 890.5 655.5 c 128,-1,45
 868 711 868 711 825 758 c 128,-1,46
 782 805 782 805 720 837.5 c 128,-1,47
 658 870 658 870 578 870 c 0,37,38
EndSplineSet
Validated: 1
EndChar

StartChar: edieresis
Encoding: 235 235 158
Width: 1105
GlyphClass: 2
Flags: W
LayerCount: 2
Fore
SplineSet
242 1440 m 0,0,1
 283 1440 283 1440 308.5 1414.5 c 128,-1,2
 334 1389 334 1389 334 1348 c 0,3,4
 334 1309 334 1309 308.5 1282 c 128,-1,5
 283 1255 283 1255 242 1255 c 0,6,7
 203 1255 203 1255 176.5 1282 c 128,-1,8
 150 1309 150 1309 150 1348 c 0,9,10
 150 1389 150 1389 176.5 1414.5 c 128,-1,11
 203 1440 203 1440 242 1440 c 0,0,1
913 1440 m 0,12,13
 950 1440 950 1440 977 1414.5 c 128,-1,14
 1004 1389 1004 1389 1004 1348 c 0,15,16
 1004 1309 1004 1309 977 1282 c 128,-1,17
 950 1255 950 1255 913 1255 c 0,18,19
 872 1255 872 1255 845.5 1282 c 128,-1,20
 819 1309 819 1309 819 1348 c 0,21,22
 819 1389 819 1389 845.5 1414.5 c 128,-1,23
 872 1440 872 1440 913 1440 c 0,12,13
578 -2 m 0,24,25
 482 -2 482 -2 399.5 35 c 128,-1,26
 317 72 317 72 258 136.5 c 128,-1,27
 199 201 199 201 165 288 c 128,-1,28
 131 375 131 375 131 477 c 0,29,30
 131 583 131 583 165 671.5 c 128,-1,31
 199 760 199 760 258 823.5 c 128,-1,32
 317 887 317 887 399 922.5 c 128,-1,33
 481 958 481 958 578 958 c 0,34,35
 680 958 680 958 761 917.5 c 128,-1,36
 842 877 842 877 898 809 c 128,-1,37
 954 741 954 741 985 652 c 128,-1,38
 1016 563 1016 563 1022 467 c 1,39,-1
 231 467 l 1,40,41
 231 375 231 375 259 305.5 c 128,-1,42
 287 236 287 236 335 188.5 c 128,-1,43
 383 141 383 141 445.5 117.5 c 128,-1,44
 508 94 508 94 578 94 c 0,45,46
 773 94 773 94 862 256 c 1,47,-1
 979 256 l 1,48,49
 922 139 922 139 817.5 68.5 c 128,-1,50
 713 -2 713 -2 578 -2 c 0,24,25
578 870 m 0,51,52
 517 870 517 870 455 845.5 c 128,-1,53
 393 821 393 821 343 779 c 128,-1,54
 293 737 293 737 262 680 c 128,-1,55
 231 623 231 623 231 555 c 1,56,-1
 913 555 l 1,57,58
 913 600 913 600 890.5 655.5 c 128,-1,59
 868 711 868 711 825 758 c 128,-1,60
 782 805 782 805 720 837.5 c 128,-1,61
 658 870 658 870 578 870 c 0,51,52
EndSplineSet
Validated: 1
EndChar

StartChar: igrave
Encoding: 236 236 159
Width: 501
GlyphClass: 2
Flags: W
LayerCount: 2
Fore
SplineSet
213 958 m 1,0,-1
 317 958 l 1,1,-1
 317 0 l 1,2,-1
 213 0 l 1,3,-1
 213 958 l 1,0,-1
162 1440 m 1,4,5
 178 1411 178 1411 192.5 1383.5 c 128,-1,6
 207 1356 207 1356 223 1331 c 2,7,-1
 270 1243 l 1,8,-1
 221 1243 l 1,9,10
 196 1274 196 1274 178 1301.5 c 128,-1,11
 160 1329 160 1329 145 1352 c 2,12,-1
 86 1440 l 1,13,-1
 162 1440 l 1,4,5
EndSplineSet
Validated: 1
EndChar

StartChar: iacute
Encoding: 237 237 160
Width: 501
GlyphClass: 2
Flags: W
LayerCount: 2
Fore
SplineSet
209 958 m 1,0,-1
 309 958 l 1,1,-1
 309 0 l 1,2,-1
 209 0 l 1,3,-1
 209 958 l 1,0,-1
360 1440 m 1,4,-1
 438 1440 l 1,5,6
 418 1411 418 1411 401.5 1387.5 c 128,-1,7
 385 1364 385 1364 368.5 1341.5 c 128,-1,8
 352 1319 352 1319 334.5 1295.5 c 128,-1,9
 317 1272 317 1272 299 1243 c 1,10,-1
 252 1243 l 1,11,-1
 360 1440 l 1,4,-1
EndSplineSet
Validated: 1
EndChar

StartChar: icircumflex
Encoding: 238 238 161
Width: 501
GlyphClass: 2
Flags: W
LayerCount: 2
Fore
SplineSet
211 958 m 1,0,-1
 313 958 l 1,1,-1
 313 0 l 1,2,-1
 211 0 l 1,3,-1
 211 958 l 1,0,-1
311 1440 m 1,4,-1
 354 1384 l 1,5,-1
 459 1243 l 1,6,-1
 385 1243 l 1,7,-1
 262 1407 l 1,8,-1
 137 1243 l 1,9,-1
 63 1243 l 1,10,11
 88 1276 88 1276 105.5 1299.5 c 128,-1,12
 123 1323 123 1323 139.5 1344.5 c 128,-1,13
 156 1366 156 1366 172 1387.5 c 128,-1,14
 188 1409 188 1409 213 1440 c 1,15,-1
 311 1440 l 1,4,-1
EndSplineSet
Validated: 1
EndChar

StartChar: idieresis
Encoding: 239 239 162
Width: 501
GlyphClass: 2
Flags: W
LayerCount: 2
Fore
SplineSet
211 958 m 1,0,-1
 313 958 l 1,1,-1
 313 0 l 1,2,-1
 211 0 l 1,3,-1
 211 958 l 1,0,-1
-72 1440 m 0,4,5
 -35 1440 -35 1440 -8.5 1414.5 c 128,-1,6
 18 1389 18 1389 18 1348 c 0,7,8
 18 1309 18 1309 -8.5 1282 c 128,-1,9
 -35 1255 -35 1255 -72 1255 c 0,10,11
 -111 1255 -111 1255 -137.5 1282 c 128,-1,12
 -164 1309 -164 1309 -164 1348 c 0,13,14
 -164 1389 -164 1389 -137.5 1414.5 c 128,-1,15
 -111 1440 -111 1440 -72 1440 c 0,4,5
598 1440 m 0,16,17
 639 1440 639 1440 664.5 1414.5 c 128,-1,18
 690 1389 690 1389 690 1348 c 0,19,20
 690 1309 690 1309 664.5 1282 c 128,-1,21
 639 1255 639 1255 598 1255 c 0,22,23
 559 1255 559 1255 532.5 1282 c 128,-1,24
 506 1309 506 1309 506 1348 c 0,25,26
 506 1389 506 1389 532.5 1414.5 c 128,-1,27
 559 1440 559 1440 598 1440 c 0,16,17
EndSplineSet
Validated: 1
EndChar

StartChar: ntilde
Encoding: 241 241 163
Width: 1126
GlyphClass: 2
Flags: W
LayerCount: 2
Fore
SplineSet
666 958 m 0,0,1
 764 958 764 958 835.5 920.5 c 128,-1,2
 907 883 907 883 953 816.5 c 128,-1,3
 999 750 999 750 1021.5 662.5 c 128,-1,4
 1044 575 1044 575 1044 477 c 2,5,-1
 1044 0 l 1,6,-1
 938 0 l 1,7,-1
 938 477 l 2,8,9
 938 549 938 549 928 619.5 c 128,-1,10
 918 690 918 690 888 745.5 c 128,-1,11
 858 801 858 801 805 834.5 c 128,-1,12
 752 868 752 868 666 868 c 0,13,14
 584 868 584 868 517.5 834.5 c 128,-1,15
 451 801 451 801 402.5 745.5 c 128,-1,16
 354 690 354 690 328.5 619.5 c 128,-1,17
 303 549 303 549 303 477 c 2,18,-1
 303 0 l 1,19,-1
 197 0 l 1,20,-1
 197 958 l 1,21,-1
 283 958 l 1,22,-1
 303 735 l 1,23,24
 387 852 387 852 483.5 905 c 128,-1,25
 580 958 580 958 666 958 c 0,0,1
766 1315 m 0,26,27
 838 1315 838 1315 863.5 1352 c 128,-1,28
 889 1389 889 1389 897 1442 c 1,29,-1
 969 1442 l 1,30,31
 959 1354 959 1354 906.5 1300.5 c 128,-1,32
 854 1247 854 1247 782 1243 c 1,33,-1
 784 1243 l 1,34,35
 733 1243 733 1243 687 1266.5 c 128,-1,36
 641 1290 641 1290 602 1313 c 0,37,38
 567 1336 567 1336 536.5 1352 c 128,-1,39
 506 1368 506 1368 477 1368 c 0,40,41
 403 1368 403 1368 376.5 1332 c 128,-1,42
 350 1296 350 1296 344 1243 c 1,43,-1
 272 1243 l 1,44,45
 282 1331 282 1331 334.5 1384.5 c 128,-1,46
 387 1438 387 1438 459 1442 c 0,47,48
 506 1438 506 1438 552 1414.5 c 128,-1,49
 598 1391 598 1391 637 1368 c 0,50,51
 672 1345 672 1345 703.5 1330 c 128,-1,52
 735 1315 735 1315 766 1315 c 0,26,27
EndSplineSet
Validated: 5
EndChar

StartChar: ograve
Encoding: 242 242 164
Width: 1105
GlyphClass: 2
Flags: W
LayerCount: 2
Fore
SplineSet
578 0 m 256,0,1
 478 0 478 0 394.5 38 c 128,-1,2
 311 76 311 76 253 141.5 c 128,-1,3
 195 207 195 207 163 294 c 128,-1,4
 131 381 131 381 131 479 c 256,5,6
 131 577 131 577 163 664.5 c 128,-1,7
 195 752 195 752 253 818.5 c 128,-1,8
 311 885 311 885 394 923 c 128,-1,9
 477 961 477 961 578 961 c 256,10,11
 678 961 678 961 761 923 c 128,-1,12
 844 885 844 885 902.5 818.5 c 128,-1,13
 961 752 961 752 992.5 665 c 128,-1,14
 1024 578 1024 578 1024 479 c 256,15,16
 1024 381 1024 381 992.5 294 c 128,-1,17
 961 207 961 207 902.5 141.5 c 128,-1,18
 844 76 844 76 761 38 c 128,-1,19
 678 0 678 0 578 0 c 256,0,1
578 870 m 256,20,21
 498 870 498 870 434.5 836.5 c 128,-1,22
 371 803 371 803 328 747.5 c 128,-1,23
 285 692 285 692 261.5 621.5 c 128,-1,24
 238 551 238 551 238 479 c 0,25,26
 238 405 238 405 261.5 334.5 c 128,-1,27
 285 264 285 264 328 210 c 128,-1,28
 371 156 371 156 434.5 123 c 128,-1,29
 498 90 498 90 578 90 c 256,30,31
 658 90 658 90 721 123 c 128,-1,32
 784 156 784 156 828 210 c 128,-1,33
 872 264 872 264 895 335 c 128,-1,34
 918 406 918 406 918 479 c 0,35,36
 918 551 918 551 895 621.5 c 128,-1,37
 872 692 872 692 828 747.5 c 128,-1,38
 784 803 784 803 721 836.5 c 128,-1,39
 658 870 658 870 578 870 c 256,20,21
471 1440 m 1,40,41
 485 1409 485 1409 500.5 1382.5 c 128,-1,42
 516 1356 516 1356 532 1331 c 0,43,44
 546 1308 546 1308 558.5 1288 c 128,-1,45
 571 1268 571 1268 584 1243 c 1,46,-1
 532 1243 l 1,47,48
 509 1274 509 1274 491 1301.5 c 128,-1,49
 473 1329 473 1329 459 1352 c 2,50,-1
 397 1440 l 1,51,-1
 471 1440 l 1,40,41
EndSplineSet
Validated: 1
EndChar

StartChar: oacute
Encoding: 243 243 165
Width: 1105
GlyphClass: 2
Flags: W
LayerCount: 2
Fore
SplineSet
578 0 m 256,0,1
 478 0 478 0 394.5 38 c 128,-1,2
 311 76 311 76 253 141.5 c 128,-1,3
 195 207 195 207 163 294 c 128,-1,4
 131 381 131 381 131 479 c 256,5,6
 131 577 131 577 163 664.5 c 128,-1,7
 195 752 195 752 253 818.5 c 128,-1,8
 311 885 311 885 394 923 c 128,-1,9
 477 961 477 961 578 961 c 256,10,11
 678 961 678 961 761 923 c 128,-1,12
 844 885 844 885 902.5 818.5 c 128,-1,13
 961 752 961 752 992.5 665 c 128,-1,14
 1024 578 1024 578 1024 479 c 256,15,16
 1024 381 1024 381 992.5 294 c 128,-1,17
 961 207 961 207 902.5 141.5 c 128,-1,18
 844 76 844 76 761 38 c 128,-1,19
 678 0 678 0 578 0 c 256,0,1
578 870 m 256,20,21
 498 870 498 870 434.5 836.5 c 128,-1,22
 371 803 371 803 328 747.5 c 128,-1,23
 285 692 285 692 261.5 621.5 c 128,-1,24
 238 551 238 551 238 479 c 0,25,26
 238 405 238 405 261.5 334.5 c 128,-1,27
 285 264 285 264 328 210 c 128,-1,28
 371 156 371 156 434.5 123 c 128,-1,29
 498 90 498 90 578 90 c 256,30,31
 658 90 658 90 721 123 c 128,-1,32
 784 156 784 156 828 210 c 128,-1,33
 872 264 872 264 895 335 c 128,-1,34
 918 406 918 406 918 479 c 0,35,36
 918 551 918 551 895 621.5 c 128,-1,37
 872 692 872 692 828 747.5 c 128,-1,38
 784 803 784 803 721 836.5 c 128,-1,39
 658 870 658 870 578 870 c 256,20,21
678 1440 m 1,40,-1
 756 1440 l 1,41,42
 736 1411 736 1411 719 1387.5 c 128,-1,43
 702 1364 702 1364 686 1341.5 c 128,-1,44
 670 1319 670 1319 652.5 1295.5 c 128,-1,45
 635 1272 635 1272 616 1243 c 1,46,-1
 569 1243 l 1,47,-1
 678 1440 l 1,40,-1
EndSplineSet
Validated: 1
EndChar

StartChar: ocircumflex
Encoding: 244 244 166
Width: 1105
GlyphClass: 2
Flags: W
LayerCount: 2
Fore
SplineSet
578 0 m 256,0,1
 478 0 478 0 394.5 38 c 128,-1,2
 311 76 311 76 253 141.5 c 128,-1,3
 195 207 195 207 163 294 c 128,-1,4
 131 381 131 381 131 479 c 256,5,6
 131 577 131 577 163 664.5 c 128,-1,7
 195 752 195 752 253 818.5 c 128,-1,8
 311 885 311 885 394 923 c 128,-1,9
 477 961 477 961 578 961 c 256,10,11
 678 961 678 961 761 923 c 128,-1,12
 844 885 844 885 902.5 818.5 c 128,-1,13
 961 752 961 752 992.5 665 c 128,-1,14
 1024 578 1024 578 1024 479 c 256,15,16
 1024 381 1024 381 992.5 294 c 128,-1,17
 961 207 961 207 902.5 141.5 c 128,-1,18
 844 76 844 76 761 38 c 128,-1,19
 678 0 678 0 578 0 c 256,0,1
578 870 m 256,20,21
 498 870 498 870 434.5 836.5 c 128,-1,22
 371 803 371 803 328 747.5 c 128,-1,23
 285 692 285 692 261.5 621.5 c 128,-1,24
 238 551 238 551 238 479 c 0,25,26
 238 405 238 405 261.5 334.5 c 128,-1,27
 285 264 285 264 328 210 c 128,-1,28
 371 156 371 156 434.5 123 c 128,-1,29
 498 90 498 90 578 90 c 256,30,31
 658 90 658 90 721 123 c 128,-1,32
 784 156 784 156 828 210 c 128,-1,33
 872 264 872 264 895 335 c 128,-1,34
 918 406 918 406 918 479 c 0,35,36
 918 551 918 551 895 621.5 c 128,-1,37
 872 692 872 692 828 747.5 c 128,-1,38
 784 803 784 803 721 836.5 c 128,-1,39
 658 870 658 870 578 870 c 256,20,21
627 1440 m 1,40,-1
 774 1243 l 1,41,-1
 700 1243 l 1,42,-1
 575 1407 l 1,43,-1
 455 1243 l 1,44,-1
 375 1243 l 1,45,46
 398 1274 398 1274 414 1293.5 c 128,-1,47
 430 1313 430 1313 453 1341 c 2,48,-1
 526 1440 l 1,49,-1
 627 1440 l 1,40,-1
EndSplineSet
Validated: 1
EndChar

StartChar: otilde
Encoding: 245 245 167
Width: 1105
GlyphClass: 2
Flags: W
LayerCount: 2
Fore
SplineSet
578 0 m 256,0,1
 478 0 478 0 394.5 38 c 128,-1,2
 311 76 311 76 253 141.5 c 128,-1,3
 195 207 195 207 163 294 c 128,-1,4
 131 381 131 381 131 479 c 256,5,6
 131 577 131 577 163 664.5 c 128,-1,7
 195 752 195 752 253 818.5 c 128,-1,8
 311 885 311 885 394 923 c 128,-1,9
 477 961 477 961 578 961 c 256,10,11
 678 961 678 961 761 923 c 128,-1,12
 844 885 844 885 902.5 818.5 c 128,-1,13
 961 752 961 752 992.5 665 c 128,-1,14
 1024 578 1024 578 1024 479 c 256,15,16
 1024 381 1024 381 992.5 294 c 128,-1,17
 961 207 961 207 902.5 141.5 c 128,-1,18
 844 76 844 76 761 38 c 128,-1,19
 678 0 678 0 578 0 c 256,0,1
578 870 m 256,20,21
 498 870 498 870 434.5 836.5 c 128,-1,22
 371 803 371 803 328 747.5 c 128,-1,23
 285 692 285 692 261.5 621.5 c 128,-1,24
 238 551 238 551 238 479 c 0,25,26
 238 405 238 405 261.5 334.5 c 128,-1,27
 285 264 285 264 328 210 c 128,-1,28
 371 156 371 156 434.5 123 c 128,-1,29
 498 90 498 90 578 90 c 256,30,31
 658 90 658 90 721 123 c 128,-1,32
 784 156 784 156 828 210 c 128,-1,33
 872 264 872 264 895 335 c 128,-1,34
 918 406 918 406 918 479 c 0,35,36
 918 551 918 551 895 621.5 c 128,-1,37
 872 692 872 692 828 747.5 c 128,-1,38
 784 803 784 803 721 836.5 c 128,-1,39
 658 870 658 870 578 870 c 256,20,21
723 1315 m 0,40,41
 795 1315 795 1315 820.5 1352 c 128,-1,42
 846 1389 846 1389 854 1442 c 1,43,-1
 924 1442 l 1,44,45
 914 1354 914 1354 862.5 1300.5 c 128,-1,46
 811 1247 811 1247 739 1243 c 0,47,48
 694 1243 694 1243 656 1261.5 c 128,-1,49
 618 1280 618 1280 584 1298 c 0,50,51
 580 1300 580 1300 571.5 1304.5 c 128,-1,52
 563 1309 563 1309 557 1313 c 0,53,54
 522 1336 522 1336 490.5 1352 c 128,-1,55
 459 1368 459 1368 432 1368 c 0,56,57
 356 1368 356 1368 331.5 1332 c 128,-1,58
 307 1296 307 1296 299 1243 c 1,59,-1
 231 1243 l 1,60,61
 241 1331 241 1331 293.5 1384.5 c 128,-1,62
 346 1438 346 1438 418 1442 c 0,63,64
 459 1438 459 1438 501 1417.5 c 128,-1,65
 543 1397 543 1397 584 1374 c 1,66,-1
 580 1378 l 1,67,-1
 588 1374 l 2,68,69
 625 1351 625 1351 659.5 1333 c 128,-1,70
 694 1315 694 1315 723 1315 c 0,40,41
EndSplineSet
Validated: 1
EndChar

StartChar: odieresis
Encoding: 246 246 168
Width: 1105
GlyphClass: 2
Flags: W
LayerCount: 2
Fore
SplineSet
578 0 m 256,0,1
 478 0 478 0 394.5 38 c 128,-1,2
 311 76 311 76 253 141.5 c 128,-1,3
 195 207 195 207 163 294 c 128,-1,4
 131 381 131 381 131 479 c 256,5,6
 131 577 131 577 163 664.5 c 128,-1,7
 195 752 195 752 253 818.5 c 128,-1,8
 311 885 311 885 394 923 c 128,-1,9
 477 961 477 961 578 961 c 256,10,11
 678 961 678 961 761 923 c 128,-1,12
 844 885 844 885 902.5 818.5 c 128,-1,13
 961 752 961 752 992.5 665 c 128,-1,14
 1024 578 1024 578 1024 479 c 256,15,16
 1024 381 1024 381 992.5 294 c 128,-1,17
 961 207 961 207 902.5 141.5 c 128,-1,18
 844 76 844 76 761 38 c 128,-1,19
 678 0 678 0 578 0 c 256,0,1
578 870 m 256,20,21
 498 870 498 870 434.5 836.5 c 128,-1,22
 371 803 371 803 328 747.5 c 128,-1,23
 285 692 285 692 261.5 621.5 c 128,-1,24
 238 551 238 551 238 479 c 0,25,26
 238 405 238 405 261.5 334.5 c 128,-1,27
 285 264 285 264 328 210 c 128,-1,28
 371 156 371 156 434.5 123 c 128,-1,29
 498 90 498 90 578 90 c 256,30,31
 658 90 658 90 721 123 c 128,-1,32
 784 156 784 156 828 210 c 128,-1,33
 872 264 872 264 895 335 c 128,-1,34
 918 406 918 406 918 479 c 0,35,36
 918 551 918 551 895 621.5 c 128,-1,37
 872 692 872 692 828 747.5 c 128,-1,38
 784 803 784 803 721 836.5 c 128,-1,39
 658 870 658 870 578 870 c 256,20,21
242 1440 m 0,40,41
 283 1440 283 1440 308.5 1414.5 c 128,-1,42
 334 1389 334 1389 334 1348 c 0,43,44
 334 1309 334 1309 308.5 1282 c 128,-1,45
 283 1255 283 1255 242 1255 c 0,46,47
 203 1255 203 1255 176.5 1282 c 128,-1,48
 150 1309 150 1309 150 1348 c 0,49,50
 150 1389 150 1389 176.5 1414.5 c 128,-1,51
 203 1440 203 1440 242 1440 c 0,40,41
913 1440 m 0,52,53
 950 1440 950 1440 977 1414.5 c 128,-1,54
 1004 1389 1004 1389 1004 1348 c 0,55,56
 1004 1309 1004 1309 977 1282 c 128,-1,57
 950 1255 950 1255 913 1255 c 0,58,59
 872 1255 872 1255 845.5 1282 c 128,-1,60
 819 1309 819 1309 819 1348 c 0,61,62
 819 1389 819 1389 845.5 1414.5 c 128,-1,63
 872 1440 872 1440 913 1440 c 0,52,53
EndSplineSet
Validated: 1
EndChar

StartChar: divide
Encoding: 247 247 169
Width: 452
GlyphClass: 2
Flags: W
LayerCount: 2
Fore
SplineSet
236 176 m 0,0,1
 271 176 271 176 296.5 150.5 c 128,-1,2
 322 125 322 125 322 88 c 0,3,4
 322 53 322 53 296 26.5 c 128,-1,5
 270 0 270 0 236 0 c 0,6,7
 197 0 197 0 170 26.5 c 128,-1,8
 143 53 143 53 143 88 c 0,9,10
 143 125 143 125 170 150.5 c 128,-1,11
 197 176 197 176 236 176 c 0,0,1
236 930 m 0,12,13
 271 930 271 930 296.5 904.5 c 128,-1,14
 322 879 322 879 322 844 c 0,15,16
 322 805 322 805 296 778.5 c 128,-1,17
 270 752 270 752 236 752 c 0,18,19
 197 752 197 752 170 778.5 c 128,-1,20
 143 805 143 805 143 844 c 0,21,22
 143 879 143 879 170 904.5 c 128,-1,23
 197 930 197 930 236 930 c 0,12,13
602 526 m 1,24,-1
 602 424 l 1,25,-1
 -135 424 l 1,26,-1
 -135 526 l 1,27,-1
 602 526 l 1,24,-1
EndSplineSet
Validated: 1
EndChar

StartChar: oslash
Encoding: 248 248 170
Width: 1105
GlyphClass: 2
Flags: W
LayerCount: 2
Fore
SplineSet
819 1024 m 1,0,-1
 780 913 l 1,1,2
 899 841 899 841 961.5 727.5 c 128,-1,3
 1024 614 1024 614 1024 479 c 0,4,5
 1024 381 1024 381 992.5 294 c 128,-1,6
 961 207 961 207 902.5 141.5 c 128,-1,7
 844 76 844 76 761 38 c 128,-1,8
 678 0 678 0 578 0 c 0,9,10
 525 0 525 0 446 14 c 1,11,-1
 408 -90 l 1,12,-1
 340 -61 l 1,13,-1
 338 -61 l 1,14,-1
 375 47 l 1,15,16
 258 119 258 119 194.5 231.5 c 128,-1,17
 131 344 131 344 131 479 c 0,18,19
 131 577 131 577 163 664.5 c 128,-1,20
 195 752 195 752 253 818.5 c 128,-1,21
 311 885 311 885 394 923 c 128,-1,22
 477 961 477 961 578 961 c 0,23,24
 601 961 601 961 623 957.5 c 128,-1,25
 645 954 645 954 678 948 c 0,26,27
 682 948 682 948 693.5 947 c 128,-1,28
 705 946 705 946 709 946 c 2,29,-1
 750 1055 l 1,30,-1
 819 1024 l 1,0,-1
578 90 m 0,31,32
 658 90 658 90 721 123 c 128,-1,33
 784 156 784 156 828 210 c 128,-1,34
 872 264 872 264 895 335 c 128,-1,35
 918 406 918 406 918 479 c 0,36,37
 918 565 918 565 874.5 655 c 128,-1,38
 831 745 831 745 748 829 c 1,39,-1
 479 100 l 1,40,41
 510 96 510 96 527.5 94 c 128,-1,42
 545 92 545 92 554 91 c 128,-1,43
 563 90 563 90 568.5 90 c 128,-1,44
 574 90 574 90 578 90 c 0,31,32
578 870 m 0,45,46
 498 870 498 870 434.5 836.5 c 128,-1,47
 371 803 371 803 328 747.5 c 128,-1,48
 285 692 285 692 261.5 621.5 c 128,-1,49
 238 551 238 551 238 479 c 0,50,51
 238 393 238 393 280 303 c 128,-1,52
 322 213 322 213 408 129 c 1,53,-1
 678 866 l 1,54,-1
 629 866 l 2,55,56
 617 866 617 866 614 868 c 1,57,-1
 616 868 l 1,58,59
 610 870 610 870 599 870 c 128,-1,60
 588 870 588 870 578 870 c 0,45,46
EndSplineSet
Validated: 1
EndChar

StartChar: ugrave
Encoding: 249 249 171
Width: 1126
GlyphClass: 2
Flags: W
LayerCount: 2
Fore
SplineSet
451 1440 m 1,0,1
 465 1409 465 1409 480.5 1382.5 c 128,-1,2
 496 1356 496 1356 512 1331 c 0,3,4
 524 1308 524 1308 537.5 1288 c 128,-1,5
 551 1268 551 1268 563 1243 c 1,6,-1
 514 1243 l 1,7,8
 491 1272 491 1272 475 1297.5 c 128,-1,9
 459 1323 459 1323 436 1354 c 2,10,-1
 377 1440 l 1,11,-1
 451 1440 l 1,0,1
512 0 m 0,12,13
 412 0 412 0 340 38 c 128,-1,14
 268 76 268 76 222 142.5 c 128,-1,15
 176 209 176 209 153.5 296 c 128,-1,16
 131 383 131 383 131 481 c 2,17,-1
 131 958 l 1,18,-1
 238 958 l 1,19,-1
 238 481 l 2,20,21
 238 409 238 409 249 338.5 c 128,-1,22
 260 268 260 268 291 213 c 128,-1,23
 322 158 322 158 375 124 c 128,-1,24
 428 90 428 90 512 90 c 0,25,26
 594 90 594 90 661.5 124 c 128,-1,27
 729 158 729 158 776 213 c 128,-1,28
 823 268 823 268 850 339 c 128,-1,29
 877 410 877 410 877 481 c 2,30,-1
 877 958 l 1,31,-1
 983 958 l 1,32,-1
 983 0 l 1,33,-1
 895 0 l 1,34,-1
 874 223 l 1,35,36
 839 155 839 155 794.5 111.5 c 128,-1,37
 750 68 750 68 700.5 43 c 128,-1,38
 651 18 651 18 602 9 c 128,-1,39
 553 0 553 0 512 0 c 0,12,13
EndSplineSet
Validated: 1
EndChar

StartChar: uacute
Encoding: 250 250 172
Width: 1126
GlyphClass: 2
Flags: W
LayerCount: 2
Fore
SplineSet
657 1440 m 1,0,-1
 735 1440 l 1,1,2
 715 1411 715 1411 698.5 1387.5 c 128,-1,3
 682 1364 682 1364 665.5 1341.5 c 128,-1,4
 649 1319 649 1319 631.5 1295.5 c 128,-1,5
 614 1272 614 1272 596 1243 c 1,6,-1
 549 1243 l 1,7,-1
 657 1440 l 1,0,-1
512 0 m 0,8,9
 412 0 412 0 340 38 c 128,-1,10
 268 76 268 76 222 142.5 c 128,-1,11
 176 209 176 209 153.5 296 c 128,-1,12
 131 383 131 383 131 481 c 2,13,-1
 131 958 l 1,14,-1
 238 958 l 1,15,-1
 238 481 l 2,16,17
 238 409 238 409 249 338.5 c 128,-1,18
 260 268 260 268 291 213 c 128,-1,19
 322 158 322 158 375 124 c 128,-1,20
 428 90 428 90 512 90 c 0,21,22
 594 90 594 90 661.5 124 c 128,-1,23
 729 158 729 158 776 213 c 128,-1,24
 823 268 823 268 850 339 c 128,-1,25
 877 410 877 410 877 481 c 2,26,-1
 877 958 l 1,27,-1
 983 958 l 1,28,-1
 983 0 l 1,29,-1
 895 0 l 1,30,-1
 874 223 l 1,31,32
 839 155 839 155 794.5 111.5 c 128,-1,33
 750 68 750 68 700.5 43 c 128,-1,34
 651 18 651 18 602 9 c 128,-1,35
 553 0 553 0 512 0 c 0,8,9
EndSplineSet
Validated: 1
EndChar

StartChar: ucircumflex
Encoding: 251 251 173
Width: 1126
GlyphClass: 2
Flags: W
LayerCount: 2
Fore
SplineSet
604 1440 m 1,0,-1
 647 1384 l 1,1,-1
 752 1243 l 1,2,-1
 678 1243 l 1,3,-1
 555 1407 l 1,4,-1
 432 1243 l 1,5,-1
 356 1243 l 1,6,7
 381 1276 381 1276 398.5 1299.5 c 128,-1,8
 416 1323 416 1323 432.5 1344.5 c 128,-1,9
 449 1366 449 1366 466 1387.5 c 128,-1,10
 483 1409 483 1409 506 1440 c 1,11,-1
 604 1440 l 1,0,-1
512 0 m 0,12,13
 412 0 412 0 340 38 c 128,-1,14
 268 76 268 76 222 142.5 c 128,-1,15
 176 209 176 209 153.5 296 c 128,-1,16
 131 383 131 383 131 481 c 2,17,-1
 131 958 l 1,18,-1
 238 958 l 1,19,-1
 238 481 l 2,20,21
 238 409 238 409 249 338.5 c 128,-1,22
 260 268 260 268 291 213 c 128,-1,23
 322 158 322 158 375 124 c 128,-1,24
 428 90 428 90 512 90 c 0,25,26
 594 90 594 90 661.5 124 c 128,-1,27
 729 158 729 158 776 213 c 128,-1,28
 823 268 823 268 850 339 c 128,-1,29
 877 410 877 410 877 481 c 2,30,-1
 877 958 l 1,31,-1
 983 958 l 1,32,-1
 983 0 l 1,33,-1
 895 0 l 1,34,-1
 874 223 l 1,35,36
 839 155 839 155 794.5 111.5 c 128,-1,37
 750 68 750 68 700.5 43 c 128,-1,38
 651 18 651 18 602 9 c 128,-1,39
 553 0 553 0 512 0 c 0,12,13
EndSplineSet
Validated: 1
EndChar

StartChar: udieresis
Encoding: 252 252 174
Width: 1126
GlyphClass: 2
Flags: W
LayerCount: 2
Fore
SplineSet
223 1440 m 0,0,1
 260 1440 260 1440 286.5 1414.5 c 128,-1,2
 313 1389 313 1389 313 1348 c 0,3,4
 313 1309 313 1309 286.5 1282 c 128,-1,5
 260 1255 260 1255 223 1255 c 0,6,7
 184 1255 184 1255 157.5 1282 c 128,-1,8
 131 1309 131 1309 131 1348 c 0,9,10
 131 1389 131 1389 157.5 1414.5 c 128,-1,11
 184 1440 184 1440 223 1440 c 0,0,1
895 1440 m 0,12,13
 932 1440 932 1440 958.5 1414.5 c 128,-1,14
 985 1389 985 1389 985 1348 c 0,15,16
 985 1309 985 1309 958.5 1282 c 128,-1,17
 932 1255 932 1255 895 1255 c 0,18,19
 854 1255 854 1255 827.5 1282 c 128,-1,20
 801 1309 801 1309 801 1348 c 0,21,22
 801 1389 801 1389 827.5 1414.5 c 128,-1,23
 854 1440 854 1440 895 1440 c 0,12,13
512 0 m 0,24,25
 412 0 412 0 340 38 c 128,-1,26
 268 76 268 76 222 142.5 c 128,-1,27
 176 209 176 209 153.5 296 c 128,-1,28
 131 383 131 383 131 481 c 2,29,-1
 131 958 l 1,30,-1
 238 958 l 1,31,-1
 238 481 l 2,32,33
 238 409 238 409 249 338.5 c 128,-1,34
 260 268 260 268 291 213 c 128,-1,35
 322 158 322 158 375 124 c 128,-1,36
 428 90 428 90 512 90 c 0,37,38
 594 90 594 90 661.5 124 c 128,-1,39
 729 158 729 158 776 213 c 128,-1,40
 823 268 823 268 850 339 c 128,-1,41
 877 410 877 410 877 481 c 2,42,-1
 877 958 l 1,43,-1
 983 958 l 1,44,-1
 983 0 l 1,45,-1
 895 0 l 1,46,-1
 874 223 l 1,47,48
 839 155 839 155 794.5 111.5 c 128,-1,49
 750 68 750 68 700.5 43 c 128,-1,50
 651 18 651 18 602 9 c 128,-1,51
 553 0 553 0 512 0 c 0,24,25
EndSplineSet
Validated: 1
EndChar

StartChar: yacute
Encoding: 253 253 175
Width: 1087
GlyphClass: 2
Flags: W
LayerCount: 2
Fore
SplineSet
862 958 m 1,0,-1
 989 958 l 1,1,2
 958 878 958 878 934.5 809.5 c 128,-1,3
 911 741 911 741 889.5 675.5 c 128,-1,4
 868 610 868 610 848.5 543.5 c 128,-1,5
 829 477 829 477 807 401 c 256,6,7
 784 325 784 325 758.5 240.5 c 128,-1,8
 733 156 733 156 704.5 68 c 128,-1,9
 676 -20 676 -20 646 -107.5 c 128,-1,10
 616 -195 616 -195 586 -274 c 0,11,12
 553 -352 553 -352 489.5 -402.5 c 128,-1,13
 426 -453 426 -453 336 -453 c 0,14,15
 320 -453 320 -453 297 -448.5 c 128,-1,16
 274 -444 274 -444 252 -440 c 1,17,-1
 252 -350 l 1,18,19
 262 -352 262 -352 277.5 -352 c 128,-1,20
 293 -352 293 -352 303 -352 c 0,21,22
 358 -352 358 -352 392 -339 c 128,-1,23
 426 -326 426 -326 447.5 -301 c 128,-1,24
 469 -276 469 -276 481.5 -243.5 c 128,-1,25
 494 -211 494 -211 506 -172 c 2,26,-1
 520 -117 l 1,27,-1
 145 958 l 1,28,-1
 274 958 l 1,29,-1
 594 0 l 1,30,-1
 862 958 l 1,0,-1
670 1440 m 1,31,-1
 748 1440 l 1,32,33
 728 1411 728 1411 711 1387.5 c 128,-1,34
 694 1364 694 1364 678 1341.5 c 128,-1,35
 662 1319 662 1319 644.5 1295.5 c 128,-1,36
 627 1272 627 1272 608 1243 c 1,37,-1
 561 1243 l 1,38,-1
 670 1440 l 1,31,-1
EndSplineSet
Validated: 1
EndChar

StartChar: ydieresis
Encoding: 255 255 176
Width: 1087
GlyphClass: 2
Flags: W
LayerCount: 2
Fore
SplineSet
862 958 m 1,0,-1
 989 958 l 1,1,2
 958 878 958 878 934.5 809.5 c 128,-1,3
 911 741 911 741 889.5 675.5 c 128,-1,4
 868 610 868 610 848.5 543.5 c 128,-1,5
 829 477 829 477 807 401 c 256,6,7
 784 325 784 325 758.5 240.5 c 128,-1,8
 733 156 733 156 704.5 68 c 128,-1,9
 676 -20 676 -20 646 -107.5 c 128,-1,10
 616 -195 616 -195 586 -274 c 0,11,12
 553 -352 553 -352 489.5 -402.5 c 128,-1,13
 426 -453 426 -453 336 -453 c 0,14,15
 320 -453 320 -453 297 -448.5 c 128,-1,16
 274 -444 274 -444 252 -440 c 1,17,-1
 252 -350 l 1,18,19
 262 -352 262 -352 277.5 -352 c 128,-1,20
 293 -352 293 -352 303 -352 c 0,21,22
 358 -352 358 -352 392 -339 c 128,-1,23
 426 -326 426 -326 447.5 -301 c 128,-1,24
 469 -276 469 -276 481.5 -243.5 c 128,-1,25
 494 -211 494 -211 506 -172 c 2,26,-1
 520 -117 l 1,27,-1
 145 958 l 1,28,-1
 274 958 l 1,29,-1
 594 0 l 1,30,-1
 862 958 l 1,0,-1
905 1440 m 0,31,32
 942 1440 942 1440 968.5 1414.5 c 128,-1,33
 995 1389 995 1389 995 1348 c 0,34,35
 995 1309 995 1309 968.5 1282 c 128,-1,36
 942 1255 942 1255 905 1255 c 0,37,38
 864 1255 864 1255 837.5 1282 c 128,-1,39
 811 1309 811 1309 811 1348 c 0,40,41
 811 1389 811 1389 837.5 1414.5 c 128,-1,42
 864 1440 864 1440 905 1440 c 0,31,32
233 1440 m 0,43,44
 274 1440 274 1440 299 1414.5 c 128,-1,45
 324 1389 324 1389 324 1348 c 0,46,47
 324 1309 324 1309 299 1282 c 128,-1,48
 274 1255 274 1255 233 1255 c 0,49,50
 194 1255 194 1255 167.5 1282 c 128,-1,51
 141 1309 141 1309 141 1348 c 0,52,53
 141 1389 141 1389 167.5 1414.5 c 128,-1,54
 194 1440 194 1440 233 1440 c 0,43,44
EndSplineSet
Validated: 1
EndChar

StartChar: Amacron
Encoding: 256 256 177
Width: 1241
GlyphClass: 2
Flags: W
LayerCount: 2
Fore
SplineSet
911 426 m 1,0,-1
 367 426 l 1,1,-1
 322 270 l 1,2,-1
 242 0 l 1,3,-1
 150 0 l 1,4,-1
 567 1456 l 1,5,-1
 707 1456 l 1,6,-1
 1126 0 l 1,7,-1
 1032 0 l 1,8,-1
 911 426 l 1,0,-1
637 1366 m 1,9,-1
 395 528 l 1,10,-1
 881 528 l 1,11,-1
 637 1366 l 1,9,-1
387 1792 m 1,12,-1
 891 1792 l 1,13,-1
 891 1733 l 1,14,-1
 387 1733 l 1,15,-1
 387 1792 l 1,12,-1
EndSplineSet
Validated: 1
EndChar

StartChar: amacron
Encoding: 257 257 178
Width: 997
GlyphClass: 2
Flags: W
LayerCount: 2
Fore
SplineSet
537 958 m 0,0,1
 715 958 715 958 813 851.5 c 128,-1,2
 911 745 911 745 911 569 c 2,3,-1
 911 -2 l 1,4,-1
 821 -2 l 1,5,-1
 803 135 l 1,6,7
 715 69 715 69 630 33.5 c 128,-1,8
 545 -2 545 -2 473 -2 c 0,9,10
 410 -2 410 -2 348.5 15.5 c 128,-1,11
 287 33 287 33 238.5 68.5 c 128,-1,12
 190 104 190 104 160.5 155.5 c 128,-1,13
 131 207 131 207 131 274 c 0,14,15
 131 348 131 348 163 392 c 128,-1,16
 195 436 195 436 245 460.5 c 128,-1,17
 295 485 295 485 357.5 495.5 c 128,-1,18
 420 506 420 506 483 512 c 0,19,20
 524 514 524 514 567 519 c 128,-1,21
 610 524 610 524 653 533.5 c 128,-1,22
 696 543 696 543 736 560.5 c 128,-1,23
 776 578 776 578 811 606 c 1,24,25
 811 723 811 723 743.5 795.5 c 128,-1,26
 676 868 676 868 537 868 c 0,27,28
 504 868 504 868 466 859 c 128,-1,29
 428 850 428 850 393 832.5 c 128,-1,30
 358 815 358 815 330.5 788.5 c 128,-1,31
 303 762 303 762 293 727 c 1,32,-1
 188 727 l 1,33,34
 196 782 196 782 229 826 c 128,-1,35
 262 870 262 870 311 899 c 128,-1,36
 360 928 360 928 419 943 c 128,-1,37
 478 958 478 958 537 958 c 0,0,1
473 76 m 0,38,39
 530 76 530 76 586.5 91 c 128,-1,40
 643 106 643 106 689 137 c 128,-1,41
 735 168 735 168 767 213 c 128,-1,42
 799 258 799 258 811 317 c 1,43,-1
 811 547 l 1,44,45
 729 500 729 500 673.5 487.5 c 128,-1,46
 618 475 618 475 565 469 c 0,47,48
 510 461 510 461 450.5 450.5 c 128,-1,49
 391 440 391 440 344 419.5 c 128,-1,50
 297 399 297 399 266.5 365.5 c 128,-1,51
 236 332 236 332 236 279 c 0,52,53
 236 228 236 228 256 190 c 128,-1,54
 276 152 276 152 309 126 c 128,-1,55
 342 100 342 100 385 88 c 128,-1,56
 428 76 428 76 473 76 c 0,38,39
260 1305 m 1,57,-1
 780 1305 l 1,58,-1
 780 1243 l 1,59,-1
 260 1243 l 1,60,-1
 260 1305 l 1,57,-1
EndSplineSet
Validated: 1
EndChar

StartChar: Abreve
Encoding: 258 258 179
Width: 1241
GlyphClass: 2
Flags: W
LayerCount: 2
Fore
SplineSet
911 426 m 1,0,-1
 367 426 l 1,1,-1
 322 270 l 1,2,-1
 242 0 l 1,3,-1
 150 0 l 1,4,-1
 567 1456 l 1,5,-1
 707 1456 l 1,6,-1
 1126 0 l 1,7,-1
 1032 0 l 1,8,-1
 911 426 l 1,0,-1
637 1366 m 1,9,-1
 395 528 l 1,10,-1
 881 528 l 1,11,-1
 637 1366 l 1,9,-1
848 1923 m 1,12,13
 830 1853 830 1853 771.5 1803 c 128,-1,14
 713 1753 713 1753 637 1753 c 0,15,16
 559 1753 559 1753 502.5 1802 c 128,-1,17
 446 1851 446 1851 430 1923 c 1,18,-1
 465 1923 l 1,19,20
 475 1857 475 1857 525 1824.5 c 128,-1,21
 575 1792 575 1792 637 1792 c 0,22,23
 700 1792 700 1792 749.5 1825 c 128,-1,24
 799 1858 799 1858 809 1923 c 1,25,-1
 848 1923 l 1,12,13
EndSplineSet
Validated: 1
EndChar

StartChar: abreve
Encoding: 259 259 180
Width: 997
GlyphClass: 2
Flags: W
LayerCount: 2
Fore
SplineSet
537 958 m 0,0,1
 715 958 715 958 813 851.5 c 128,-1,2
 911 745 911 745 911 569 c 2,3,-1
 911 -2 l 1,4,-1
 821 -2 l 1,5,-1
 803 135 l 1,6,7
 715 69 715 69 630 33.5 c 128,-1,8
 545 -2 545 -2 473 -2 c 0,9,10
 410 -2 410 -2 348.5 15.5 c 128,-1,11
 287 33 287 33 238.5 68.5 c 128,-1,12
 190 104 190 104 160.5 155.5 c 128,-1,13
 131 207 131 207 131 274 c 0,14,15
 131 348 131 348 163 392 c 128,-1,16
 195 436 195 436 245 460.5 c 128,-1,17
 295 485 295 485 357.5 495.5 c 128,-1,18
 420 506 420 506 483 512 c 0,19,20
 524 514 524 514 567 519 c 128,-1,21
 610 524 610 524 653 533.5 c 128,-1,22
 696 543 696 543 736 560.5 c 128,-1,23
 776 578 776 578 811 606 c 1,24,25
 811 723 811 723 743.5 795.5 c 128,-1,26
 676 868 676 868 537 868 c 0,27,28
 504 868 504 868 466 859 c 128,-1,29
 428 850 428 850 393 832.5 c 128,-1,30
 358 815 358 815 330.5 788.5 c 128,-1,31
 303 762 303 762 293 727 c 1,32,-1
 188 727 l 1,33,34
 196 782 196 782 229 826 c 128,-1,35
 262 870 262 870 311 899 c 128,-1,36
 360 928 360 928 419 943 c 128,-1,37
 478 958 478 958 537 958 c 0,0,1
473 76 m 0,38,39
 530 76 530 76 586.5 91 c 128,-1,40
 643 106 643 106 689 137 c 128,-1,41
 735 168 735 168 767 213 c 128,-1,42
 799 258 799 258 811 317 c 1,43,-1
 811 547 l 1,44,45
 729 500 729 500 673.5 487.5 c 128,-1,46
 618 475 618 475 565 469 c 0,47,48
 510 461 510 461 450.5 450.5 c 128,-1,49
 391 440 391 440 344 419.5 c 128,-1,50
 297 399 297 399 266.5 365.5 c 128,-1,51
 236 332 236 332 236 279 c 0,52,53
 236 228 236 228 256 190 c 128,-1,54
 276 152 276 152 309 126 c 128,-1,55
 342 100 342 100 385 88 c 128,-1,56
 428 76 428 76 473 76 c 0,38,39
735 1442 m 1,57,58
 719 1366 719 1366 661.5 1315 c 128,-1,59
 604 1264 604 1264 520 1264 c 0,60,61
 438 1264 438 1264 381 1315 c 128,-1,62
 324 1366 324 1366 305 1442 c 1,63,-1
 342 1442 l 1,64,65
 352 1376 352 1376 404.5 1340.5 c 128,-1,66
 457 1305 457 1305 520 1305 c 0,67,68
 581 1305 581 1305 631.5 1341.5 c 128,-1,69
 682 1378 682 1378 696 1442 c 1,70,-1
 735 1442 l 1,57,58
EndSplineSet
Validated: 1
EndChar

StartChar: Aogonek
Encoding: 260 260 181
Width: 1241
GlyphClass: 2
Flags: W
LayerCount: 2
Fore
SplineSet
911 426 m 1,0,-1
 365 426 l 1,1,-1
 242 0 l 1,2,-1
 147 0 l 1,3,-1
 567 1456 l 1,4,-1
 705 1456 l 1,5,-1
 1128 -8 l 1,6,7
 1073 -24 1073 -24 1042.5 -69.5 c 128,-1,8
 1012 -115 1012 -115 1012 -174 c 0,9,10
 1012 -240 1012 -240 1044.5 -288 c 128,-1,11
 1077 -336 1077 -336 1143 -346 c 1,12,-1
 1143 -383 l 1,13,14
 1073 -365 1073 -365 1023 -307.5 c 128,-1,15
 973 -250 973 -250 973 -174 c 0,16,17
 973 -139 973 -139 988.5 -96 c 128,-1,18
 1004 -53 1004 -53 1038 -23 c 1,19,-1
 911 426 l 1,0,-1
637 1364 m 1,20,-1
 393 528 l 1,21,-1
 879 528 l 1,22,-1
 637 1364 l 1,20,-1
EndSplineSet
Validated: 1
EndChar

StartChar: aogonek
Encoding: 261 261 182
Width: 997
GlyphClass: 2
Flags: W
LayerCount: 2
Fore
SplineSet
537 958 m 0,0,1
 715 958 715 958 813 851.5 c 128,-1,2
 911 745 911 745 911 569 c 2,3,-1
 911 -6 l 1,4,5
 850 -24 850 -24 812 -70.5 c 128,-1,6
 774 -117 774 -117 774 -180 c 0,7,8
 774 -250 774 -250 810 -297 c 128,-1,9
 846 -344 846 -344 911 -354 c 1,10,-1
 911 -395 l 1,11,12
 835 -379 835 -379 784 -321.5 c 128,-1,13
 733 -264 733 -264 733 -180 c 0,14,15
 733 -131 733 -131 756.5 -85 c 128,-1,16
 780 -39 780 -39 819 -2 c 1,17,-1
 815 139 l 1,18,19
 723 73 723 73 635 35.5 c 128,-1,20
 547 -2 547 -2 473 -2 c 0,21,22
 410 -2 410 -2 348.5 15.5 c 128,-1,23
 287 33 287 33 238.5 68.5 c 128,-1,24
 190 104 190 104 160.5 155.5 c 128,-1,25
 131 207 131 207 131 274 c 0,26,27
 131 348 131 348 163 392 c 128,-1,28
 195 436 195 436 245 460.5 c 128,-1,29
 295 485 295 485 357.5 495.5 c 128,-1,30
 420 506 420 506 483 512 c 0,31,32
 524 514 524 514 567 519 c 128,-1,33
 610 524 610 524 653 533.5 c 128,-1,34
 696 543 696 543 736 560.5 c 128,-1,35
 776 578 776 578 811 606 c 1,36,37
 811 723 811 723 743.5 795.5 c 128,-1,38
 676 868 676 868 537 868 c 0,39,40
 504 868 504 868 466 859 c 128,-1,41
 428 850 428 850 393 832.5 c 128,-1,42
 358 815 358 815 330.5 788.5 c 128,-1,43
 303 762 303 762 293 727 c 1,44,-1
 188 727 l 1,45,46
 196 782 196 782 229 826 c 128,-1,47
 262 870 262 870 311 899 c 128,-1,48
 360 928 360 928 419 943 c 128,-1,49
 478 958 478 958 537 958 c 0,0,1
473 76 m 0,50,51
 530 76 530 76 586.5 91 c 128,-1,52
 643 106 643 106 689 137 c 128,-1,53
 735 168 735 168 767 213 c 128,-1,54
 799 258 799 258 811 317 c 1,55,-1
 811 547 l 1,56,57
 729 500 729 500 673.5 487.5 c 128,-1,58
 618 475 618 475 565 469 c 0,59,60
 510 461 510 461 450.5 450.5 c 128,-1,61
 391 440 391 440 344 419.5 c 128,-1,62
 297 399 297 399 266.5 365.5 c 128,-1,63
 236 332 236 332 236 279 c 0,64,65
 236 228 236 228 256 190 c 128,-1,66
 276 152 276 152 309 126 c 128,-1,67
 342 100 342 100 385 88 c 128,-1,68
 428 76 428 76 473 76 c 0,50,51
EndSplineSet
Validated: 1
EndChar

StartChar: Cacute
Encoding: 262 262 183
Width: 1419
GlyphClass: 2
Flags: W
LayerCount: 2
Fore
SplineSet
1311 158 m 1,0,1
 1213 86 1213 86 1099 43 c 128,-1,2
 985 0 985 0 858 0 c 0,3,4
 706 0 706 0 574 57.5 c 128,-1,5
 442 115 442 115 344 213 c 128,-1,6
 246 311 246 311 188.5 443 c 128,-1,7
 131 575 131 575 131 727 c 0,8,9
 131 877 131 877 188.5 1010 c 128,-1,10
 246 1143 246 1143 344 1242 c 128,-1,11
 442 1341 442 1341 574.5 1398.5 c 128,-1,12
 707 1456 707 1456 858 1456 c 0,13,14
 987 1456 987 1456 1099.5 1415 c 128,-1,15
 1212 1374 1212 1374 1311 1298 c 1,16,-1
 1237 1223 l 1,17,18
 1159 1282 1159 1282 1065 1317 c 128,-1,19
 971 1352 971 1352 858 1352 c 0,20,21
 729 1352 729 1352 615.5 1302.5 c 128,-1,22
 502 1253 502 1253 418 1168 c 128,-1,23
 334 1083 334 1083 285 969.5 c 128,-1,24
 236 856 236 856 236 727 c 256,25,26
 236 598 236 598 285 484.5 c 128,-1,27
 334 371 334 371 418 287 c 128,-1,28
 502 203 502 203 615.5 153.5 c 128,-1,29
 729 104 729 104 858 104 c 0,30,31
 960 104 960 104 1059.5 142 c 128,-1,32
 1159 180 1159 180 1237 233 c 1,33,-1
 1311 158 l 1,0,1
827 1921 m 1,34,-1
 903 1921 l 1,35,-1
 772 1733 l 1,36,-1
 725 1733 l 1,37,-1
 827 1921 l 1,34,-1
EndSplineSet
Validated: 1
EndChar

StartChar: cacute
Encoding: 263 263 184
Width: 1081
GlyphClass: 2
Flags: W
LayerCount: 2
Fore
SplineSet
578 -2 m 0,0,1
 482 -2 482 -2 399.5 35 c 128,-1,2
 317 72 317 72 258 136.5 c 128,-1,3
 199 201 199 201 165 288 c 128,-1,4
 131 375 131 375 131 477 c 256,5,6
 131 579 131 579 165 667.5 c 128,-1,7
 199 756 199 756 258 820.5 c 128,-1,8
 317 885 317 885 399 921.5 c 128,-1,9
 481 958 481 958 578 958 c 0,10,11
 711 958 711 958 815.5 882.5 c 128,-1,12
 920 807 920 807 979 696 c 1,13,-1
 866 696 l 1,14,15
 821 774 821 774 748.5 821 c 128,-1,16
 676 868 676 868 578 868 c 0,17,18
 504 868 504 868 441.5 838.5 c 128,-1,19
 379 809 379 809 334 757 c 128,-1,20
 289 705 289 705 263.5 633 c 128,-1,21
 238 561 238 561 238 477 c 256,22,23
 238 393 238 393 263.5 321.5 c 128,-1,24
 289 250 289 250 334 197.5 c 128,-1,25
 379 145 379 145 441.5 116.5 c 128,-1,26
 504 88 504 88 578 88 c 0,27,28
 674 88 674 88 746.5 132 c 128,-1,29
 819 176 819 176 864 256 c 1,30,-1
 979 256 l 1,31,32
 922 139 922 139 817.5 68.5 c 128,-1,33
 713 -2 713 -2 578 -2 c 0,0,1
666 1440 m 1,34,-1
 743 1440 l 1,35,36
 723 1411 723 1411 706.5 1387.5 c 128,-1,37
 690 1364 690 1364 673.5 1341.5 c 128,-1,38
 657 1319 657 1319 640 1295.5 c 128,-1,39
 623 1272 623 1272 604 1243 c 1,40,-1
 557 1243 l 1,41,-1
 666 1440 l 1,34,-1
EndSplineSet
Validated: 1
EndChar

StartChar: Ccircumflex
Encoding: 264 264 185
Width: 1419
GlyphClass: 2
Flags: W
LayerCount: 2
Fore
SplineSet
1311 158 m 1,0,1
 1213 86 1213 86 1099 43 c 128,-1,2
 985 0 985 0 858 0 c 0,3,4
 706 0 706 0 574 57.5 c 128,-1,5
 442 115 442 115 344 213 c 128,-1,6
 246 311 246 311 188.5 443 c 128,-1,7
 131 575 131 575 131 727 c 0,8,9
 131 877 131 877 188.5 1010 c 128,-1,10
 246 1143 246 1143 344 1242 c 128,-1,11
 442 1341 442 1341 574.5 1398.5 c 128,-1,12
 707 1456 707 1456 858 1456 c 0,13,14
 987 1456 987 1456 1099.5 1415 c 128,-1,15
 1212 1374 1212 1374 1311 1298 c 1,16,-1
 1237 1223 l 1,17,18
 1159 1282 1159 1282 1065 1317 c 128,-1,19
 971 1352 971 1352 858 1352 c 0,20,21
 729 1352 729 1352 615.5 1302.5 c 128,-1,22
 502 1253 502 1253 418 1168 c 128,-1,23
 334 1083 334 1083 285 969.5 c 128,-1,24
 236 856 236 856 236 727 c 256,25,26
 236 598 236 598 285 484.5 c 128,-1,27
 334 371 334 371 418 287 c 128,-1,28
 502 203 502 203 615.5 153.5 c 128,-1,29
 729 104 729 104 858 104 c 0,30,31
 960 104 960 104 1059.5 142 c 128,-1,32
 1159 180 1159 180 1237 233 c 1,33,-1
 1311 158 l 1,0,1
780 1921 m 1,34,35
 805 1890 805 1890 829.5 1857.5 c 128,-1,36
 854 1825 854 1825 877 1794 c 2,37,-1
 922 1733 l 1,38,-1
 852 1733 l 1,39,-1
 729 1892 l 1,40,-1
 612 1733 l 1,41,-1
 541 1733 l 1,42,43
 553 1749 553 1749 561 1759 c 128,-1,44
 569 1769 569 1769 575.5 1778.5 c 128,-1,45
 582 1788 582 1788 588 1797 c 128,-1,46
 594 1806 594 1806 604 1821 c 2,47,-1
 678 1921 l 1,48,-1
 780 1921 l 1,34,35
EndSplineSet
Validated: 1
EndChar

StartChar: ccircumflex
Encoding: 265 265 186
Width: 1081
GlyphClass: 2
Flags: W
LayerCount: 2
Fore
SplineSet
578 -2 m 0,0,1
 482 -2 482 -2 399.5 35 c 128,-1,2
 317 72 317 72 258 136.5 c 128,-1,3
 199 201 199 201 165 288 c 128,-1,4
 131 375 131 375 131 477 c 256,5,6
 131 579 131 579 165 667.5 c 128,-1,7
 199 756 199 756 258 820.5 c 128,-1,8
 317 885 317 885 399 921.5 c 128,-1,9
 481 958 481 958 578 958 c 0,10,11
 711 958 711 958 815.5 882.5 c 128,-1,12
 920 807 920 807 979 696 c 1,13,-1
 866 696 l 1,14,15
 821 774 821 774 748.5 821 c 128,-1,16
 676 868 676 868 578 868 c 0,17,18
 504 868 504 868 441.5 838.5 c 128,-1,19
 379 809 379 809 334 757 c 128,-1,20
 289 705 289 705 263.5 633 c 128,-1,21
 238 561 238 561 238 477 c 256,22,23
 238 393 238 393 263.5 321.5 c 128,-1,24
 289 250 289 250 334 197.5 c 128,-1,25
 379 145 379 145 441.5 116.5 c 128,-1,26
 504 88 504 88 578 88 c 0,27,28
 674 88 674 88 746.5 132 c 128,-1,29
 819 176 819 176 864 256 c 1,30,-1
 979 256 l 1,31,32
 922 139 922 139 817.5 68.5 c 128,-1,33
 713 -2 713 -2 578 -2 c 0,0,1
614 1440 m 1,34,-1
 762 1243 l 1,35,-1
 688 1243 l 1,36,-1
 563 1407 l 1,37,-1
 442 1243 l 1,38,-1
 365 1243 l 1,39,40
 390 1276 390 1276 407 1299.5 c 128,-1,41
 424 1323 424 1323 440.5 1344.5 c 128,-1,42
 457 1366 457 1366 474.5 1387.5 c 128,-1,43
 492 1409 492 1409 514 1440 c 1,44,-1
 614 1440 l 1,34,-1
EndSplineSet
Validated: 1
EndChar

